<svg width="261" height="120" viewBox="0 0 261 120" fill="none" xmlns="http://www.w3.org/2000/svg">
<path d="M260.764 75C260.764 80.9095 259.6 86.7611 257.338 92.2208C255.077 97.6804 251.762 102.641 247.584 106.82C243.405 110.998 238.444 114.313 232.985 116.575C227.525 118.836 221.673 120 215.764 120C209.854 120 204.003 118.836 198.543 116.575C193.083 114.313 188.123 110.998 183.944 106.82C179.765 102.641 176.451 97.6804 174.189 92.2208C171.928 86.7611 170.764 80.9095 170.764 75L189.632 75C189.632 78.4317 190.308 81.8298 191.621 85.0003C192.934 88.1707 194.859 91.0515 197.286 93.4781C199.712 95.9046 202.593 97.8295 205.763 99.1428C208.934 100.456 212.332 101.132 215.764 101.132C219.195 101.132 222.594 100.456 225.764 99.1428C228.934 97.8295 231.815 95.9046 234.242 93.4781C236.668 91.0515 238.593 88.1707 239.907 85.0003C241.22 81.8298 241.896 78.4317 241.896 75H260.764Z" fill="#F35D5D"/>
<path d="M260.764 30C260.764 33.9397 259.988 37.8407 258.48 41.4805C256.972 45.1203 254.763 48.4274 251.977 51.2132C249.191 53.999 245.884 56.2087 242.244 57.7164C238.604 59.224 234.703 60 230.764 60L230.764 30L260.764 30Z" fill="white"/>
<path d="M21.12 96.96C21.12 100.608 20.416 103.744 19.008 106.368C17.6 109.056 15.712 111.136 13.344 112.608C10.976 114.08 8.32 114.816 5.376 114.816C3.776 114.816 2.496 114.272 1.536 113.184C0.511998 112.16 -1.96695e-06 110.912 -1.96695e-06 109.44V108.384C-1.96695e-06 106.976 0.479998 105.856 1.44 105.024C2.336 104.192 3.488 103.552 4.896 103.104C6.432 102.592 7.52 101.856 8.16 100.896C8.8 100 9.184 98.912 9.312 97.632C9.504 96.352 9.6 95.008 9.6 93.6V50.496C9.6 48.832 10.144 47.456 11.232 46.368C12.32 45.216 13.696 44.64 15.36 44.64C17.024 44.64 18.4 45.216 19.488 46.368C20.576 47.456 21.12 48.832 21.12 50.496V96.96ZM15.168 38.4C12.992 38.4 11.456 38.048 10.56 37.344C9.664 36.64 9.216 35.392 9.216 33.6V31.776C9.216 29.92 9.696 28.672 10.656 28.032C11.68 27.328 13.216 26.976 15.264 26.976C17.504 26.976 19.072 27.328 19.968 28.032C20.864 28.736 21.312 29.984 21.312 31.776V33.6C21.312 35.456 20.832 36.736 19.872 37.44C18.912 38.08 17.344 38.4 15.168 38.4ZM84.4215 70.368C84.4215 75.616 83.2375 80.256 80.8695 84.288C78.5655 88.256 75.4295 91.36 71.4615 93.6C67.5575 95.84 63.1735 96.96 58.3095 96.96C53.4455 96.96 49.0295 95.84 45.0615 93.6C41.1575 91.36 38.0215 88.256 35.6535 84.288C33.3495 80.256 32.1975 75.616 32.1975 70.368C32.1975 65.12 33.3495 60.512 35.6535 56.544C38.0215 52.512 41.1575 49.376 45.0615 47.136C49.0295 44.832 53.4455 43.68 58.3095 43.68C63.1735 43.68 67.5575 44.832 71.4615 47.136C75.4295 49.376 78.5655 52.512 80.8695 56.544C83.2375 60.512 84.4215 65.12 84.4215 70.368ZM72.9015 70.368C72.9015 67.104 72.2295 64.288 70.8855 61.92C69.6055 59.488 67.8455 57.6 65.6055 56.256C63.4295 54.912 60.9975 54.24 58.3095 54.24C55.6215 54.24 53.1575 54.912 50.9175 56.256C48.7415 57.6 46.9815 59.488 45.6375 61.92C44.3575 64.288 43.7175 67.104 43.7175 70.368C43.7175 73.568 44.3575 76.384 45.6375 78.816C46.9815 81.184 48.7415 83.04 50.9175 84.384C53.1575 85.728 55.6215 86.4 58.3095 86.4C60.9975 86.4 63.4295 85.728 65.6055 84.384C67.8455 83.04 69.6055 81.184 70.8855 78.816C72.2295 76.384 72.9015 73.568 72.9015 70.368ZM132.616 44.64C134.28 44.64 135.656 45.216 136.744 46.368C137.832 47.456 138.376 48.832 138.376 50.496V91.296C138.376 97.184 137.256 101.856 135.016 105.312C132.84 108.832 129.896 111.36 126.184 112.896C122.472 114.432 118.312 115.2 113.704 115.2C111.656 115.2 109.48 115.04 107.176 114.72C104.872 114.4 102.984 113.92 101.512 113.28C99.5917 112.448 98.2477 111.392 97.4797 110.112C96.7757 108.896 96.6477 107.584 97.0957 106.176C97.6717 104.32 98.5997 103.04 99.8797 102.336C101.16 101.696 102.504 101.632 103.912 102.144C104.936 102.464 106.28 102.944 107.944 103.584C109.608 104.288 111.528 104.64 113.704 104.64C116.648 104.64 119.08 104.224 121 103.392C122.984 102.624 124.456 101.28 125.416 99.36C126.44 97.504 126.952 94.944 126.952 91.68V85.248L128.968 87.552C127.88 89.664 126.504 91.424 124.84 92.832C123.24 94.176 121.32 95.2 119.08 95.904C116.84 96.608 114.28 96.96 111.4 96.96C108.008 96.96 105.032 96.192 102.472 94.656C99.9757 93.056 98.0237 90.88 96.6157 88.128C95.2077 85.312 94.5037 82.112 94.5037 78.528V50.496C94.5037 48.832 95.0477 47.456 96.1357 46.368C97.2237 45.216 98.5997 44.64 100.264 44.64C101.928 44.64 103.304 45.216 104.392 46.368C105.48 47.456 106.024 48.832 106.024 50.496V75.072C106.024 79.232 106.92 82.176 108.712 83.904C110.568 85.568 113.128 86.4 116.392 86.4C118.632 86.4 120.52 85.984 122.056 85.152C123.592 84.256 124.776 82.976 125.608 81.312C126.44 79.584 126.856 77.504 126.856 75.072V50.496C126.856 48.832 127.4 47.456 128.488 46.368C129.576 45.216 130.952 44.64 132.616 44.64Z" fill="white"/>
<rect x="170.764" y="30" width="30" height="30" rx="15" fill="white"/>
</svg>
