<?xml version="1.0" encoding="UTF-8"?>
<svg version="1.1" xmlns="http://www.w3.org/2000/svg" width="1536" height="1024">
<path d="M0 0 C506.88 0 1013.76 0 1536 0 C1536 337.92 1536 675.84 1536 1024 C1029.12 1024 522.24 1024 0 1024 C0 686.08 0 348.16 0 0 Z " fill="#FDFDFD" transform="translate(0,0)"/>
<path d="M0 0 C8.89578417 -0.26687353 8.89578417 -0.26687353 11.17578125 1.47631836 C12.83062546 3.61392598 12.8345924 4.59280871 12.703125 7.26171875 C12.67992187 8.04160156 12.65671875 8.82148438 12.6328125 9.625 C12.55505927 11.25522611 12.47693784 12.8854347 12.3984375 14.515625 C12.2567201 19.29465062 12.36399474 22.32979309 15.515625 26.20703125 C27.86692541 35.60475982 45.02669777 34.60523626 59.78955078 32.80859375 C71.40456066 30.98249998 82.76834152 28.25287441 93.77294922 24.08740234 C98.17624936 22.45053973 101.82106634 21.76801392 106.515625 22.20703125 C109.32925402 25.02066027 108.85788398 27.7318374 108.91040039 31.50463867 C108.92859329 32.25802521 108.94678619 33.01141174 108.9655304 33.78762817 C109.02388197 36.29580742 109.06847784 38.80404512 109.11328125 41.3125 C109.15194875 43.07060252 109.19155015 44.82868473 109.23204041 46.58674622 C109.33705304 51.24176263 109.43079235 55.89693714 109.52178955 60.55224609 C109.66767307 67.9124887 109.83067457 75.27238735 109.99216652 82.63230133 C110.03126463 84.42008902 110.06997957 86.20788513 110.10831261 87.99568939 C110.38042229 100.64714992 110.7885219 113.28165683 111.40786743 125.92141724 C112.55383137 150.2281204 112.64147878 174.57629417 112.69684982 198.90506744 C112.70306174 201.06008563 112.71295562 203.21505728 112.72390747 205.37005615 C112.87183278 236.41527581 112.2733703 270.20639591 89.515625 294.20703125 C88.41154297 295.44453125 88.41154297 295.44453125 87.28515625 296.70703125 C73.21792946 311.76102925 54.28569788 319.72806224 34.515625 324.20703125 C33.76804932 324.38282715 33.02047363 324.55862305 32.25024414 324.73974609 C26.98614221 325.6392632 21.6188313 325.43269747 16.29052734 325.44726562 C14.18154495 325.45684538 12.07359261 325.48784308 9.96484375 325.51953125 C-2.48777212 325.61779187 -14.36395835 323.79276791 -26.109375 319.45703125 C-26.81537842 319.20026611 -27.52138184 318.94350098 -28.2487793 318.67895508 C-39.90979963 314.29932189 -49.78213266 307.96310109 -59.484375 300.20703125 C-60.48597656 299.43746094 -60.48597656 299.43746094 -61.5078125 298.65234375 C-76.44454559 286.68943988 -86.14669845 267.04731552 -88.484375 248.20703125 C-89.61308092 231.67637768 -88.9169248 215.91255637 -78.37109375 202.32421875 C-72.90282708 196.18798576 -67.33781613 190.98924786 -58.8828125 189.859375 C-50.50486681 189.40932007 -46.11087058 192.03384761 -39.984375 197.39453125 C-37.72880187 201.62373087 -37.71027661 205.51734777 -38.484375 210.20703125 C-40.421875 213.64453125 -40.421875 213.64453125 -42.484375 216.20703125 C-46.31142737 227.68818837 -43.60268956 240.902261 -38.41699219 251.48388672 C-36.01305972 255.92549807 -32.99727086 259.60731477 -29.484375 263.20703125 C-28.86820312 263.85027344 -28.25203125 264.49351562 -27.6171875 265.15625 C-22.34269068 270.20094509 -16.17315553 273.38558201 -9.484375 276.20703125 C-8.53304687 276.61308594 -8.53304687 276.61308594 -7.5625 277.02734375 C-0.88656206 279.5903181 5.54670751 279.7456929 12.640625 279.70703125 C13.83751953 279.70203613 15.03441406 279.69704102 16.26757812 279.69189453 C25.57449884 279.50883654 33.045499 278.25982572 41.515625 274.20703125 C42.51335937 273.76101563 43.51109375 273.315 44.5390625 272.85546875 C57.73967434 266.38174404 66.14055955 254.82460743 71.01953125 241.20703125 C72.08820934 237.98451449 73.08430129 234.74575362 73.93373108 231.45762634 C74.34715031 229.85864197 74.79580912 228.2685874 75.26829529 226.68605042 C78.11718468 216.19861357 77.91444775 205.93719793 77.84375 195.14453125 C77.84114469 193.08549109 77.8397842 191.02644903 77.83958435 188.96740723 C77.83492854 183.50394734 77.81107706 178.04074112 77.7821312 172.57736206 C77.76009404 168.07768867 77.74788314 163.57800888 77.73541927 159.07830048 C77.69846615 146.06412669 77.62634792 133.050336 77.5351944 120.03643799 C77.51687712 117.38806662 77.49975328 114.73969083 77.48309326 112.09130859 C77.43153758 104.06597236 77.36249436 96.04135946 77.24914551 88.01660156 C77.21862888 85.82199486 77.19229735 83.6273257 77.17028809 81.43261719 C77.1379358 78.49233189 77.08635912 75.55313496 77.02734375 72.61328125 C77.01772865 71.3690741 77.01772865 71.3690741 77.00791931 70.09973145 C76.91643338 65.89819588 76.91643338 65.89819588 75.13476562 62.18847656 C72.74081986 60.73738157 71.07235511 61.10093933 68.328125 61.45703125 C67.42707031 61.5653125 66.52601563 61.67359375 65.59765625 61.78515625 C63.34098409 62.09405434 61.08478154 62.40638855 58.82885742 62.72070312 C54.69495763 63.23308842 50.58480616 63.38473579 46.421875 63.41015625 C45.67208374 63.41585632 44.92229248 63.4215564 44.14978027 63.4274292 C42.56991964 63.4368141 40.99004 63.44338702 39.41015625 63.44726562 C37.04911 63.45689469 34.68896501 63.48794811 32.328125 63.51953125 C14.15020735 63.64808408 -3.29368481 61.31958797 -17.109375 48.33203125 C-24.62748233 40.20901873 -26.89597375 31.63572065 -26.68359375 20.72265625 C-26.17544927 14.30608671 -24.05316518 10.37630198 -19.484375 5.83203125 C-13.37848622 0.80944532 -7.6514354 0.45462565 0 0 Z " fill="#67B6E5" transform="translate(449.484375,265.79296875)"/>
<path d="M0 0 C12.30348389 7.461389 12.30348389 7.461389 26.16796875 10.05859375 C27.11607422 10.05988281 28.06417969 10.06117188 29.04101562 10.0625 C30.02521484 10.05863281 31.00941406 10.05476563 32.0234375 10.05078125 C33.48233398 10.05658203 33.48233398 10.05658203 34.97070312 10.0625 C40.15921501 10.05547426 45.09893816 9.82412423 50.2109375 8.92578125 C50.2109375 9.58578125 50.2109375 10.24578125 50.2109375 10.92578125 C48.19501097 12.05955045 46.17294003 13.18239766 44.1484375 14.30078125 C43.02308594 14.92726563 41.89773438 15.55375 40.73828125 16.19921875 C28.96561214 21.96169909 15.8599972 21.20838451 3.640625 17.24609375 C-5.85437756 13.5908422 -14.29660976 8.71737834 -22.73901367 3.13549805 C-27.86896091 -0.22050837 -33.0949688 -2.82841161 -38.7890625 -5.07421875 C-39.55734375 -5.38101562 -40.325625 -5.6878125 -41.1171875 -6.00390625 C-46.61126562 -8.0209629 -51.9629598 -8.72149019 -57.7890625 -9.07421875 C-57.7890625 -9.73421875 -57.7890625 -10.39421875 -57.7890625 -11.07421875 C-61.56070318 -10.99205881 -65.33087447 -10.87934469 -69.1015625 -10.76171875 C-70.15408203 -10.73916016 -71.20660156 -10.71660156 -72.29101562 -10.69335938 C-88.7279864 -10.13703113 -103.53375431 -4.35637636 -115.328125 7.23046875 C-128.79999002 21.98536853 -134.87083899 43.21458324 -135.7890625 62.92578125 C-135.83369629 63.64991211 -135.87833008 64.37404297 -135.92431641 65.12011719 C-137.35388737 90.58207574 -132.44344159 117.59507196 -124.49609375 141.75585938 C-123.78662852 143.93325127 -123.1253832 146.12024648 -122.4765625 148.31640625 C-111.66008827 184.48540948 -90.26326454 235.25816518 -55.7890625 254.92578125 C-50.00058405 257.304899 -43.46054564 258.21424041 -37.49609375 256.12109375 C-28.66764573 251.83256791 -24.98428445 243.59375054 -20.80883789 235.12329102 C-14.83154624 223.02083629 -8.90811815 213.7735507 3.76953125 207.9609375 C12.98614482 205.18863035 23.88419556 205.62030258 32.7265625 209.4921875 C42.82061451 215.3168999 48.1159908 223.83836486 53.2109375 233.92578125 C53.53755371 234.56370605 53.86416992 235.20163086 54.20068359 235.85888672 C56.63458356 240.61992613 59.04163476 245.39583533 61.28515625 250.25 C62.98224072 253.32193771 66.02647546 253.8642939 69.2109375 254.92578125 C79.35134786 255.92507855 85.04069386 253.42513305 93.0234375 247.48828125 C104.47406494 237.94317807 112.26968789 225.78221249 119.88427734 213.12988281 C121.01700129 211.24798517 122.16732248 209.37877222 123.32421875 207.51171875 C133.54494421 190.4560154 141.48963111 171.94192191 147.2109375 152.92578125 C147.54867188 151.91902344 147.88640625 150.91226563 148.234375 149.875 C149.31820543 146.60183211 150.27245569 143.30596109 151.2109375 139.98828125 C151.5409375 138.82425781 151.8709375 137.66023437 152.2109375 136.4609375 C152.5409375 135.29433594 152.8709375 134.12773437 153.2109375 132.92578125 C153.54867188 131.82105469 153.88640625 130.71632813 154.234375 129.578125 C158.30310156 114.36108768 158.52483244 98.57608208 158.5859375 82.92578125 C158.59361145 82.09715576 158.6012854 81.26853027 158.60919189 80.41479492 C158.68979046 69.51700599 157.82118136 59.52750239 155.2109375 48.92578125 C154.98825195 48.0023291 154.76556641 47.07887695 154.53613281 46.12744141 C150.0195068 28.34849843 138.74728867 12.56052995 123.2109375 2.92578125 C109.9556337 -4.71203321 96.66753191 -7.62031074 81.3984375 -7.38671875 C79.55596436 -7.36871216 79.55596436 -7.36871216 77.67626953 -7.3503418 C64.41840829 -7.14452878 52.37800199 -5.58369474 39.67773438 -1.76220703 C33.46047558 0.04047051 27.68335971 0.49687733 21.2109375 -0.07421875 C22.75877604 -4.71773437 26.45098575 -5.7156512 30.6484375 -7.88671875 C31.49647949 -8.32886719 32.34452148 -8.77101563 33.21826172 -9.2265625 C41.57730205 -13.46102544 50.18169006 -16.60150537 59.2109375 -19.07421875 C59.86715088 -19.26854492 60.52336426 -19.46287109 61.19946289 -19.66308594 C67.86025801 -21.42515979 74.50924954 -21.37788976 81.36547852 -21.33496094 C83.3774291 -21.32432976 85.38846868 -21.3348587 87.40039062 -21.34765625 C113.16437947 -21.29706422 134.3385828 -13.59122223 152.828125 4.484375 C172.76443447 25.35993309 181.25357607 54.5502804 181.4140625 82.96484375 C181.42103149 83.8003476 181.42800049 84.63585144 181.43518066 85.49667358 C181.452487 88.18142793 181.45890138 90.86597343 181.4609375 93.55078125 C181.46194458 94.46762695 181.46295166 95.38447266 181.46398926 96.32910156 C181.45354228 110.38459485 180.94516125 124.09708717 178.2109375 137.92578125 C177.9941333 139.04218994 177.9941333 139.04218994 177.77294922 140.18115234 C174.56825132 156.12656502 169.91682162 172.10794053 163.2109375 186.92578125 C162.57924217 188.39128702 161.94917425 189.85749484 161.3203125 191.32421875 C150.13589186 217.13342607 136.23775892 241.1065781 117.2109375 261.92578125 C116.52773438 262.70308594 115.84453125 263.48039062 115.140625 264.28125 C106.01567647 274.1507027 94.28342407 280.42270607 80.875 281.234375 C70.454715 281.6319797 62.00205843 280.79424683 53.4609375 274.30078125 C45.80085534 266.99781248 42.75296884 257.30912455 39.17651367 247.62475586 C35.78993993 238.56228776 32.37967054 230.55313067 24.2109375 224.92578125 C18.68611899 223.08417508 12.25629518 222.62204969 6.8203125 224.94921875 C-1.31258162 230.56774484 -4.54673149 240.29699843 -7.9765625 249.17578125 C-8.31880859 250.0471875 -8.66105469 250.91859375 -9.01367188 251.81640625 C-10.31516315 255.13205003 -11.61077009 258.44772247 -12.85546875 261.78515625 C-16.1973038 269.44760648 -22.52257337 275.51660164 -29.9140625 279.23828125 C-39.72086824 282.86382761 -52.80345151 282.63774055 -62.4765625 278.80078125 C-64.27247713 277.89031757 -66.04688307 276.9352684 -67.7890625 275.92578125 C-68.87574219 275.36117187 -68.87574219 275.36117187 -69.984375 274.78515625 C-82.44187793 267.52211026 -92.75552538 254.66134015 -100.7890625 242.92578125 C-101.16804687 242.3858252 -101.54703125 241.84586914 -101.9375 241.28955078 C-120.68492019 214.56988205 -134.53510792 184.85410528 -144.7890625 153.92578125 C-145.23548096 152.58531738 -145.23548096 152.58531738 -145.69091797 151.21777344 C-148.33918927 142.98296551 -150.26638799 134.71052668 -151.97167969 126.24267578 C-152.41253678 124.05834081 -152.8656891 121.87681899 -153.3203125 119.6953125 C-156.53437252 104.09518837 -158.22907712 88.85012427 -158.2265625 72.92578125 C-158.22796234 72.07293549 -158.22936218 71.22008972 -158.23080444 70.34140015 C-158.20621842 52.0692777 -156.21170648 34.44225729 -147.7890625 17.92578125 C-147.34949219 17.01183594 -146.90992188 16.09789062 -146.45703125 15.15625 C-136.87690797 -3.7136898 -120.24403519 -17.88498212 -100.2265625 -24.63671875 C-63.33380841 -33.15345028 -30.58192877 -19.21962526 0 0 Z " fill="#61B1E1" transform="translate(738.7890625,309.07421875)"/>
<path d="M0 0 C4.29817295 2.60663392 7.22956116 5.84434174 10 10 C11.625344 18.43793472 8.19495897 24.91585429 4.3125 32.1875 C3.43706543 33.88011963 3.43706543 33.88011963 2.54394531 35.60693359 C-2.89581246 46.03289292 -8.66458592 56.2727705 -14.54248047 66.45654297 C-16.29317243 69.51160308 -17.9969263 72.5909704 -19.69799805 75.67382812 C-23.77592322 83.04178581 -28.17187293 90.09234254 -33 97 C-33.37737305 97.54333984 -33.75474609 98.08667969 -34.14355469 98.64648438 C-42.82487632 111.11744109 -51.96745522 123.09570157 -62.37109375 134.18359375 C-64.8614979 136.85161959 -67.27759344 139.571903 -69.6875 142.3125 C-72.88494856 145.87213743 -76.19284413 149.08099327 -79.84765625 152.1640625 C-82.3965206 154.33822991 -84.84947313 156.60412416 -87.3125 158.875 C-91.02081072 162.25973236 -94.79184164 165.52025421 -98.6875 168.6875 C-100.04294922 169.79158203 -100.04294922 169.79158203 -101.42578125 170.91796875 C-103.0394491 172.22310526 -104.66075044 173.51891986 -106.29296875 174.80078125 C-111.66193151 179.18258013 -116.23704826 183.79965733 -117.28556824 190.94645691 C-117.77415488 196.82352049 -117.69573164 202.71684978 -117.671875 208.609375 C-117.68247821 210.54161946 -117.6953992 212.47385243 -117.71051025 214.40606689 C-117.74464723 219.48778609 -117.7500967 224.56912177 -117.74859619 229.65093994 C-117.75136321 235.7594387 -117.78452464 241.86782676 -117.81666946 247.97623062 C-117.84166344 252.74493188 -117.86145398 257.51339369 -117.86248779 262.28216553 C-117.86832741 267.52224888 -117.91767269 272.76057711 -118 278 C-118.01973625 279.4171505 -118.01973625 279.4171505 -118.03987122 280.8629303 C-118.09002319 283.72644742 -118.16987695 286.58764416 -118.25878906 289.45019531 C-118.27235317 290.31977245 -118.28591728 291.18934959 -118.29989243 292.08527756 C-118.54310042 298.39056178 -120.16159788 302.25947382 -124.8125 306.75 C-133.04480688 311.45417536 -144.8871037 311.62515597 -153.89453125 309.23046875 C-160.0545239 306.26065969 -163.70275969 301.33686283 -166 295 C-167.12154144 287.87180785 -166.79021021 280.55931984 -166.734375 273.3671875 C-166.74055957 271.24503568 -166.74966429 269.12289057 -166.76153564 267.00076294 C-166.7862015 261.42712912 -166.77707587 255.85409644 -166.75897217 250.28045654 C-166.73553241 241.38371195 -166.76303375 232.48700657 -166.79169464 223.59030533 C-166.79674573 220.50855928 -166.78704081 217.42714838 -166.77484131 214.34542847 C-166.14025797 190.36500819 -166.14025797 190.36500819 -176.703125 169.86328125 C-180.79189225 165.30657834 -184.49115241 160.54802293 -188.125 155.625 C-188.7646167 154.76503418 -189.4042334 153.90506836 -190.06323242 153.01904297 C-192.04664206 150.34932146 -194.02373547 147.67501345 -196 145 C-197.24339551 143.32284692 -198.48688274 141.64576183 -199.73046875 139.96875 C-202.64792519 136.0286068 -205.55214483 132.07900817 -208.44677734 128.12207031 C-209.42425264 126.78660736 -210.40349304 125.45243279 -211.38525391 124.12011719 C-218.27733415 114.75857043 -224.55493321 105.05993767 -230.65185547 95.16357422 C-231.84622804 93.24678144 -233.0714943 91.3568027 -234.31640625 89.47265625 C-237.76772878 84.05512573 -240.10915149 79.69274212 -239.5390625 73.13671875 C-238.58640718 69.36061398 -237.32268037 67.99360822 -234 66 C-229.13126926 65.10078351 -225.47413166 65.20789992 -221.0703125 67.57421875 C-217.38534149 70.48562714 -214.69004921 73.68879966 -211.8125 77.375 C-211.24789062 78.08325928 -210.68328125 78.79151855 -210.1015625 79.52124023 C-207.43420745 82.87528935 -204.79943021 86.25448103 -202.16796875 89.63671875 C-201.27891933 90.77885877 -200.38960026 91.92078896 -199.5 93.0625 C-199.05954346 93.62815674 -198.61908691 94.19381348 -198.1652832 94.77661133 C-193.19174766 101.11268558 -187.87135821 107.14061882 -182.56689453 113.19921875 C-180.16200016 115.96308613 -177.79804067 118.76074877 -175.4375 121.5625 C-174.54566999 122.61857157 -173.65374249 123.67456082 -172.76171875 124.73046875 C-172.31489746 125.25946777 -171.86807617 125.7884668 -171.40771484 126.33349609 C-170.94316895 126.88344238 -170.47862305 127.43338867 -170 128 C-169.49549316 128.5976416 -168.99098633 129.1952832 -168.47119141 129.81103516 C-158.44590524 143.163554 -158.44590524 143.163554 -145 152 C-131.80998377 152.83746135 -118.78269683 140.70570393 -108.63916016 133.20996094 C-107.08235514 132.0607912 -105.5160311 130.92455007 -103.94921875 129.7890625 C-94.95388298 123.18851149 -86.01331333 116.14690794 -78.21484375 108.140625 C-76 106 -76 106 -74 106 C-73.77957031 105.44828125 -73.55914063 104.8965625 -73.33203125 104.328125 C-71.56798024 101.24491561 -69.26392627 99.1904579 -66.6875 96.75 C-63.3459748 93.53091071 -60.3621008 90.40147336 -58 86.375 C-56 83 -56 83 -53 82 C-52.566875 80.329375 -52.566875 80.329375 -52.125 78.625 C-51 75 -51 75 -48.5625 73.5625 C-45.19225744 71.50747405 -44.97850514 69.62067034 -43.81640625 65.98828125 C-42.58586585 62.99141491 -40.32178538 61.20271947 -38 59 C-37.31246699 57.34183216 -36.64438717 55.67540664 -36 54 C-35.34 53.360625 -34.68 52.72125 -34 52.0625 C-31.56780837 49.55430238 -31.05129972 47.29407245 -30 44 C-29.5153125 43.53335938 -29.030625 43.06671875 -28.53125 42.5859375 C-26.69607513 40.68522067 -26.26594319 39.21727396 -25.5625 36.6875 C-24.29936419 32.57233651 -22.41029501 29.57656679 -20 26 C-19.31744011 23.67126625 -18.64949225 21.33817209 -18 19 C-17.46375 18.34 -16.9275 17.68 -16.375 17 C-14.3202305 14.01124437 -14.74713123 11.54016283 -15 8 C-15.42854995 5.68963085 -15.42854995 5.68963085 -16 4 C-11.50187801 -0.96344495 -6.28728959 -1.33473187 0 0 Z " fill="#76C1ED" transform="translate(1173,281)"/>
<path d="M0 0 C2.01195059 0.01063118 4.02299017 0.00010223 6.03491211 -0.01269531 C31.79890096 0.03789671 52.97310428 7.74373871 71.46264648 25.81933594 C91.39895595 46.69489403 99.88809756 75.88524134 100.04858398 104.29980469 C100.05555298 105.13530853 100.06252197 105.97081238 100.06970215 106.83163452 C100.08700848 109.51638887 100.09342286 112.20093437 100.09545898 114.88574219 C100.09646606 115.80258789 100.09747314 116.71943359 100.09851074 117.6640625 C100.08806376 131.71955579 99.57968273 145.43204811 96.84545898 159.26074219 C96.62865479 160.37715088 96.62865479 160.37715088 96.4074707 161.51611328 C93.20277281 177.46152595 88.55134311 193.44290146 81.84545898 208.26074219 C81.21376365 209.72624795 80.58369574 211.19245577 79.95483398 212.65917969 C68.77041335 238.46838701 54.8722804 262.44153904 35.84545898 283.26074219 C35.16225586 284.03804687 34.47905273 284.81535156 33.77514648 285.61621094 C24.65019795 295.48566364 12.91794555 301.75766701 -0.49047852 302.56933594 C-10.91076352 302.96694064 -19.36342009 302.12920777 -27.90454102 295.63574219 C-35.56462317 288.33277342 -38.61250967 278.64408549 -42.18896484 268.9597168 C-47.13127625 255.7296395 -47.13127625 255.7296395 -57.15454102 246.26074219 C-61.1294703 245.29758625 -65.09077574 244.70131221 -69.15454102 244.26074219 C-69.23561685 242.32393058 -69.29376576 240.38614879 -69.34204102 238.44824219 C-69.3768457 237.36929688 -69.41165039 236.29035156 -69.44750977 235.17871094 C-69.15454102 232.26074219 -69.15454102 232.26074219 -67.89282227 230.43261719 C-63.82366405 227.68936446 -59.15201366 227.87404079 -54.47094727 228.78027344 C-42.5534451 232.48230602 -35.66726275 240.84972485 -30.04125977 251.54589844 C-29.40954397 252.78274874 -28.78067947 254.0210591 -28.15454102 255.26074219 C-27.8279248 255.89866699 -27.50130859 256.5365918 -27.16479492 257.19384766 C-24.73089496 261.95488706 -22.32384375 266.73079627 -20.08032227 271.58496094 C-18.3832378 274.65689864 -15.33900306 275.19925484 -12.15454102 276.26074219 C-2.01413066 277.26003949 3.67521534 274.76009399 11.65795898 268.82324219 C23.10858642 259.27813901 30.90420938 247.11717343 38.51879883 234.46484375 C39.65152277 232.58294611 40.80184396 230.71373316 41.95874023 228.84667969 C52.17946569 211.79097633 60.1241526 193.27688284 65.84545898 174.26074219 C66.18319336 173.25398437 66.52092773 172.24722656 66.86889648 171.20996094 C67.95272691 167.93679305 68.90697717 164.64092203 69.84545898 161.32324219 C70.17545898 160.15921875 70.50545898 158.99519531 70.84545898 157.79589844 C71.17545898 156.62929688 71.50545898 155.46269531 71.84545898 154.26074219 C72.35206055 152.60365234 72.35206055 152.60365234 72.86889648 150.91308594 C76.93762304 135.69604862 77.15935393 119.91104301 77.22045898 104.26074219 C77.22813293 103.4321167 77.23580688 102.60349121 77.24371338 101.74975586 C77.32431195 90.85196693 76.45570284 80.86246333 73.84545898 70.26074219 C73.62277344 69.33729004 73.40008789 68.41383789 73.1706543 67.46240234 C68.65402828 49.68345937 57.38181015 33.89549089 41.84545898 24.26074219 C28.59015519 16.62292773 15.30205339 13.7146502 0.03295898 13.94824219 C-1.80951416 13.96624878 -1.80951416 13.96624878 -3.68920898 13.98461914 C-16.94707022 14.19043215 -28.98747653 15.7512662 -41.68774414 19.57275391 C-47.90500294 21.37543145 -53.68211881 21.83183826 -60.15454102 21.26074219 C-58.60670248 16.61722657 -54.91449277 15.61930973 -50.71704102 13.44824219 C-49.44497803 12.78501953 -49.44497803 12.78501953 -48.1472168 12.10839844 C-39.78817647 7.8739355 -31.18378846 4.73345557 -22.15454102 2.26074219 C-21.49832764 2.06641602 -20.84211426 1.87208984 -20.16601562 1.671875 C-13.50522051 -0.09019886 -6.85622898 -0.04292883 0 0 Z " fill="#6ECDC5" transform="translate(820.154541015625,287.7392578125)"/>
<path d="M0 0 C1.09505859 0.01353516 2.19011719 0.02707031 3.31835938 0.04101562 C5.98361414 0.07593163 8.64777504 0.12496283 11.3125 0.1875 C11.3125 0.8475 11.3125 1.5075 11.3125 2.1875 C12.23869141 2.13529297 12.23869141 2.13529297 13.18359375 2.08203125 C19.49794297 1.88020274 24.46698255 2.81540596 30.3125 5.1875 C30.3125 5.5175 30.3125 5.8475 30.3125 6.1875 C29.69246094 6.1153125 29.07242188 6.043125 28.43359375 5.96875 C17.76450353 4.85059207 6.62127697 3.75124101 -3.6875 7.1875 C-4.53570313 7.455625 -5.38390625 7.72375 -6.2578125 8 C-24.00526533 13.93229621 -34.8578672 24.82291399 -43.2265625 41.19921875 C-54.90672643 67.46167324 -52.91975488 95.63590102 -47.6875 123.1875 C-47.53265137 124.01008301 -47.37780273 124.83266602 -47.21826172 125.68017578 C-41.77501016 153.59567743 -28.85000011 182.99167994 -9.6875 204.1875 C-9.24567383 204.68378906 -8.80384766 205.18007813 -8.34863281 205.69140625 C-0.35725484 214.56700767 10.2828507 224.47004773 22.75390625 225.4609375 C36.06085296 225.93137692 43.11213854 222.09277013 53.48803711 213.85766602 C58.16594233 210.18044136 62.83812128 207.47391284 68.3125 205.1875 C68.97894531 204.87039063 69.64539063 204.55328125 70.33203125 204.2265625 C80.76847741 199.87638035 94.01999655 201.19967697 104.40625 204.953125 C112.60142647 208.433872 118.17817995 212.89176374 124.3125 219.25 C131.59076996 226.73922022 137.28459273 231.24292375 148.0625 231.9375 C160.90211077 231.42112435 170.59102565 224.00922118 179.3125 215.1875 C180.12448853 214.40838257 180.12448853 214.40838257 180.95288086 213.61352539 C204.94173653 190.35785346 216.72041806 156.61043603 225.3125 125.1875 C226.19799458 128.39678777 226.28207964 130.41668344 225.5625 133.6875 C225.27439453 135.00621094 225.27439453 135.00621094 224.98046875 136.3515625 C224.05568434 140.27784018 223.09724131 144.19363697 222.09765625 148.1015625 C221.56986035 150.1759842 221.05705691 152.25427269 220.55859375 154.3359375 C220.18927734 155.87121094 220.18927734 155.87121094 219.8125 157.4375 C219.48765625 158.80648437 219.48765625 158.80648437 219.15625 160.203125 C218.09415863 163.95978151 216.7258937 167.55105057 215.3125 171.1875 C215.03841309 171.90502441 214.76432617 172.62254883 214.48193359 173.36181641 C205.03610376 197.98098151 193.87981031 222.45539449 177.3125 243.1875 C176.87470215 243.74131348 176.4369043 244.29512695 175.98583984 244.86572266 C159.19109253 265.93446319 159.19109253 265.93446319 146.6640625 267.5234375 C140.60346492 267.61026555 135.90197615 267.42752365 131.3125 263.1875 C126.78416607 258.0601801 124.18119534 251.84656078 121.375 245.6875 C116.31099511 234.61695936 110.03098424 225.16354547 98.375 220.3125 C87.79991621 217.2936612 76.78996223 217.92169554 67.12109375 223.09375 C59.08228604 229.08651903 54.55315535 235.63813814 50.25 244.625 C40.48810379 264.76796803 40.48810379 264.76796803 31.34375 268.6015625 C24.57275827 270.55473319 18.59333088 268.89780225 12.3125 266.1875 C-21.58709352 247.43453337 -41.08756763 198.70778066 -52.6875 164.1875 C-53.35207765 162.45752938 -54.0187156 160.7283487 -54.6875 159 C-64.06110758 132.71640435 -69.70372044 102.08339148 -67.6875 74.1875 C-67.61716553 73.08704346 -67.61716553 73.08704346 -67.54541016 71.96435547 C-66.09435375 51.53216634 -59.04824871 29.3348039 -43.85546875 14.96484375 C-40.07690133 11.86709929 -35.98083467 9.49611495 -31.6875 7.1875 C-31.01847656 6.80722656 -30.34945312 6.42695313 -29.66015625 6.03515625 C-20.16924054 0.89181747 -10.65976205 -0.25458097 0 0 Z " fill="#CDE7F4" transform="translate(669.6875,297.8125)"/>
<path d="M0 0 C8.74227093 2.07053785 17.10424845 8.49097566 22 16 C26.09012864 23.74303662 24.92311592 35.21658116 23.3125 43.5625 C18.42795884 59.1930317 8.22983004 71.1002883 -6 79 C-32.83664675 91.22385991 -60.83910592 85.96036956 -88.44140625 78.8581543 C-95.95568643 76.93548965 -103.02955575 75.54289238 -110.8125 75.5 C-111.52349854 75.49379639 -112.23449707 75.48759277 -112.96704102 75.48120117 C-118.17675712 75.60823719 -122.19737306 76.99933075 -127 79 C-128.485 79.495 -128.485 79.495 -130 80 C-131.12516085 81.83284443 -131.12516085 81.83284443 -132 84 C-132.3407959 84.61584961 -132.6815918 85.23169922 -133.03271484 85.86621094 C-134.07634305 88.16840946 -134.30636342 89.81514657 -134.4140625 92.328125 C-134.45273437 93.12734375 -134.49140625 93.9265625 -134.53125 94.75 C-134.5621875 95.575 -134.593125 96.4 -134.625 97.25 C-134.66367187 98.09046875 -134.70234375 98.9309375 -134.7421875 99.796875 C-134.83615836 101.86423382 -134.91915564 103.93208627 -135 106 C-138.29697208 105.7080806 -139.69807962 105.30477947 -142.0625 102.91796875 C-151.58716461 89.49510472 -154.81914299 78.41955208 -152.4375 61.9375 C-148.85034687 47.22285146 -139.74638018 35.84424943 -127.25 27.5625 C-125.52811911 26.65297985 -123.77458874 25.80183259 -122 25 C-120.41832031 24.27490234 -120.41832031 24.27490234 -118.8046875 23.53515625 C-97.22152819 15.26390305 -72.08216568 20.23237805 -50 24 C-47.79956257 24.36508639 -45.59904456 24.7296875 -43.3984375 25.09375 C-40.46822313 25.58105042 -37.54593224 26.08408662 -34.625 26.625 C-23.40081215 27.78612288 -13.55684443 27.51259523 -3.5 22.125 C-0.12368942 19.25513601 0.81136849 17.25127611 1.1796875 12.85546875 C1.31107529 8.45397794 1.06087747 4.99295009 -1 1 C-0.67 0.67 -0.34 0.34 0 0 Z " fill="#6DCFC2" transform="translate(1102,240)"/>
<path d="M0 0 C4.20468072 0.74038943 6.11451646 2.47406924 8.6887207 5.79174805 C11.03623637 9.74506759 10.69841224 13.55211615 10 18 C8.48466849 22.27288669 6.44522207 26.1930214 4.3125 30.1875 C3.43706543 31.88011963 3.43706543 31.88011963 2.54394531 33.60693359 C-2.89581246 44.03289292 -8.66458592 54.2727705 -14.54248047 64.45654297 C-16.29317243 67.51160308 -17.9969263 70.5909704 -19.69799805 73.67382812 C-23.77592322 81.04178581 -28.17187293 88.09234254 -33 95 C-33.37737305 95.54333984 -33.75474609 96.08667969 -34.14355469 96.64648438 C-42.82487632 109.11744109 -51.96745522 121.09570157 -62.37109375 132.18359375 C-64.8614979 134.85161959 -67.27759344 137.571903 -69.6875 140.3125 C-72.88494856 143.87213743 -76.19284413 147.08099327 -79.84765625 150.1640625 C-82.3965206 152.33822991 -84.84947313 154.60412416 -87.3125 156.875 C-91.02081072 160.25973236 -94.79184164 163.52025421 -98.6875 166.6875 C-99.59113281 167.42355469 -100.49476562 168.15960938 -101.42578125 168.91796875 C-103.0394491 170.22310526 -104.66075044 171.51891986 -106.29296875 172.80078125 C-111.66193151 177.18258013 -116.23704826 181.79965733 -117.28556824 188.94645691 C-117.77415488 194.82352049 -117.69573164 200.71684978 -117.671875 206.609375 C-117.68247821 208.54161946 -117.6953992 210.47385243 -117.71051025 212.40606689 C-117.74464723 217.48778609 -117.7500967 222.56912177 -117.74859619 227.65093994 C-117.75136321 233.7594387 -117.78452464 239.86782676 -117.81666946 245.97623062 C-117.84166344 250.74493188 -117.86145398 255.51339369 -117.86248779 260.28216553 C-117.86832741 265.52224888 -117.91767269 270.76057711 -118 276 C-118.01973625 277.4171505 -118.01973625 277.4171505 -118.03987122 278.8629303 C-118.09002319 281.72644742 -118.16987695 284.58764416 -118.25878906 287.45019531 C-118.27235317 288.31977245 -118.28591728 289.18934959 -118.29989243 290.08527756 C-118.54310042 296.39056178 -120.16159788 300.25947382 -124.8125 304.75 C-132.56143857 309.1779649 -142.36039919 309.03098375 -151 308 C-156.50155315 306.4228881 -159.84442455 303.68083702 -163.0625 299 C-164.7692405 295.91383909 -165.55942989 293.58035128 -165 290 C-164.32904297 290.61488281 -164.32904297 290.61488281 -163.64453125 291.2421875 C-157.30003073 296.89677432 -153.80766685 297.89904164 -145 299 C-145 257.75 -145 216.5 -145 174 C-137.08 172.02 -137.08 172.02 -129 170 C-124.69580221 168.15429802 -124.69580221 168.15429802 -121.3125 165.875 C-120.70929932 165.4924707 -120.10609863 165.10994141 -119.48461914 164.71582031 C-113.0312327 160.54124113 -106.96012094 155.84510505 -101 151 C-100.47438477 150.57662354 -99.94876953 150.15324707 -99.40722656 149.71704102 C-96.63688123 147.45726982 -94.13903761 145.20259511 -91.875 142.4375 C-85.14040528 134.55309643 -77.65325088 127.30626156 -69.7890625 120.55859375 C-63.07181819 114.7066713 -57.49523141 107.98781227 -52 101 C-51.48566406 100.34612305 -50.97132812 99.69224609 -50.44140625 99.01855469 C-39.74677179 85.36087739 -30.99763452 71.37936669 -22.76953125 56.109375 C-20.57287948 52.03621298 -18.31795997 48.00525781 -16 44 C-15.34 44 -14.68 44 -14 44 C-13.8649707 43.41299316 -13.72994141 42.82598633 -13.59082031 42.22119141 C-12.67866232 38.79192965 -11.18386535 35.61121218 -9.75 32.375 C-9.43788574 31.66512939 -9.12577148 30.95525879 -8.80419922 30.22387695 C-6.65799937 25.38090165 -4.38895914 20.61915649 -1.9453125 15.91796875 C-0.13134727 12.23756823 0.11011292 9.35959856 0.0625 5.3125 C0.05347656 4.31863281 0.04445313 3.32476562 0.03515625 2.30078125 C0.02355469 1.54152344 0.01195312 0.78226562 0 0 Z " fill="#57A6D8" transform="translate(1173,283)"/>
<path d="M0 0 C0.7219606 -0.00191345 1.4439212 -0.0038269 2.1877594 -0.00579834 C3.72014717 -0.00715963 5.25254649 -0.00346708 6.78491211 0.00488281 C9.08930711 0.01544352 11.39289717 0.00505968 13.69726562 -0.0078125 C24.97943611 -0.02101722 35.87606571 0.22166395 46.06640625 5.578125 C47.18789063 6.15175781 48.309375 6.72539063 49.46484375 7.31640625 C58.10156561 12.53399003 64.57865843 19.76058717 67.62890625 29.515625 C70.5843038 42.68561535 69.23562924 58.56191732 62.00390625 70.265625 C53.71998725 81.24076641 43.11827796 87.09561817 29.69140625 89.265625 C23.94898177 89.8033641 18.19612381 89.76291925 12.43432617 89.67724609 C9.83668939 89.64002 7.24045759 89.63623294 4.64257812 89.63671875 C2.98566467 89.6269101 1.32876084 89.61526305 -0.328125 89.6015625 C-1.10195023 89.59933685 -1.87577545 89.59711121 -2.67304993 89.59481812 C-8.07619993 89.49801882 -8.07619993 89.49801882 -10.30859375 87.265625 C-10.51234835 84.56607035 -10.59178211 81.96867299 -10.58325195 79.26757812 C-10.58836288 78.44144516 -10.59347382 77.61531219 -10.59873962 76.7641449 C-10.61267486 74.02498188 -10.61167608 71.28606932 -10.609375 68.546875 C-10.61325946 66.64880275 -10.6175936 64.75073137 -10.62236023 62.85266113 C-10.62983067 58.87130924 -10.62952498 54.89004602 -10.62426758 50.90869141 C-10.61846847 45.79703199 -10.63541059 40.68573438 -10.65861225 35.57413483 C-10.67331553 31.65372584 -10.67422601 27.7334047 -10.67110252 23.81297302 C-10.67161734 21.92784406 -10.676885 20.04271038 -10.68691444 18.15760803 C-10.69919736 15.5260539 -10.69253694 12.89521385 -10.6809082 10.26367188 C-10.68855194 9.47919174 -10.69619568 8.69471161 -10.70407104 7.88645935 C-10.68281555 5.71960449 -10.68281555 5.71960449 -10.30859375 2.265625 C-6.7220093 -0.1254313 -4.14092721 -0.02427581 0 0 Z " fill="#79C8B3" transform="translate(707.30859375,636.734375)"/>
<path d="M0 0 C0.75990234 -0.01611328 1.51980469 -0.03222656 2.30273438 -0.04882812 C10.23334292 -0.05560063 16.77428263 2.36220122 23.0625 7.3125 C29.37058916 13.63412583 33.43110947 19.14084684 33.42382812 28.30078125 C33.40771484 29.12964844 33.39160156 29.95851563 33.375 30.8125 C33.37822266 31.64136719 33.38144531 32.47023438 33.38476562 33.32421875 C33.3014485 42.85266802 30.0891504 50.18997697 23.4375 57 C13.88101354 64.09496722 4.61104525 65.36775722 -6.9375 64.3125 C-15.58418305 63.00973309 -22.32476835 58.81323502 -27.796875 51.99609375 C-34.22193453 42.71035295 -34.06359646 32.33048938 -32.9375 21.3125 C-31.81773322 17.71133003 -30.33955105 15.1879988 -27.9375 12.3125 C-27.339375 11.405 -26.74125 10.4975 -26.125 9.5625 C-18.8507677 2.08043249 -10.16643926 -0.04289637 0 0 Z " fill="#64B0DE" transform="translate(557.9375,661.6875)"/>
<path d="M0 0 C9.15424874 2.46575729 17.86513177 3.28336172 27.33203125 3.21484375 C28.41613281 3.22257812 29.50023437 3.2303125 30.6171875 3.23828125 C38.12733519 3.21994145 44.09431823 2.47064565 50.83203125 -1.03515625 C51.4765625 -1.36515625 52.12109375 -1.69515625 52.78515625 -2.03515625 C54.43306442 -2.95225297 56.0128568 -3.98903995 57.58203125 -5.03515625 C57.45849552 0.89455873 55.66284389 3.84694284 51.5859375 8.11328125 C35.96693595 22.54487333 11.80462442 21.25585403 -8.04296875 21.46484375 C-47.56823475 20.82787157 -47.56823475 20.82787157 -81.734375 38.05859375 C-87.2001705 44.24724387 -89.28972021 50.89870869 -90.41796875 58.96484375 C-91.40796875 58.96484375 -92.39796875 58.96484375 -93.41796875 58.96484375 C-97.86168436 50.53368689 -97.86479108 43.27364238 -97.41796875 33.96484375 C-96.75796875 33.96484375 -96.09796875 33.96484375 -95.41796875 33.96484375 C-95.33546875 32.80984375 -95.25296875 31.65484375 -95.16796875 30.46484375 C-93.61781394 18.96953993 -84.97345707 10.2847104 -76.10546875 3.40234375 C-73.30656341 1.44702066 -70.68224518 0.02573359 -67.41796875 -1.03515625 C-66.8353125 -1.26847656 -66.25265625 -1.50179688 -65.65234375 -1.7421875 C-45.07193616 -9.96624801 -20.72624408 -6.24042899 0 0 Z " fill="#A2E1D4" transform="translate(1050.41796875,269.03515625)"/>
<path d="M0 0 C11.12676558 5.72446069 15.17091466 18.4961532 19.12817383 29.5065918 C23.1011247 40.53136896 27.04497255 48.83259412 37.87890625 54.33984375 C42.48010666 56.18934588 46.84144675 56.73635726 51.75390625 56.96484375 C52.44226563 57.00351562 53.130625 57.0421875 53.83984375 57.08203125 C55.51913871 57.17532541 57.19898392 57.25862613 58.87890625 57.33984375 C58.87890625 57.66984375 58.87890625 57.99984375 58.87890625 58.33984375 C44.85803182 59.89590716 31.05160653 60.64125818 16.94921875 60.60546875 C15.01650952 60.60682304 13.08380062 60.60876983 11.15109253 60.61126709 C7.13601378 60.61418398 3.12102514 60.61003425 -0.89404297 60.60058594 C-5.96897383 60.58920762 -11.04369443 60.59593071 -16.11861801 60.60749054 C-56.27988473 60.68464623 -56.27988473 60.68464623 -75.12109375 58.33984375 C-75.12109375 58.00984375 -75.12109375 57.67984375 -75.12109375 57.33984375 C-74.08210937 57.3140625 -73.043125 57.28828125 -71.97265625 57.26171875 C-60.40017722 56.84762188 -51.79526642 55.29410091 -42.91015625 47.31640625 C-38.05488819 41.95228914 -35.87873905 36.34152128 -33.68359375 29.58984375 C-29.92897487 18.49455366 -26.28811358 9.05561822 -17.55859375 0.96484375 C-12.01010519 -1.65807812 -5.89199677 -1.83378905 0 0 Z " fill="#FCFDFD" transform="translate(762.12109375,532.66015625)"/>
<path d="M0 0 C1.299375 -0.01546875 1.299375 -0.01546875 2.625 -0.03125 C5 0.5 5 0.5 6.62524414 1.98876953 C8.61968561 5.63196345 8.40173102 9.16326033 8.37109375 13.2109375 C8.38847783 14.94791862 8.4060622 16.68489774 8.42382812 18.421875 C8.43389208 21.14945184 8.43749881 23.87689756 8.43579102 26.60449219 C8.43937154 29.24453441 8.46675357 31.88357437 8.49609375 34.5234375 C8.48791122 35.33299896 8.4797287 36.14256042 8.47129822 36.97665405 C8.54053409 42.27130477 9.48949131 45.2974672 13 49.5 C17.012703 51.95220739 21.41212538 52.15782026 26 51.5 C29.09145723 50.62776742 31.64851247 49.71071112 34 47.5 C36.53974218 41.78000449 37.43173254 37.16334893 37.40625 30.94921875 C37.41708618 30.16859573 37.42792236 29.38797272 37.43908691 28.58369446 C37.48461259 25.27842725 37.49649797 21.97324949 37.51123047 18.66772461 C37.52688886 16.24043698 37.55985073 13.81380891 37.59375 11.38671875 C37.59072876 10.63984299 37.58770752 9.89296722 37.58459473 9.12345886 C37.65942703 3.98198011 37.65942703 3.98198011 39.390625 1.53198242 C41.51962712 0.16679857 42.9828498 0.0998285 45.5 0.125 C46.2734375 0.11726562 47.046875 0.10953125 47.84375 0.1015625 C50.59732873 0.61037596 51.31892597 1.2714813 53 3.5 C53.40113831 6.17173767 53.40113831 6.17173767 53.43579102 9.43334961 C53.45493057 10.65569809 53.47407013 11.87804657 53.49378967 13.13743591 C53.49837976 14.4757349 53.50171947 15.81403868 53.50390625 17.15234375 C53.51355507 18.53178719 53.52364812 19.91122758 53.53416443 21.29066467 C53.55214108 24.1883961 53.55768494 27.08585931 53.5559082 29.98364258 C53.55560551 33.66559499 53.59632438 37.34578302 53.64822483 41.02731991 C53.68190613 43.88189783 53.68765591 46.73606611 53.68607903 49.59082222 C53.69126589 51.59802803 53.72362081 53.60510585 53.75672913 55.61204529 C53.6869681 65.06517837 51.78633704 73.41909288 45.11769104 80.49815369 C37.04492902 87.45523765 26.29955828 89.23182674 15.97265625 88.96484375 C9.05236829 88.15509521 -0.93791304 86.56208696 -6 81.5 C-6.25 78 -6.25 78 -6 74.5 C-4 72.5 -4 72.5 -1.4375 72.125 C1.83319876 72.4818035 3.18615677 73.02233931 6 74.5 C12.66567231 77.65801734 20.52228024 77.83378887 27.5703125 75.734375 C31.24581079 74.02547174 34.05535561 72.16050708 36 68.5 C36.91757971 65.51786594 37.10826807 62.8622287 37.0625 59.75 C37.05347656 58.95078125 37.04445313 58.1515625 37.03515625 57.328125 C37.02355469 56.72484375 37.01195312 56.1215625 37 55.5 C36.34 56.098125 35.68 56.69625 35 57.3125 C26.70053431 63.36419373 17.87966284 63.40555097 8 62.5 C2.01672303 60.93105182 -1.50658767 57.59040083 -5 52.5 C-7.93736717 46.8419421 -8.44371657 42.31222042 -8.3984375 35.98828125 C-8.40130768 35.09763474 -8.40417786 34.20698822 -8.40713501 33.28935242 C-8.40916647 31.41774861 -8.40370118 29.54612312 -8.39111328 27.67456055 C-8.37498905 24.81055475 -8.39102228 21.94794782 -8.41015625 19.08398438 C-8.40817477 17.26041356 -8.40433307 15.43684361 -8.3984375 13.61328125 C-8.40451019 12.75906082 -8.41058289 11.90484039 -8.4168396 11.0247345 C-8.37469082 7.4681449 -8.34073259 5.12785932 -6.62353516 1.96362305 C-4.3972845 -0.04335029 -2.96452482 -0.03529196 0 0 Z " fill="#62AFDD" transform="translate(609,662.5)"/>
<path d="M0 0 C1.31109741 0.00918457 1.31109741 0.00918457 2.64868164 0.01855469 C10.78223766 0.21496265 17.12576239 1.9698853 24.0625 6.25 C28.73828004 11.20916065 31.21888783 16.69422301 31.28613281 23.51586914 C31.29574036 24.30671402 31.3053479 25.0975589 31.31524658 25.91236877 C31.31949646 26.75726364 31.32374634 27.60215851 31.328125 28.47265625 C31.33382507 29.34772324 31.33952515 30.22279022 31.34539795 31.12437439 C31.35482831 32.97100623 31.36137411 34.81765475 31.36523438 36.66430664 C31.37497691 39.49329623 31.40603315 42.32157028 31.4375 45.15039062 C31.44402686 46.94530819 31.44927858 48.74023094 31.453125 50.53515625 C31.4654718 51.38207535 31.4778186 52.22899445 31.49053955 53.10157776 C31.46801957 59.01235445 31.46801957 59.01235445 29.73748779 61.1572113 C27.06597063 63.27835184 24.51083509 62.90380765 21.22265625 62.796875 C19.125 62.4375 19.125 62.4375 17.0625 60.625 C16.125 58.4375 16.125 58.4375 16.125 55.4375 C15.17625 56.200625 14.2275 56.96375 13.25 57.75 C4.58491412 63.82591679 -5.5336415 64.66091964 -15.875 63.4375 C-19.1244111 62.27841128 -21.3491297 60.75806557 -23.875 58.4375 C-24.865 57.633125 -25.855 56.82875 -26.875 56 C-30.02191884 51.87571046 -29.61135413 46.75304229 -29.41796875 41.79296875 C-28.75538599 37.69830263 -27.72536125 35.58267353 -24.73046875 32.765625 C-18.73187369 28.4718938 -13.07120028 26.30512347 -5.67578125 26.33984375 C-4.46728516 26.34306641 -3.25878906 26.34628906 -2.01367188 26.34960938 C-0.75103516 26.35798828 0.51160156 26.36636719 1.8125 26.375 C3.72385742 26.38176758 3.72385742 26.38176758 5.67382812 26.38867188 C8.82426564 26.40047127 11.97460949 26.41693403 15.125 26.4375 C14.85376879 24.98742001 14.56850671 23.5399597 14.27734375 22.09375 C14.11999756 21.28744141 13.96265137 20.48113281 13.80053711 19.65039062 C12.80162331 16.37819883 11.01419629 15.12873685 8.125 13.4375 C0.59640846 10.92796949 -5.48293987 13.03687855 -12.7265625 15.5625 C-15.95952538 16.46099093 -18.53787384 16.6820308 -21.875 16.4375 C-24.3414769 14.87539797 -24.76660004 13.89518871 -25.4375 11.0625 C-24.74891561 7.84910619 -23.36432508 6.50346976 -20.76049805 4.56225586 C-14.28596863 0.70000582 -7.4009208 -0.0885739 0 0 Z " fill="#7DCAB4" transform="translate(1003.875,663.5625)"/>
<path d="M0 0 C5.24243382 4.03881381 9.07348021 9.62813488 11.15625 15.8671875 C11.45703125 18.65625 11.45703125 18.65625 11.46875 21.4921875 C11.48550781 22.43320312 11.50226562 23.37421875 11.51953125 24.34375 C11.08668884 27.35037576 10.51600188 28.02958124 8.15625 29.8671875 C6.12507629 30.22795105 6.12507629 30.22795105 3.77661133 30.20776367 C2.89592484 30.20753708 2.01523834 30.20731049 1.10786438 30.20707703 C0.16090195 30.19159317 -0.78606049 30.17610931 -1.76171875 30.16015625 C-2.73409988 30.15591141 -3.70648102 30.15166656 -4.70832825 30.14729309 C-7.81624966 30.13049065 -10.92352434 30.09283529 -14.03125 30.0546875 C-16.13736043 30.0396427 -18.24348102 30.02595394 -20.34960938 30.01367188 C-25.51457238 29.98058194 -30.67905151 29.92878859 -35.84375 29.8671875 C-35.38637718 31.30884472 -34.92296628 32.74858722 -34.45703125 34.1875 C-34.19962158 34.98945801 -33.94221191 35.79141602 -33.67700195 36.61767578 C-32.13745876 40.77394621 -29.88296918 43.11375359 -26.34375 45.6796875 C-19.5529404 47.98371219 -12.57197399 47.99845184 -6.03125 44.9296875 C-4.96583984 44.38828125 -4.96583984 44.38828125 -3.87890625 43.8359375 C-0.86746076 42.40246633 1.83982196 41.93351606 5.15625 41.8671875 C7.09375 42.9921875 7.09375 42.9921875 8.15625 44.8671875 C8.71875 47.2421875 8.71875 47.2421875 8.15625 49.8671875 C2.5091099 56.48240876 -6.287647 58.44876988 -14.671875 59.21875 C-25.10842129 59.45114273 -32.99815451 58.59510228 -41.15625 51.8046875 C-48.20790609 45.03021915 -51.95274372 37.06227831 -52.15625 27.3046875 C-52.02287133 16.48990029 -48.72172171 9.80801201 -41.28515625 2.00390625 C-30.0293954 -7.84713564 -12.37134588 -7.60103878 0 0 Z " fill="#7DCAB4" transform="translate(834.84375,668.1328125)"/>
<path d="M0 0 C29.84438776 0 29.84438776 0 38.5 8.15625 C45.9423127 17.3040927 47.00454863 27.63743884 46 39 C43.43328876 48.13749201 39.35094489 55.18214718 31 60 C23 63 23 63 0 63 C0 42.21 0 21.42 0 0 Z " fill="#FBFCFC" transform="translate(713,650)"/>
<path d="M0 0 C1.85546875 0.01953125 1.85546875 0.01953125 4 1 C5.26938785 3.23400425 6.30285262 5.34226311 7.3125 7.6875 C11.05283977 15.67452691 14.6939036 19.71193555 22.75 23.25 C31.83097914 26.47943334 40.97246876 27.39047278 50.5625 27.375 C52.16303223 27.37258301 52.16303223 27.37258301 53.79589844 27.37011719 C69.59058603 27.13520057 85.53354238 24.91209357 100.49609375 19.76171875 C104.22892159 18.6261471 107.13498841 18.48952677 111 19 C113.33651455 22.50477182 113.25736879 23.91403847 113.2746582 28.06005859 C113.2840593 29.33024841 113.29346039 30.60043823 113.30314636 31.90911865 C113.30284975 33.32222512 113.30204373 34.73533156 113.30078125 36.1484375 C113.30579798 37.63804295 113.31132971 39.12764675 113.31733704 40.61724854 C113.32963582 44.68433983 113.32605201 48.75127104 113.31745148 52.818367 C113.31249955 55.37523262 113.31096392 57.93208269 113.30999756 60.48895264 C113.28753178 88.55286731 112.63216878 116.58027752 111.625 144.625 C111.59332859 145.52077507 111.56165718 146.41655014 111.52902603 147.33946991 C110.90833003 164.87018915 110.22013934 182.39621225 109.0234375 199.8984375 C108.95113922 201.02706207 108.87884094 202.15568665 108.80435181 203.31851196 C108.7288913 204.32892548 108.65343079 205.33933899 108.57568359 206.38037109 C108.51271088 207.25567474 108.44973816 208.13097839 108.38485718 209.0328064 C108.25785431 209.68198029 108.13085144 210.33115417 108 211 C107.34 211.33 106.68 211.66 106 212 C105.2684802 206.07057835 104.84387109 200.28013507 104.81054688 194.30932617 C104.79810692 193.08270264 104.79810692 193.08270264 104.78541565 191.83129883 C104.76814012 190.07011433 104.75294042 188.30890844 104.73963928 186.54768944 C104.71834536 183.73960801 104.69133954 180.93162973 104.66296387 178.12361145 C104.60358445 172.14494924 104.55141833 166.1662352 104.5 160.1875 C104.44023286 153.28726523 104.37734379 146.38707956 104.30812073 139.48693275 C104.28210667 136.7578407 104.26095003 134.02874201 104.2401123 131.29960632 C104.14721959 121.0066952 103.78666988 110.75694174 103.23059082 100.47898865 C102.9360225 94.96543127 102.8009054 89.45406454 102.71875 83.93359375 C102.6810167 81.86132763 102.64325552 79.78906202 102.60546875 77.71679688 C102.55173426 74.55755382 102.49935956 71.3982922 102.44775391 68.23901367 C102.39559312 65.11630521 102.33859724 61.99371064 102.28125 58.87109375 C102.26767456 57.94066757 102.25409912 57.01024139 102.2401123 56.05162048 C102.58881064 44.48873665 102.58881064 44.48873665 99 34 C92.84621921 32.10538543 86.37779056 33.27875277 80.1875 34.375 C78.41056066 34.66266558 76.6332159 34.9478383 74.85546875 35.23046875 C74.01161621 35.36630371 73.16776367 35.50213867 72.29833984 35.64208984 C53.36172412 38.59100408 29.02428141 39.89671805 12 30 C5.87089704 25.26763415 0.8358964 19.66610795 -1 12 C-1.33020147 8.29980123 -1.40262865 4.696263 -1 1 C-0.67 0.67 -0.34 0.34 0 0 Z " fill="#99D5F2" transform="translate(434,284)"/>
<path d="M0 0 C0.33 1.65 0.66 3.3 1 5 C-1.31 5.66 -3.62 6.32 -6 7 C-6.10957031 7.60585938 -6.21914062 8.21171875 -6.33203125 8.8359375 C-6.49058594 9.67382812 -6.64914062 10.51171875 -6.8125 11.375 C-7.03873047 12.59316406 -7.03873047 12.59316406 -7.26953125 13.8359375 C-9.13223314 21.90432537 -11.72128862 29.04098601 -15.6875 36.3125 C-16.13246826 37.13935303 -16.57743652 37.96620605 -17.03588867 38.81811523 C-28.48300272 59.90533607 -42.85417413 78.77307378 -58.421875 96.97265625 C-59.88802549 98.69427236 -61.34380332 100.42519038 -62.765625 102.18359375 C-67.39362729 107.80498037 -72.89117119 112.31741087 -78.44921875 116.98046875 C-81.58356443 119.61855002 -84.57921532 122.37893184 -87.5625 125.1875 C-92.26377812 129.49757687 -97.24436623 133.08847253 -102.53125 136.64453125 C-106.34218839 139.20815389 -110.0492344 141.9055787 -113.75 144.625 C-114.38800537 145.09164062 -115.02601074 145.55828125 -115.68334961 146.0390625 C-119.14194378 148.58223915 -122.49793252 151.20751232 -125.8125 153.9375 C-132.22065152 158.92961803 -139.34341293 161.91095435 -147.5625 161.5 C-159.7297897 159.0041457 -167.83501707 145.31630125 -174.97070312 136.12329102 C-179.52592101 130.26945055 -184.31485544 124.68514456 -189.5625 119.4375 C-195.27596838 113.72403162 -200.23047574 107.60746053 -204.6875 100.875 C-205.19297363 100.12089844 -205.69844727 99.36679687 -206.21923828 98.58984375 C-210.95208903 91.37732405 -214.9950022 83.81647969 -218.81518555 76.08544922 C-221.48524531 70.67811322 -221.48524531 70.67811322 -226.3515625 67.375 C-227.66253906 67.189375 -227.66253906 67.189375 -229 67 C-229 66.67 -229 66.34 -229 66 C-223.15920768 65.53273661 -220.59463632 66.42702815 -216 70 C-213.78018713 72.33949469 -211.79600017 74.83409506 -209.8125 77.375 C-209.24789062 78.08325928 -208.68328125 78.79151855 -208.1015625 79.52124023 C-205.43420745 82.87528935 -202.79943021 86.25448103 -200.16796875 89.63671875 C-199.27891933 90.77885877 -198.38960026 91.92078896 -197.5 93.0625 C-197.05954346 93.62815674 -196.61908691 94.19381348 -196.1652832 94.77661133 C-191.19174766 101.11268558 -185.87135821 107.14061882 -180.56689453 113.19921875 C-178.16200016 115.96308613 -175.79804067 118.76074877 -173.4375 121.5625 C-172.54566999 122.61857157 -171.65374249 123.67456082 -170.76171875 124.73046875 C-170.31489746 125.25946777 -169.86807617 125.7884668 -169.40771484 126.33349609 C-168.94316895 126.88344238 -168.47862305 127.43338867 -168 128 C-167.49549316 128.5976416 -166.99098633 129.1952832 -166.47119141 129.81103516 C-156.44590524 143.163554 -156.44590524 143.163554 -143 152 C-129.80998377 152.83746135 -116.78269683 140.70570393 -106.63916016 133.20996094 C-105.08235514 132.0607912 -103.5160311 130.92455007 -101.94921875 129.7890625 C-92.95388298 123.18851149 -84.01331333 116.14690794 -76.21484375 108.140625 C-74 106 -74 106 -72 106 C-71.77957031 105.44828125 -71.55914063 104.8965625 -71.33203125 104.328125 C-69.56798024 101.24491561 -67.26392627 99.1904579 -64.6875 96.75 C-61.3459748 93.53091071 -58.3621008 90.40147336 -56 86.375 C-54 83 -54 83 -51 82 C-50.566875 80.329375 -50.566875 80.329375 -50.125 78.625 C-49 75 -49 75 -46.5625 73.5625 C-43.19225744 71.50747405 -42.97850514 69.62067034 -41.81640625 65.98828125 C-40.58586585 62.99141491 -38.32178538 61.20271947 -36 59 C-35.31246699 57.34183216 -34.64438717 55.67540664 -34 54 C-33.34 53.360625 -32.68 52.72125 -32 52.0625 C-29.56780837 49.55430238 -29.05129972 47.29407245 -28 44 C-27.5153125 43.53335938 -27.030625 43.06671875 -26.53125 42.5859375 C-24.69607513 40.68522067 -24.26594319 39.21727396 -23.5625 36.6875 C-22.29936419 32.57233651 -20.41029501 29.57656679 -18 26 C-17.31744011 23.67126625 -16.64949225 21.33817209 -16 19 C-15.46375 18.34 -14.9275 17.68 -14.375 17 C-12.3202305 14.01124437 -12.74713123 11.54016283 -13 8 C-13.42854995 5.68963085 -13.42854995 5.68963085 -14 4 C-9.57391359 -0.5688634 -5.97980322 -0.46900417 0 0 Z " fill="#5DA9D9" transform="translate(1171,281)"/>
<path d="M0 0 C4.23830729 3.63662692 6.17953936 8.66868537 6.84465027 14.1287384 C6.95601071 16.6491318 6.97858738 19.15300491 6.9609375 21.67578125 C6.96380768 22.58958054 6.96667786 23.50337982 6.96963501 24.44487 C6.97166427 26.36177191 6.96621465 28.27869507 6.95361328 30.19555664 C6.93744999 33.13409181 6.95354807 36.07127099 6.97265625 39.00976562 C6.97067543 40.8776072 6.9668351 42.74544793 6.9609375 44.61328125 C6.97004654 45.93045891 6.97004654 45.93045891 6.9793396 47.27424622 C6.96988312 48.08906967 6.96042664 48.90389313 6.95068359 49.7434082 C6.94829681 50.45874222 6.94591003 51.17407623 6.94345093 51.91108704 C6.4495338 54.37634007 5.51334443 55.27340932 3.5625 56.8125 C1.40625 57.2109375 1.40625 57.2109375 -0.9375 57.1875 C-2.09765625 57.19910156 -2.09765625 57.19910156 -3.28125 57.2109375 C-6.12276656 56.68587466 -6.77892332 56.20135204 -8.4375 53.8125 C-8.72078345 50.94535648 -8.83074679 48.28462235 -8.80859375 45.41796875 C-8.82598154 43.72330533 -8.84356587 42.02864391 -8.86132812 40.33398438 C-8.87138531 37.66784883 -8.87500118 35.00184705 -8.87329102 32.33569336 C-8.87687337 29.75854906 -8.90426682 27.18242982 -8.93359375 24.60546875 C-8.92541122 23.81464401 -8.9172287 23.02381927 -8.90879822 22.20903015 C-8.97901729 16.95669295 -9.98677214 13.99459753 -13.4375 9.8125 C-18.66009857 5.75619602 -24.09090142 6.03852456 -30.4375 6.8125 C-35.02809743 8.98699352 -37.27542281 11.26539947 -39.4375 15.8125 C-39.71032799 18.69732644 -39.83160305 21.37330401 -39.80859375 24.25390625 C-39.82596783 25.90560112 -39.84355229 27.55729378 -39.86132812 29.20898438 C-39.87141732 31.79846131 -39.87499159 34.38779909 -39.87329102 36.97729492 C-39.87685906 39.48658435 -39.90418256 41.99480668 -39.93359375 44.50390625 C-39.92541122 45.27690567 -39.9172287 46.04990509 -39.90879822 46.84632874 C-39.95822545 50.41379424 -40.13923202 52.41994483 -42.328125 55.30078125 C-44.77514258 57.05447718 -46.01696084 57.32571165 -49 57.25 C-49.76441406 57.24871094 -50.52882813 57.24742187 -51.31640625 57.24609375 C-54.01012106 56.69544487 -54.76941641 55.98496279 -56.4375 53.8125 C-56.81845093 51.34594727 -56.81845093 51.34594727 -56.82568359 48.37890625 C-56.83514008 47.26765381 -56.84459656 46.15640137 -56.8543396 45.01147461 C-56.84826691 43.81143799 -56.84219421 42.61140137 -56.8359375 41.375 C-56.83880768 40.14338135 -56.84167786 38.9117627 -56.84463501 37.64282227 C-56.84720158 34.36902043 -56.8351161 31.09564463 -56.81835938 27.82189941 C-56.81250553 25.81439615 -56.81833795 23.80728631 -56.82861328 21.79980469 C-56.8471098 17.94968305 -56.84490992 14.10014566 -56.8359375 10.25 C-56.84201019 9.04996338 -56.84808289 7.84992676 -56.8543396 6.61352539 C-56.84488312 5.50227295 -56.83542664 4.39102051 -56.82568359 3.24609375 C-56.82329681 2.26697021 -56.82091003 1.28784668 -56.81845093 0.27905273 C-56.4375 -2.1875 -56.4375 -2.1875 -55.12808228 -4.00366211 C-52.28544143 -5.99423423 -49.78524727 -5.53989445 -46.4375 -5.1875 C-43.13195191 -3.57939552 -42.54429678 -2.45983179 -41.1875 1 C-40.94 1.928125 -40.6925 2.85625 -40.4375 3.8125 C-39.4475 2.69875 -39.4475 2.69875 -38.4375 1.5625 C-28.21470807 -8.63133218 -11.09383697 -8.93217021 0 0 Z " fill="#7ACAB4" transform="translate(912.4375,669.1875)"/>
<path d="M0 0 C3.45965939 5.18948908 2.60841814 11.93102907 2 18 C-0.99863772 32.41390631 -9.73371687 44.83982847 -21.6875 53.25 C-45.54651408 68.39187746 -72.45003903 65.51363188 -98.85351562 59.72753906 C-102.73234452 58.83066522 -106.58603316 57.85016182 -110.44140625 56.8581543 C-117.95568643 54.93548965 -125.02955575 53.54289238 -132.8125 53.5 C-133.52349854 53.49379639 -134.23449707 53.48759277 -134.96704102 53.48120117 C-140.17675712 53.60823719 -144.19737306 54.99933075 -149 57 C-150.485 57.495 -150.485 57.495 -152 58 C-153.12516085 59.83284443 -153.12516085 59.83284443 -154 62 C-154.3407959 62.61584961 -154.6815918 63.23169922 -155.03271484 63.86621094 C-156.07634305 66.16840946 -156.30636342 67.81514657 -156.4140625 70.328125 C-156.45273437 71.12734375 -156.49140625 71.9265625 -156.53125 72.75 C-156.5621875 73.575 -156.593125 74.4 -156.625 75.25 C-156.66367187 76.09046875 -156.70234375 76.9309375 -156.7421875 77.796875 C-156.83615836 79.86423382 -156.91915564 81.93208627 -157 84 C-160.29697208 83.7080806 -161.69807962 83.30477947 -164.0625 80.91796875 C-173.19940333 68.04156668 -176.59903083 57.7289187 -174.60546875 41.859375 C-173.78174419 37.17151163 -173.78174419 37.17151163 -173 35 C-172.01 34.505 -172.01 34.505 -171 34 C-170.18838571 38.86344258 -169.96905674 43.38989104 -170.125 48.3125 C-170.18888807 54.73964034 -169.35834652 60.03394482 -167 66 C-163.31886686 64.36394083 -161.74563723 62.85537584 -160.1875 59.25 C-157.40997365 53.16856125 -152.4214821 48.90021462 -146.375 46.125 C-133.24456368 41.74818789 -119.82864091 44.42299782 -106.625 46.9375 C-104.3595837 47.35751467 -102.09359227 47.77430304 -99.82748413 48.19056702 C-98.43226316 48.44806618 -97.0375444 48.70830886 -95.64346313 48.97190857 C-69.99417251 53.7965558 -43.54701833 53.86899938 -21 39 C-8.23243395 29.01808473 -3.43315809 15.22530977 0 0 Z " fill="#62C1B5" transform="translate(1124,262)"/>
<path d="M0 0 C-0.51659744 3.78838125 -1.30053579 6.6139463 -3 10 C-8.24896245 26.13569938 -5.24746796 44.30426954 1.75 59.3125 C4.85321762 65.12128675 8.63710086 70.08546993 13 75 C13.56976563 75.67546875 14.13953125 76.3509375 14.7265625 77.046875 C26.04569649 89.5128816 43.4687187 97.67165052 60 100 C64.49812825 100.21569845 68.99713753 100.18986185 73.5 100.1875 C74.75200195 100.18814453 76.00400391 100.18878906 77.29394531 100.18945312 C85.6966471 100.14135023 93.75510919 99.73576649 102 98 C101 101 101 101 98.84765625 102.28125 C88.89501394 106.63640344 79.89747436 109.51271456 69 110 C68.04867187 110.05285156 67.09734375 110.10570312 66.1171875 110.16015625 C51.75708082 110.58251233 36.84436379 108.62995837 24 102 C23.0821875 101.55785156 22.164375 101.11570312 21.21875 100.66015625 C2.34331905 91.08988859 -9.75946134 75.40249689 -17.15625 55.9609375 C-20.89184389 42.85177005 -20.96699636 26.29226193 -14.48828125 14.171875 C-6.05715241 0 -6.05715241 0 0 0 Z " fill="#92CFEF" transform="translate(390,467)"/>
<path d="M0 0 C-1.8969768 17.19439231 -8.89090095 34.42695079 -21 47 C-21.73476563 47.82242188 -22.46953125 48.64484375 -23.2265625 49.4921875 C-37.28264238 64.55554347 -56.2330212 72.52173197 -76 77 C-77.12136353 77.26369385 -77.12136353 77.26369385 -78.26538086 77.53271484 C-83.52948279 78.43223195 -88.8967937 78.22566622 -94.22509766 78.24023438 C-96.33408005 78.24981413 -98.44203239 78.28081183 -100.55078125 78.3125 C-113.31178851 78.41367013 -125.29713381 76.4160588 -137.3125 71.9375 C-138.03888672 71.68162109 -138.76527344 71.42574219 -139.51367188 71.16210938 C-144.7229068 69.2770932 -144.7229068 69.2770932 -147 67 C-145.700625 67.165 -144.40125 67.33 -143.0625 67.5 C-138.99386764 67.96278283 -135.03547829 68.05478074 -130.9453125 67.9375 C-129 68 -129 68 -126 69 C-103.72737171 70.80632136 -82.66998998 67.7584687 -63 57 C-61.92234375 56.41992188 -60.8446875 55.83984375 -59.734375 55.2421875 C-53.36810707 51.67515798 -47.57424225 47.70295749 -42 43 C-41.22269531 42.35675781 -40.44539062 41.71351563 -39.64453125 41.05078125 C-30.09547062 32.83767823 -22.2631802 23.07441859 -14.6875 13.0625 C-4.79723761 0 -4.79723761 0 0 0 Z " fill="#6ECADA" transform="translate(560,513)"/>
<path d="M0 0 C1.98 0.99 1.98 0.99 4 2 C3.67 2.33 3.34 2.66 3 3 C3.06006078 4.45947705 3.1488689 5.91779272 3.25 7.375 C3.31395826 13.7890993 0.93206859 18.41548788 -2 24 C-2.87792034 25.7276858 -3.75302662 27.45680511 -4.625 29.1875 C-5.03621094 29.99832031 -5.44742187 30.80914062 -5.87109375 31.64453125 C-7.48911217 35.02053508 -8.72583601 38.48088042 -10 42 C-10.63960014 43.3465266 -11.289999 44.68922893 -12 46 C-12.66 46 -13.32 46 -14 46 C-14.25652344 46.85851562 -14.51304688 47.71703125 -14.77734375 48.6015625 C-16.05384484 52.14966458 -17.65258372 55.12621312 -19.5625 58.375 C-20.29016634 59.61523844 -21.01668592 60.85615025 -21.7421875 62.09765625 C-22.11698242 62.73848145 -22.49177734 63.37930664 -22.87792969 64.03955078 C-23.98012471 65.96527447 -25.03189385 67.91034987 -26.0703125 69.87109375 C-31.7054841 80.42767484 -38.51731895 89.6817616 -46 99 C-46.80695313 100.0209375 -47.61390625 101.041875 -48.4453125 102.09375 C-56.00381258 111.52155655 -64.10327062 120.3813163 -72.875 128.6875 C-73.4102832 129.20497803 -73.94556641 129.72245605 -74.49707031 130.25561523 C-77.66809465 133.19452854 -79.8099258 134.27279704 -84 135 C-86.05078718 136.67886562 -86.05078718 136.67886562 -87.9375 138.875 C-96.64234026 147.98606614 -112.96846736 164.10830821 -125.8125 165.25 C-128 165 -128 165 -129 164 C-129.33847177 161.07791099 -129.44976872 159.57916725 -127.61254883 157.21337891 C-121.40815695 152.1319504 -114.81484153 147.90206543 -107.98242188 143.71875 C-103.46472399 140.87691747 -100.43749036 138.87498072 -98 134 C-96.38756157 132.28081477 -94.71210614 130.61995312 -93 129 C-92.46213867 128.48501953 -91.92427734 127.97003906 -91.37011719 127.43945312 C-89.54781373 125.69938174 -87.71375562 123.97267316 -85.875 122.25 C-85.21556396 121.63165283 -84.55612793 121.01330566 -83.87670898 120.3762207 C-80.04872358 116.81652384 -76.15783828 113.43513189 -72.0625 110.1875 C-67.11182335 106.21672094 -63.0335801 101.88574491 -59 97 C-58.32839844 96.20335937 -57.65679688 95.40671875 -56.96484375 94.5859375 C-25.00836962 57.01360909 -25.00836962 57.01360909 -8.58984375 11.6640625 C-7.93472874 8.70519867 -7.07630073 7.18717116 -5 5 C-2.3125 4.25 -2.3125 4.25 0 4 C0 2.68 0 1.36 0 0 Z " fill="#7AC3EE" transform="translate(1171,281)"/>
<path d="M0 0 C0.66 0 1.32 0 2 0 C1.98428955 0.87736816 1.9685791 1.75473633 1.95239258 2.65869141 C1.90105624 5.93511952 1.86355003 9.21111598 1.83520508 12.48779297 C1.82018175 13.90192437 1.79975695 15.31600968 1.77368164 16.72998047 C1.73701046 18.77062397 1.72020964 20.81064792 1.70703125 22.8515625 C1.6913208 24.07697754 1.67561035 25.30239258 1.65942383 26.56494141 C2.12898947 31.30099053 3.6344223 34.6344223 7 38 C9.60280568 37.67958603 9.60280568 37.67958603 12 37 C14.49904207 30.21688582 15.97364408 23.45115906 17.25390625 16.35546875 C17.88062204 13.53688833 18.55244923 11.46642771 20 9 C20.66 9 21.32 9 22 9 C22.01458252 9.8470752 22.02916504 10.69415039 22.04418945 11.56689453 C22.10551177 14.73181934 22.17971352 17.89611504 22.26245117 21.06054688 C22.29555386 22.4259925 22.32363086 23.79157013 22.34643555 25.15722656 C22.38024991 27.12853224 22.43408286 29.09946191 22.48828125 31.0703125 C22.51446533 32.25383301 22.54064941 33.43735352 22.56762695 34.65673828 C23.0411289 38.31802325 24.17766154 40.81355953 26 44 C28.31 44 30.62 44 33 44 C36.42126217 35.36969324 38.44332583 26.82915435 40.15429688 17.7265625 C40.35216797 16.74171875 40.55003906 15.756875 40.75390625 14.7421875 C40.92220947 13.8538623 41.0905127 12.96553711 41.26391602 12.05029297 C41.50682373 11.37369629 41.74973145 10.69709961 42 10 C42.99 9.67 43.98 9.34 45 9 C45.029729 10.47593628 45.029729 10.47593628 45.06005859 11.98168945 C45.13613987 15.63282839 45.224853 19.28357009 45.31738281 22.93432617 C45.35566221 24.51432451 45.39051697 26.09440969 45.421875 27.67456055 C45.46754876 29.94611645 45.52553784 32.21707509 45.5859375 34.48828125 C45.59748871 35.19463211 45.60903992 35.90098297 45.62094116 36.6287384 C45.73071048 40.27741393 45.92142364 41.88213546 48 45 C49.32 45 50.64 45 52 45 C55.16666426 38.60166665 56.37336349 32.04608347 57.6875 25.0625 C57.91244141 23.90169922 58.13738281 22.74089844 58.36914062 21.54492188 C58.91980123 18.69788939 59.4631976 15.84967208 60 13 C60.99 12.67 61.98 12.34 63 12 C63.33 21.24 63.66 30.48 64 40 C65.98 40.495 65.98 40.495 68 41 C71.10250836 28.40843682 73.66350284 15.75494549 76 3 C76.99 3 77.98 3 79 3 C78.99214478 4.3929126 78.99214478 4.3929126 78.98413086 5.81396484 C78.96710407 9.25423805 78.95455727 12.69446659 78.94506836 16.13476562 C78.94003486 17.62468166 78.93320758 19.11459274 78.92456055 20.60449219 C78.91245195 22.74415304 78.90676193 24.88374868 78.90234375 27.0234375 C78.89448853 28.95582275 78.89448853 28.95582275 78.88647461 30.92724609 C78.78457369 33.91405228 78.78457369 33.91405228 80 36 C82.64 36 85.28 36 88 36 C76.53424206 48.16257195 59.53384008 55.58728694 42.88671875 56.3359375 C24.90649613 56.64644139 10.68543925 52.84229909 -2.8203125 40.41796875 C-7.54594041 35.17573993 -12.76457658 28.06936734 -14 21 C-13.34 21 -12.68 21 -12 21 C-11.34 21.99 -10.68 22.98 -10 24 C-9.01 24 -8.02 24 -7 24 C-4.85580227 17.26326528 -3.14792903 10.4987913 -1.6484375 3.58984375 C-1 1 -1 1 0 0 Z " fill="#CCE7F2" transform="translate(1002,341)"/>
<path d="M0 0 C1.625 1.125 1.625 1.125 2.625 3.125 C2.69681821 5.84260108 2.71799506 8.53359388 2.6875 11.25 C2.68298828 12.00410156 2.67847656 12.75820313 2.67382812 13.53515625 C2.66203499 15.39847127 2.64409942 17.26174555 2.625 19.125 C3.67300781 19.09019531 4.72101562 19.05539062 5.80078125 19.01953125 C7.17967147 18.99139063 8.55857902 18.96409076 9.9375 18.9375 C10.62779297 18.91236328 11.31808594 18.88722656 12.02929688 18.86132812 C17.10129627 18.78782089 17.10129627 18.78782089 19.62109375 20.41015625 C21.33013189 23.32948599 20.32796608 25.96165266 19.625 29.125 C18.625 30.125 18.625 30.125 15.02734375 30.22265625 C13.53903133 30.2159822 12.05073568 30.20402183 10.5625 30.1875 C9.80388672 30.18298828 9.04527344 30.17847656 8.26367188 30.17382812 C6.38408129 30.1620068 4.50453101 30.14407078 2.625 30.125 C2.69400821 35.01848249 2.78203744 39.91112117 2.88745117 44.80395508 C2.92063655 46.46727108 2.94868834 48.13069796 2.97143555 49.79418945 C3.00509999 52.19009499 3.0574194 54.58499035 3.11328125 56.98046875 C3.11967117 57.7202446 3.1260611 58.46002045 3.13264465 59.22221375 C3.25773684 63.64817339 3.80872728 66.64664003 6.625 70.125 C9.50680236 70.9081044 9.50680236 70.9081044 12.6875 70.875 C18.52096879 71.0729844 18.52096879 71.0729844 20.625 72.125 C20.625 74.435 20.625 76.745 20.625 79.125 C13.50623958 83.1928631 4.9658675 83.57712526 -2.91796875 81.43359375 C-7.53205485 79.3646133 -10.08302521 76.70894958 -12.375 72.125 C-13.44355261 67.3083547 -13.50615288 62.57365576 -13.47265625 57.6640625 C-13.4712413 56.87349457 -13.46982635 56.08292664 -13.46836853 55.2684021 C-13.46280504 52.76222834 -13.45025944 50.25614642 -13.4375 47.75 C-13.43248028 46.04297005 -13.4279182 44.33593868 -13.42382812 42.62890625 C-13.41284759 38.46090252 -13.39560839 34.29296679 -13.375 30.125 C-14.31472656 30.17720703 -14.31472656 30.17720703 -15.2734375 30.23046875 C-16.09070313 30.25753906 -16.90796875 30.28460937 -17.75 30.3125 C-18.56210937 30.34730469 -19.37421875 30.38210938 -20.2109375 30.41796875 C-20.92507813 30.32128906 -21.63921875 30.22460938 -22.375 30.125 C-24.52415785 26.90126323 -24.75786803 25.85796326 -24.375 22.125 C-22.375 20.125 -22.375 20.125 -20.2109375 19.9296875 C-19.39882813 19.95289063 -18.58671875 19.97609375 -17.75 20 C-16.52410156 20.02707031 -16.52410156 20.02707031 -15.2734375 20.0546875 C-14.33371094 20.08949219 -14.33371094 20.08949219 -13.375 20.125 C-13.42140625 18.86042969 -13.4678125 17.59585938 -13.515625 16.29296875 C-13.55314212 14.63283609 -13.58954235 12.97267792 -13.625 11.3125 C-13.67527344 10.06243164 -13.67527344 10.06243164 -13.7265625 8.78710938 C-13.82531249 2.63992254 -13.82531249 2.63992254 -11.578125 0.0703125 C-7.66797447 -1.60744712 -3.96157604 -1.45952802 0 0 Z " fill="#7ECAB4" transform="translate(949.375,644.875)"/>
<path d="M0 0 C5.99793548 0.29423834 9.5589483 2.2283762 14.3125 5.5625 C18.32193937 8.7190173 18.32193937 8.7190173 23 10 C25.34144827 13.65851291 25.44965259 16.72830036 25 21 C23.69864875 22.69175663 22.36244796 24.35704805 21 26 C20.39486869 27.92544823 20.39486869 27.92544823 20 30 C19.17741391 33.90910383 17.51329796 35.87741768 15 39 C14.14877031 41.28210625 13.45375736 43.56582724 12.80859375 45.9140625 C11.90437507 48.24668459 10.76089047 49.26720885 9 51 C8.690625 52.155 8.38125 53.31 8.0625 54.5 C6.86394794 58.44817148 6.15831246 58.70304548 3 61 C2.505 62.175625 2.01 63.35125 1.5 64.5625 C0 68 0 68 -2.0625 68.9375 C-2.701875 69.288125 -3.34125 69.63875 -4 70 C-4.45417976 72.01136751 -4.9044931 74.02407423 -5.3046875 76.046875 C-6.43787558 79.22998759 -9.22549526 80.26593454 -12 82 C-12.70381157 83.98723268 -13.3711811 85.98777953 -14 88 C-16.25 90.4375 -16.25 90.4375 -19 92 C-24.79241481 91.83886401 -28.51985556 88.99898752 -33.0625 85.75 C-34.10374023 85.03263672 -34.10374023 85.03263672 -35.16601562 84.30078125 C-39.15892804 81.50232981 -42.78881795 78.6834147 -46 75 C-45.8125 72.6875 -45.8125 72.6875 -45 71 C-40.6896024 71.49389972 -38.8929902 72.69037773 -36 75.875 C-30.81267079 81.38162692 -30.81267079 81.38162692 -23.6875 83.1875 C-22.800625 83.125625 -21.91375 83.06375 -21 83 C-21.07934479 80.30227717 -21.51881345 78.53434087 -23.34375 76.5078125 C-26.51656094 73.72439199 -29.77036522 71.51902312 -33.4375 69.4375 C-35.46484375 68.234375 -35.46484375 68.234375 -37 67 C-37.5 64.1875 -37.5 64.1875 -37 62 C-31.40567741 62.50005118 -27.99985913 65.93298165 -23.90429688 69.40625 C-20.30143892 72.33970121 -17.64825815 73.66347452 -13 74 C-13.06531009 71.01315184 -13.18757442 68.79678561 -15.39501953 66.63183594 C-17.24593071 65.3057336 -19.12709809 64.07445729 -21.0625 62.875 C-23.5078835 61.33980298 -25.71423053 59.78732426 -28 58 C-28 56.68 -28 55.36 -28 54 C-23.53504992 54.52386598 -21.1160691 56.17165299 -17.625 58.9375 C-13.40013548 62.13330415 -10.19993421 64.07556725 -5 65 C-6.47325629 58.12480399 -10.653474 55.22517697 -16.23828125 51.51171875 C-18.14273671 50.31086317 -20.05847061 49.13970296 -22 48 C-21.67 46.68 -21.34 45.36 -21 44 C-15.23077335 44.66812735 -11.52431277 47.95620668 -6.9375 51.28515625 C-3.89694068 53.06016362 -2.4399015 53.39837095 1 53 C0.12777073 47.93016738 -2.98100363 45.89397344 -7 43 C-9.94213831 41.21420131 -12.93751632 39.56943608 -16 38 C-16 37.01 -16 36.02 -16 35 C-10.70115146 34.49572892 -7.6297457 36.02975907 -3.375 38.9375 C1.4549898 42.26915243 1.4549898 42.26915243 7 44 C6.23796746 39.30546202 6.23796746 39.30546202 3.52246094 35.57861328 C1.68391738 34.3073658 -0.18261276 33.16831452 -2.125 32.0625 C-2.78371094 31.66482422 -3.44242188 31.26714844 -4.12109375 30.85742188 C-5.7361705 29.88603513 -7.36665538 28.94034592 -9 28 C-8.67 26.68 -8.34 25.36 -8 24 C-2.60537295 24.70364701 0.87734624 27.38784405 5.28125 30.40625 C7.95062619 31.97105673 9.95654822 32.60302803 13 33 C12.7525 31.72125 12.505 30.4425 12.25 29.125 C12.11078125 28.40570313 11.9715625 27.68640625 11.828125 26.9453125 C10.72264438 24.34847596 9.55446748 24.08953989 7 23 C5.6034515 22.03032104 4.22832455 21.02914414 2.875 20 C1.85019531 19.2265625 1.85019531 19.2265625 0.8046875 18.4375 C-2.93916263 15.45538561 -2.93916263 15.45538561 -3.265625 13.01171875 C-3.19966159 3.19966159 -3.19966159 3.19966159 0 0 Z " fill="#C8E5F4" transform="translate(1134,275)"/>
<path d="M0 0 C0.76183594 -0.00773438 1.52367187 -0.01546875 2.30859375 -0.0234375 C5.20476088 0.48853659 6.45212853 1.32492972 8.5625 3.375 C9.07043457 5.99099731 9.07043457 5.99099731 9.08007812 9.17236328 C9.09268677 10.36435333 9.10529541 11.55634338 9.11828613 12.78445435 C9.11018921 14.07503754 9.10209229 15.36562073 9.09375 16.6953125 C9.09644642 18.03710206 9.10033009 19.37888971 9.10534668 20.72067261 C9.11124702 23.53695221 9.10267074 26.35272469 9.08398438 29.16894531 C9.06132496 32.75671951 9.0742294 36.34328813 9.09827423 39.93101692 C9.11283154 42.70570707 9.10807911 45.48011873 9.09776306 48.25481796 C9.0938381 50.21384214 9.10587897 52.17287764 9.11828613 54.13186646 C9.04174732 61.48246564 8.21106625 66.96324267 4.5625 73.375 C4.02625 74.426875 3.49 75.47875 2.9375 76.5625 C-1.66587891 82.01386976 -8.30840032 85.88996424 -15.47705078 86.56787109 C-34.5796846 87.28178606 -34.5796846 87.28178606 -42.4375 81.375 C-44.4375 79.375 -44.4375 79.375 -44.75 76.4375 C-44.4375 73.375 -44.4375 73.375 -43.375 71.4375 C-40.20546881 69.69936999 -37.88971513 70.58268833 -34.4375 71.375 C-33.1615282 71.90444888 -31.89074845 72.44655533 -30.625 73 C-25.80634476 74.89003565 -21.40259917 74.74496884 -16.4375 73.375 C-12.61337507 71.25835472 -10.02775171 68.45346124 -8.4375 64.375 C-8.13122528 61.52720187 -8.13122528 61.52720187 -8.16625977 58.36889648 C-8.15607315 57.15761581 -8.14588654 55.94633514 -8.13539124 54.698349 C-8.13325119 53.39410477 -8.13111115 52.08986053 -8.12890625 50.74609375 C-8.11780497 49.39135147 -8.10541114 48.03661922 -8.09178162 46.68190002 C-8.03643355 40.93589314 -8.00563809 35.18981631 -7.98120117 29.44360352 C-7.96533553 25.92455218 -7.93513372 22.40585043 -7.89643669 18.88698006 C-7.87911954 16.89562124 -7.87873186 14.90413858 -7.8785553 12.91270447 C-7.86521652 11.70457596 -7.85187775 10.49644745 -7.83813477 9.25170898 C-7.83052879 7.65431129 -7.83052879 7.65431129 -7.82276917 6.02464294 C-7.4375 3.375 -7.4375 3.375 -6.04502869 1.53260803 C-3.9362841 0.01406613 -2.58145543 -0.02611928 0 0 Z " fill="#61AFDD" transform="translate(505.4375,659.625)"/>
<path d="M0 0 C2.68321228 1.53820801 2.68321228 1.53820801 5 4 C5.50012636 6.80971668 5.67566606 9.01821355 5.63110352 11.82617188 C5.63825882 12.61037003 5.64541412 13.39456818 5.65278625 14.20252991 C5.66967993 16.79186456 5.65026831 19.37946938 5.62890625 21.96875 C5.62973489 23.76949202 5.63219411 25.57023396 5.63621521 27.37097168 C5.63907365 31.14386784 5.62436779 34.91617049 5.59692383 38.68896484 C5.56284071 43.52479922 5.56885866 48.35957228 5.5875864 53.19545746 C5.59815572 56.91356245 5.58921925 60.63142053 5.57420158 64.34950256 C5.56901879 66.13248461 5.56950276 67.91549243 5.57574654 69.69847107 C5.58119804 72.19082059 5.56082749 74.68165165 5.53344727 77.17382812 C5.53997314 77.91057266 5.54649902 78.6473172 5.55322266 79.40638733 C5.48876095 82.85765248 5.24059018 84.68749755 3.10752869 87.45812988 C0.66046802 89.24840194 -0.56017139 89.51370123 -3.5625 89.4375 C-4.32691406 89.43621094 -5.09132813 89.43492187 -5.87890625 89.43359375 C-8.65982386 88.86511888 -9.35112169 88.32932447 -11 86 C-11.30124002 83.28693093 -11.42011771 80.80227768 -11.40405273 78.08789062 C-11.41091599 77.28272507 -11.41777924 76.47755951 -11.42485046 75.647995 C-11.44316681 72.98390113 -11.43927455 70.32039337 -11.43359375 67.65625 C-11.43815292 65.80684212 -11.4434577 63.95743593 -11.44947815 62.10803223 C-11.45841851 58.23096842 -11.45597527 54.35411049 -11.44604492 50.47705078 C-11.43454827 45.50327512 -11.45477254 40.53020865 -11.48396206 35.55652618 C-11.5022876 31.73727896 -11.50203901 27.91820287 -11.49632454 24.09892273 C-11.49617091 22.26485702 -11.50224967 20.43078001 -11.51461601 18.59675598 C-11.52945748 16.03475123 -11.51890078 13.474072 -11.50170898 10.91210938 C-11.51137695 10.15149704 -11.52104492 9.3908847 -11.53100586 8.60722351 C-11.48486752 5.33168464 -11.45467346 3.49238118 -9.18348694 1.03283691 C-5.92250668 -0.50967782 -3.55930204 -0.43710727 0 0 Z " fill="#7AC9B3" transform="translate(1059,637)"/>
<path d="M0 0 C5.67458259 1.89152753 9.32628019 5.65256038 12 11 C12.15201874 13.90882009 12.23148077 16.77766672 12.25 19.6875 C12.270625 20.47833984 12.29125 21.26917969 12.3125 22.08398438 C12.35229037 28.10725116 11.5989654 33.05053799 7.46484375 37.7421875 C1.45366693 42.20060509 -2.55462148 42.73014071 -10 42 C-15.36169364 40.28778032 -18.31630165 36.85130086 -21 32 C-22.32674162 28.01977513 -22.26251364 24.35636239 -22.3125 20.1875 C-22.34150391 19.39279297 -22.37050781 18.59808594 -22.40039062 17.77929688 C-22.45886458 12.3412188 -21.60198393 9.31713193 -18 5 C-12.02699628 -0.26193185 -7.81748614 -0.59793803 0 0 Z " fill="#FCFDFD" transform="translate(563,673)"/>
<path d="M0 0 C1.54022699 0.01843301 3.08047701 0.03502414 4.6207428 0.04986572 C7.84150173 0.08787272 11.06091316 0.14768091 14.28100586 0.22314453 C18.39093876 0.3177788 22.49931241 0.35872686 26.61019039 0.38331223 C29.78927112 0.40820203 32.96740516 0.46143712 36.14596748 0.5230484 C37.66037285 0.54912078 39.17495217 0.56664468 40.68955803 0.57515717 C54.97949162 0.68461911 54.97949162 0.68461911 60.74440002 6.12432861 C67.06519657 12.08838122 77.15358502 11.27107348 85.28515625 11.578125 C85.28515625 11.908125 85.28515625 12.238125 85.28515625 12.578125 C71.26428182 14.13418841 57.45785653 14.87953943 43.35546875 14.84375 C41.42275952 14.84510429 39.49005062 14.84705108 37.55734253 14.84954834 C33.54226378 14.85246523 29.52727514 14.8483155 25.51220703 14.83886719 C20.43727617 14.82748887 15.36255557 14.83421196 10.28763199 14.84577179 C-29.87363473 14.92292748 -29.87363473 14.92292748 -48.71484375 12.578125 C-48.71484375 12.248125 -48.71484375 11.918125 -48.71484375 11.578125 C-47.67585937 11.55234375 -46.636875 11.5265625 -45.56640625 11.5 C-33.63827206 11.07693331 -33.63827206 11.07693331 -22.71484375 6.578125 C-22.31744995 6.10575912 -21.92005615 5.63339325 -21.51062012 5.14671326 C-15.70905892 -1.30620592 -7.98937732 -0.19287148 0 0 Z " fill="#E7EDF0" transform="translate(735.71484375,578.421875)"/>
<path d="M0 0 C0.33 0 0.66 0 1 0 C1.14695312 1.11117187 1.29390625 2.22234375 1.4453125 3.3671875 C3.00398758 14.10996282 4.8883301 23.37164504 13.875 30.4375 C20.21395181 34.28887692 27.77463446 34.98933537 35 36 C35 36.66 35 37.32 35 38 C34.34515625 38.00257813 33.6903125 38.00515625 33.015625 38.0078125 C23.80683118 38.39801563 15.11454637 41.38130833 8.5 48.0625 C3.53475857 54.63888172 1.75146198 63.9217837 1 72 C0.34 72 -0.32 72 -1 72 C-1.07476563 71.11699219 -1.14953125 70.23398437 -1.2265625 69.32421875 C-2.24522837 60.02639592 -3.83625018 51.35718787 -11.30078125 45.05859375 C-16.59325162 41.64276917 -21.80630903 39.90840801 -28 39 C-29.175625 38.79375 -30.35125 38.5875 -31.5625 38.375 C-32.7690625 38.189375 -32.7690625 38.189375 -34 38 C-34 37.34 -34 36.68 -34 36 C-32.865625 35.78085938 -31.73125 35.56171875 -30.5625 35.3359375 C-20.47375093 33.26249323 -13.1635963 31.36884787 -6.625 22.9375 C-3.80707597 17.8435604 -2.44390835 12.88652668 -1.375 7.1875 C-1.2409375 6.49462891 -1.106875 5.80175781 -0.96875 5.08789062 C-0.64141712 3.39277391 -0.32009406 1.69649854 0 0 Z " fill="#FCDA65" transform="translate(515,211)"/>
<path d="M0 0 C0.66 0 1.32 0 2 0 C2.01417969 0.64324219 2.02835938 1.28648437 2.04296875 1.94921875 C2.51689217 10.92814631 4.84007181 20.09733251 10.1875 27.5 C17.78752529 34.25557804 26.08592423 35.95886665 36 37 C36 37.33 36 37.66 36 38 C35.10539063 38.15855469 34.21078125 38.31710937 33.2890625 38.48046875 C19.76003283 40.96509934 19.76003283 40.96509934 9.125 49.125 C4.60705715 56.49469402 2.56044394 64.45322996 2 73 C1.34 73 0.68 73 0 73 C-0.02578125 72.39414062 -0.0515625 71.78828125 -0.078125 71.1640625 C-0.66614673 62.47737789 -3.12269401 53.63080676 -9 47 C-16.46829969 41.58743437 -23.92614803 39.83669859 -33 39 C-33 38.34 -33 37.68 -33 37 C-32.09378906 36.84144531 -31.18757812 36.68289063 -30.25390625 36.51953125 C-21.56320411 34.8549629 -14.07648427 33.07648427 -7.6875 26.6875 C-7.130625 25.800625 -6.57375 24.91375 -6 24 C-5.29875 22.906875 -4.5975 21.81375 -3.875 20.6875 C-0.76800812 14.36342597 -0.63798408 6.91709059 0 0 Z " fill="#FBDA65" transform="translate(883,226)"/>
<path d="M0 0 C3.94234345 0.65705724 4.2425765 1.24656564 6.625 4.25 C11.08067243 9.84688029 17.31313764 13.27618627 24.375 14.5625 C36.21118877 15.41192061 45.81903121 14.1183823 55.375 6.5625 C56.24830898 5.49453781 57.10235354 4.41056293 57.9375 3.3125 C60.375 0.5625 60.375 0.5625 63.0625 0.0625 C65.375 0.5625 65.375 0.5625 67.375 2.5625 C67.4877194 8.9875059 65.57107623 12.58888434 61.45703125 17.45703125 C58.10674059 20.84503625 54.54669488 23.28640114 50.375 25.5625 C49.64925781 25.97628906 48.92351563 26.39007813 48.17578125 26.81640625 C38.97160482 31.30129358 27.01164724 31.13089383 17.375 28 C8.79192261 24.30849407 2.25666449 18.29257614 -2.9375 10.625 C-3.95730209 7.56559373 -3.80573587 4.75550045 -3.625 1.5625 C-2.625 0.5625 -2.625 0.5625 0 0 Z " fill="#31547D" transform="translate(725.625,392.4375)"/>
<path d="M0 0 C0.495 2.475 0.495 2.475 1 5 C-1.31 5.66 -3.62 6.32 -6 7 C-6.10957031 7.60585938 -6.21914062 8.21171875 -6.33203125 8.8359375 C-6.56986328 10.09277344 -6.56986328 10.09277344 -6.8125 11.375 C-7.03873047 12.59316406 -7.03873047 12.59316406 -7.26953125 13.8359375 C-9.13223314 21.90432537 -11.72128862 29.04098601 -15.6875 36.3125 C-16.13246826 37.13935303 -16.57743652 37.96620605 -17.03588867 38.81811523 C-28.48300272 59.90533607 -42.85417413 78.77307378 -58.421875 96.97265625 C-59.88802549 98.69427236 -61.34380332 100.42519038 -62.765625 102.18359375 C-67.39173248 107.80267885 -72.88735927 112.31336994 -78.44140625 116.9765625 C-81.61335569 119.64687369 -84.65525737 122.42222711 -87.6875 125.25 C-92.81194478 129.96265904 -98.28100463 134.0398446 -104 138 C-104.66 137.34 -105.32 136.68 -106 136 C-101.85284873 130.93125956 -97.70580418 126.45464556 -92.5 122.4375 C-87.77654086 118.71768819 -83.36927728 114.74149412 -79.0234375 110.59350586 C-76.67386919 108.38291168 -75.10465716 107.03488572 -72 106 C-71.57654297 105.14148438 -71.57654297 105.14148438 -71.14453125 104.265625 C-69.55355822 101.1162586 -67.2427497 99.1703989 -64.6875 96.75 C-61.3459748 93.53091071 -58.3621008 90.40147336 -56 86.375 C-54 83 -54 83 -51 82 C-50.71125 80.88625 -50.4225 79.7725 -50.125 78.625 C-49 75 -49 75 -46.5625 73.5625 C-43.19225744 71.50747405 -42.97850514 69.62067034 -41.81640625 65.98828125 C-40.58586585 62.99141491 -38.32178538 61.20271947 -36 59 C-35.31246699 57.34183216 -34.64438717 55.67540664 -34 54 C-33.34 53.360625 -32.68 52.72125 -32 52.0625 C-29.56780837 49.55430238 -29.05129972 47.29407245 -28 44 C-27.5153125 43.53335938 -27.030625 43.06671875 -26.53125 42.5859375 C-24.69607513 40.68522067 -24.26594319 39.21727396 -23.5625 36.6875 C-22.29936419 32.57233651 -20.41029501 29.57656679 -18 26 C-17.31744011 23.67126625 -16.64949225 21.33817209 -16 19 C-15.46375 18.34 -14.9275 17.68 -14.375 17 C-12.3202305 14.01124437 -12.74713123 11.54016283 -13 8 C-13.42854995 5.68963085 -13.42854995 5.68963085 -14 4 C-9.57391359 -0.5688634 -5.97980322 -0.46900417 0 0 Z " fill="#69B4E2" transform="translate(1171,281)"/>
<path d="M0 0 C1.0528418 0.01321289 2.10568359 0.02642578 3.19042969 0.04003906 C10.89467361 0.21854332 17.76833882 1.0526483 25.125 3.4375 C26.2490625 3.76234375 27.373125 4.0871875 28.53125 4.421875 C34.67156719 6.28692461 34.67156719 6.28692461 37.125 7.4375 C37.62 8.9225 37.62 8.9225 38.125 10.4375 C36.52092672 10.46458567 34.9167215 10.48393483 33.3125 10.5 C31.97251953 10.51740234 31.97251953 10.51740234 30.60546875 10.53515625 C28.125 10.4375 28.125 10.4375 25.125 9.4375 C22.66779987 9.30518642 20.2398028 9.22539825 17.78125 9.19921875 C17.05691772 9.191147 16.33258545 9.18307526 15.58630371 9.17475891 C14.04974751 9.16093139 12.51316077 9.15020327 10.9765625 9.14233398 C9.42308392 9.13088289 7.86964251 9.11054149 6.31640625 9.08081055 C-3.17999819 8.89920196 -11.1442278 9.19449868 -19.875 13.4375 C-21.35033203 14.14132812 -21.35033203 14.14132812 -22.85546875 14.859375 C-31.3646879 19.97996706 -37.28655317 26.30885006 -42.875 34.4375 C-43.205 34.4375 -43.535 34.4375 -43.875 34.4375 C-44.18133677 29.71016659 -43.47756742 26.96870023 -41.125 22.875 C-40.61453125 21.96621094 -40.1040625 21.05742187 -39.578125 20.12109375 C-36.54459745 15.34120057 -33.36749716 11.74932043 -28.8125 8.375 C-27.95527344 7.72402344 -27.09804688 7.07304687 -26.21484375 6.40234375 C-17.69203921 1.38834295 -9.81035841 -0.21786763 0 0 Z " fill="#F8FCFB" transform="translate(1004.875,267.5625)"/>
<path d="M0 0 C4.47151685 1.49331789 7.37667936 3.30739068 9.5703125 7.50390625 C9.64415801 11.71310034 9.31435006 13.69421832 6.4453125 16.81640625 C-0.09669724 20.65628153 -6.1334976 21.17745476 -13.4296875 19.50390625 C-17.27282683 17.4775237 -20.37151524 15.39156497 -22.4296875 11.50390625 C-22.9921875 8.56640625 -22.9921875 8.56640625 -22.4296875 5.50390625 C-16.35966963 -1.43856067 -8.64601776 -1.76534446 0 0 Z " fill="#F88D97" transform="translate(838.4296875,391.49609375)"/>
<path d="M0 0 C3.55006581 1.19949193 4.45005916 2.07689709 7 5 C8.25 8.4375 8.25 8.4375 8 12 C5.49935638 15.78668891 3.2477028 18.384988 -1 20 C-7.0557295 20.63433951 -13.73584146 21.21109148 -19.25 18.25 C-23.33546326 14.90734824 -23.33546326 14.90734824 -24 12 C-23.92215222 7.64052405 -23.72859395 5.70991205 -20.5625 2.625 C-14.32734218 -1.32900252 -7.16929624 -0.61633278 0 0 Z " fill="#F78E98" transform="translate(691,391)"/>
<path d="M0 0 C0.86625 0.804375 1.7325 1.60875 2.625 2.4375 C18.50006444 15.97139332 35.04280416 22.28542546 56 21 C65.85412508 20.03097202 74.62843213 17.23936264 83.69140625 13.36328125 C87.44397633 11.81706288 91.0333076 10.80952906 95 10 C85.64429444 21.02636726 69.56647342 26.99503329 55.43457031 28.22290039 C37.42520736 29.02189762 23.24656924 25.93739755 9.1875 14.125 C5.33051854 10.5689178 2.23033646 6.7744891 0 2 C0 1.34 0 0.68 0 0 Z " fill="#BDD8E3" transform="translate(992,369)"/>
<path d="M0 0 C0.66 0.33 1.32 0.66 2 1 C-10.9425308 18.63647683 -30.80764696 41.48436139 -52 49 C-54.67578125 49.171875 -54.67578125 49.171875 -57 49 C-58 48 -58 48 -58.27612305 45.65209961 C-57.84390468 41.50073967 -55.46377405 40.28322153 -52.35791016 37.75830078 C-48.58878236 34.94765071 -44.6750862 32.42470055 -40.6875 29.9375 C-19.26076078 16.39332206 -19.26076078 16.39332206 0 0 Z " fill="#A8DAF4" transform="translate(1100,397)"/>
<path d="M0 0 C3.39488422 2.05107588 4.80323081 3.70484621 7 7 C7.60695266 11.20925614 7.43802698 14.93951362 5.8125 18.875 C3.15139501 21.9949162 0.99360463 23.70277167 -3.1484375 24.3203125 C-7.21104805 24.52276818 -9.41416005 24.36147571 -12.9375 22.1875 C-17.00468862 17.8738151 -17.4323978 15.15383773 -17.32421875 9.4453125 C-16.86768231 6.00203768 -15.53159355 4.31459982 -13 2 C-8.7609119 -0.82605874 -4.97875497 -0.66012246 0 0 Z " fill="#335680" transform="translate(708,359)"/>
<path d="M0 0 C3.79259576 2.04216695 7.00344184 4.11780358 9 8 C9.5775294 13.1977646 8.88196356 16.62736563 6 21 C2.23688216 24.42101622 -1.72903455 24.56092009 -6.62109375 24.4296875 C-10.26759001 23.77104285 -11.85555143 21.90538193 -14 19 C-15.85110583 15.29778834 -15.46454795 11.04093083 -15 7 C-11.33070065 0.70977255 -7.11202755 -0.73572699 0 0 Z " fill="#2D4C74" transform="translate(815,359)"/>
<path d="M0 0 C0.93779297 0.00322266 1.87558594 0.00644531 2.84179688 0.00976562 C4.30649414 0.02233398 4.30649414 0.02233398 5.80078125 0.03515625 C6.78884766 0.03966797 7.77691406 0.04417969 8.79492188 0.04882812 C11.23443599 0.06061322 13.67382814 0.07706614 16.11328125 0.09765625 C16.27732854 6.23050113 16.33520035 9.20911834 12.11328125 14.09765625 C7.32639398 18.76180282 2.58134166 18.56909973 -3.765625 18.62890625 C-7.51497396 17.99071919 -9.1818529 16.71937071 -11.88671875 14.09765625 C-13.3310273 11.20903916 -13.26360381 9.30117924 -12.88671875 6.09765625 C-8.95413584 1.31478515 -6.06455439 -0.03675488 0 0 Z " fill="#FAFCFC" transform="translate(1002.88671875,698.90234375)"/>
<path d="M0 0 C-0.66 0.45375 -1.32 0.9075 -2 1.375 C-2.66 1.91125 -3.32 2.4475 -4 3 C-4 3.66 -4 4.32 -4 5 C-5.2684375 4.70351563 -6.536875 4.40703125 -7.84375 4.1015625 C-27.84844605 -0.3291651 -48.31269031 -2.80242479 -68 4 C-68.66 4.66 -69.32 5.32 -70 6 C-70.969375 6.33 -71.93875 6.66 -72.9375 7 C-80.75791281 10.2134191 -89.30985553 18.30009225 -93 26 C-94.52284859 30.28616325 -95.81793607 34.60853345 -97 39 C-97.33 39 -97.66 39 -98 39 C-99.642696 34.99221758 -100.47727119 31.60363121 -99.21875 27.375 C-93.64117198 16.21984396 -83.3665581 6.13588107 -72 1 C-70.94554687 0.51660156 -69.89109375 0.03320312 -68.8046875 -0.46484375 C-47.2856732 -8.71151484 -22.04514859 -3.80752222 0 0 Z " fill="#7FD7C9" transform="translate(1052,264)"/>
<path d="M0 0 C1.32 0.66 2.64 1.32 4 2 C3.67 2.33 3.34 2.66 3 3 C3.06006078 4.45947705 3.1488689 5.91779272 3.25 7.375 C3.31395826 13.7890993 0.93206859 18.41548788 -2 24 C-2.87792034 25.7276858 -3.75302662 27.45680511 -4.625 29.1875 C-5.03621094 29.99832031 -5.44742187 30.80914062 -5.87109375 31.64453125 C-7.48911217 35.02053508 -8.72583601 38.48088042 -10 42 C-10.63960014 43.3465266 -11.289999 44.68922893 -12 46 C-12.66 46 -13.32 46 -14 46 C-14.226875 46.845625 -14.45375 47.69125 -14.6875 48.5625 C-16.25736398 52.67404851 -18.34299048 55.50393484 -21 59 C-22.14920821 55.13963157 -21.49408105 53.73520263 -20 50 C-19.86506574 48.6234627 -19.76002392 47.2438483 -19.67578125 45.86328125 C-19.15652285 40.78101399 -17.38977256 36.8730206 -15.0625 32.375 C-11.21844902 24.78317122 -9.00306889 17.53574985 -7.5625 9.13671875 C-7 7 -7 7 -5 5 C-2.375 4.375 -2.375 4.375 0 4 C0 2.68 0 1.36 0 0 Z " fill="#9BCFED" transform="translate(1171,281)"/>
<path d="M0 0 C4.29560637 2.27718892 7.23444867 5.46001087 9 10 C9 11.65 9 13.3 9 15 C-1.23 15 -11.46 15 -22 15 C-22 8.21782178 -22 8.21782178 -19.25 5.25 C-18.73953125 4.67765625 -18.2290625 4.1053125 -17.703125 3.515625 C-12.59359733 -1.03138586 -6.53279955 -0.99059444 0 0 Z " fill="#FAFCFC" transform="translate(822,674)"/>
<path d="M0 0 C3.48013372 0.7111304 5.00816094 1.59521891 7.16015625 4.44140625 C7.8721228 7.59524157 7.84006065 10.28350318 7.16015625 13.44140625 C5.22265625 16.50390625 5.22265625 16.50390625 2.16015625 18.44140625 C-0.96783031 19.06477724 -3.71471934 19.08979655 -6.83984375 18.44140625 C-9.34145193 16.56520012 -10.45930027 15.20249322 -11.83984375 12.44140625 C-12.39342734 8.38179323 -11.96756386 6.66388644 -9.90234375 3.06640625 C-6.9647622 -0.11388147 -4.19353325 -0.32904184 0 0 Z " fill="#63B0DE" transform="translate(507.83984375,630.55859375)"/>
<path d="M0 0 C3.8550929 1.5705934 6.11181547 4.04965942 9 7 C9.9539917 7.94576622 10.90976057 8.88974277 11.8671875 9.83203125 C16.89730482 14.80917383 21.8331403 19.78411824 26.40234375 25.1953125 C28.129274 27.14602588 29.97860287 28.90220492 31.875 30.6875 C34.55552523 33.30206152 35.88195956 35.10466535 36 39 C31.49809582 38.50334865 29.38818814 36.95052876 26.125 33.875 C25.25101563 33.05257812 24.37703125 32.23015625 23.4765625 31.3828125 C22.65929687 30.59648437 21.84203125 29.81015625 21 29 C20.38898437 28.44054687 19.77796875 27.88109375 19.1484375 27.3046875 C11.78677627 20.36169895 5.25104222 11.60688069 0 3 C0 2.01 0 1.02 0 0 Z " fill="#A1D6F5" transform="translate(967,401)"/>
<path d="M0 0 C6.31718671 0.15792967 9.80727176 3.67506862 14 8 C16 11 16 11 15.625 13.1875 C15.315625 14.0846875 15.315625 14.0846875 15 15 C10.24039713 15.59495036 7.63570539 15.16680674 3.625 12.4375 C0.59801986 9.97258968 0.04993459 9.17623972 -1.0625 5.25 C-1 2 -1 2 0 0 Z " fill="#FAFCFD" transform="translate(1136,280)"/>
<path d="M0 0 C0.44730469 0.40992188 0.89460937 0.81984375 1.35546875 1.2421875 C7.40996562 6.63830625 12.00273116 8.18671842 20 9 C20 11.97 20 14.94 20 18 C13.29635945 17.69060121 8.81603955 16.8659467 4 12 C1.11655704 8.26346741 -0.58389708 4.81715094 0 0 Z " fill="#5EACDF" transform="translate(1008,573)"/>
<path d="M0 0 C3.125 0.375 3.125 0.375 5.5625 2 C7.125 4.375 7.125 4.375 7.0625 7.5 C6.125 10.375 6.125 10.375 3.125 12.375 C-0.4375 12.1875 -0.4375 12.1875 -3.875 11.375 C-5.875 8.375 -5.875 8.375 -5.625 5.3125 C-4.64076568 1.45758224 -3.98718922 0.52006816 0 0 Z " fill="#8BC5E9" transform="translate(1035.875,502.625)"/>
<path d="M0 0 C0.33 0 0.66 0 1 0 C1.24664928 11.2499478 0.9098618 22.39790188 0.125 33.625 C0.04652832 34.82874268 -0.03194336 36.03248535 -0.11279297 37.27270508 C-0.19674316 38.39185303 -0.28069336 39.51100098 -0.3671875 40.6640625 C-0.44050293 41.66904785 -0.51381836 42.6740332 -0.58935547 43.70947266 C-0.72486816 44.46534668 -0.86038086 45.2212207 -1 46 C-1.99 46.495 -1.99 46.495 -3 47 C-4.15136362 38.81353269 -4.11414983 30.68490646 -4.0625 22.4375 C-4.05747366 21.03320473 -4.05291276 19.6289077 -4.04882812 18.22460938 C-4.03711593 14.81636097 -4.02071372 11.4082036 -4 8 C-3.67 8 -3.34 8 -3 8 C-3 14.93 -3 21.86 -3 29 C-2.34 29 -1.68 29 -1 29 C-1.01160156 28.41476562 -1.02320313 27.82953125 -1.03515625 27.2265625 C-1.13080264 18.12649164 -0.55927288 9.07819735 0 0 Z " fill="#80C6EC" transform="translate(543,449)"/>
<path d="M0 0 C2.64 0 5.28 0 8 0 C7.38125 0.28875 6.7625 0.5775 6.125 0.875 C3.86674235 1.93720042 3.86674235 1.93720042 2 4 C1.53837573 6.43252661 1.53837573 6.43252661 1.375 9.125 C1.30023437 10.03507813 1.22546875 10.94515625 1.1484375 11.8828125 C1.09945312 12.58148437 1.05046875 13.28015625 1 14 C3.64 14 6.28 14 9 14 C9 14.33 9 14.66 9 15 C8.25234375 15.13277344 7.5046875 15.26554688 6.734375 15.40234375 C5.25710938 15.66724609 5.25710938 15.66724609 3.75 15.9375 C2.77546875 16.11152344 1.8009375 16.28554688 0.796875 16.46484375 C-1.49721795 16.90379729 -3.74291971 17.40348592 -6 18 C-5.195625 17.443125 -4.39125 16.88625 -3.5625 16.3125 C0.24813204 12.63104192 -0.24794899 7.65951448 -0.04296875 2.66796875 C-0.02878906 1.78753906 -0.01460937 0.90710938 0 0 Z " fill="#4FB5C2" transform="translate(750,516)"/>
<path d="M0 0 C0 0.66 0 1.32 0 2 C-3.96 3.98 -3.96 3.98 -8 6 C-8.33 5.34 -8.66 4.68 -9 4 C-11.71446979 3.68758545 -14.33909361 3.48663408 -17.0625 3.375 C-18.20041992 3.31699219 -18.20041992 3.31699219 -19.36132812 3.2578125 C-21.24047195 3.16326438 -23.12020336 3.08053244 -25 3 C-25 2.67 -25 2.34 -25 2 C-23.75863281 1.93941406 -22.51726563 1.87882812 -21.23828125 1.81640625 C-19.59634423 1.73196377 -17.95441768 1.64731764 -16.3125 1.5625 C-15.08756836 1.50352539 -15.08756836 1.50352539 -13.83789062 1.44335938 C-9.21386278 1.19998949 -4.56628748 0 0 0 Z " fill="#8ECAF0" transform="translate(789,318)"/>
<path d="M0 0 C3.5875213 1.33250791 6.8364623 2.830717 10 5 C10 5.66 10 6.32 10 7 C12.97 7.99 15.94 8.98 19 10 C13.87777523 11.28055619 12.59457907 10.04046993 8.26171875 7.4765625 C5.26067973 5.51733495 2.63402882 3.43141122 0 1 C0 0.67 0 0.34 0 0 Z " fill="#57A2CB" transform="translate(660,576)"/>
<path d="M0 0 C1.32 0.66 2.64 1.32 4 2 C3.67 2.33 3.34 2.66 3 3 C2.92794489 4.68608966 2.91613932 6.37500659 2.9375 8.0625 C2.95103516 9.44115234 2.95103516 9.44115234 2.96484375 10.84765625 C2.97644531 11.55792969 2.98804688 12.26820313 3 13 C2.67 13 2.34 13 2 13 C2 10.69 2 8.38 2 6 C-0.31 6 -2.62 6 -5 6 C-5 5.67 -5 5.34 -5 5 C-3.35 4.67 -1.7 4.34 0 4 C0 2.68 0 1.36 0 0 Z " fill="#89C2E6" transform="translate(1171,281)"/>
<path d="M0 0 C0 0.33 0 0.66 0 1 C-1.91635217 1.05423638 -3.83314925 1.09289963 -5.75 1.125 C-7.35101563 1.15980469 -7.35101563 1.15980469 -8.984375 1.1953125 C-11.92470106 1.00487687 -13.52361878 0.52670104 -16 -1 C-10.15659442 -2.24327778 -5.73303505 -1.57300962 0 0 Z " fill="#7BD2E3" transform="translate(469,584)"/>
<path d="M0 0 C0.33 0 0.66 0 1 0 C0.67 5.94 0.34 11.88 0 18 C-0.33 18 -0.66 18 -1 18 C-2.51708428 5.33029613 -2.51708428 5.33029613 0 0 Z " fill="#92CDED" transform="translate(461,269)"/>
<path d="M0 0 C1.98 0 3.96 0 6 0 C4.02 0.99 4.02 0.99 2 2 C2.33 2.66 2.66 3.32 3 4 C-0.96 3.67 -4.92 3.34 -9 3 C-9 2.67 -9 2.34 -9 2 C-6.03 2 -3.06 2 0 2 C0 1.34 0 0.68 0 0 Z " fill="#8EDBCD" transform="translate(1026,261)"/>
<path d="M0 0 C-0.33 0.66 -0.66 1.32 -1 2 C-0.34 2.33 0.32 2.66 1 3 C-2.3 2.67 -5.6 2.34 -9 2 C-9 1.34 -9 0.68 -9 0 C-5.62182575 -0.84454356 -3.32534757 -1.10844919 0 0 Z " fill="#FBE485" transform="translate(490,247)"/>
<path d="M0 0 C0.66 0.33 1.32 0.66 2 1 C1.34 1.66 0.68 2.32 0 3 C2.64 3.33 5.28 3.66 8 4 C8 4.33 8 4.66 8 5 C4.04 5 0.08 5 -4 5 C-3 2 -3 2 0 0 Z " fill="#98D8D1" transform="translate(764,304)"/>
</svg>
