<svg width="471" height="171" viewBox="0 0 471 171" fill="none" xmlns="http://www.w3.org/2000/svg">
<path d="M21.12 109.46C21.12 113.108 20.416 116.244 19.008 118.868C17.6 121.556 15.712 123.636 13.344 125.108C10.976 126.58 8.32001 127.316 5.37601 127.316C3.77601 127.316 2.49601 126.772 1.53601 125.684C0.512013 124.66 1.32918e-05 123.412 1.32918e-05 121.94V120.884C1.32918e-05 119.476 0.480013 118.356 1.44001 117.524C2.33601 116.692 3.48801 116.052 4.89601 115.604C6.43201 115.092 7.52001 114.356 8.16001 113.396C8.80001 112.5 9.18401 111.412 9.31201 110.132C9.50401 108.852 9.60001 107.508 9.60001 106.1V62.996C9.60001 61.332 10.144 59.956 11.232 58.868C12.32 57.716 13.696 57.14 15.36 57.14C17.024 57.14 18.4 57.716 19.488 58.868C20.576 59.956 21.12 61.332 21.12 62.996V109.46ZM15.168 50.9C12.992 50.9 11.456 50.548 10.56 49.844C9.66401 49.14 9.21601 47.892 9.21601 46.1V44.276C9.21601 42.42 9.69601 41.172 10.656 40.532C11.68 39.828 13.216 39.476 15.264 39.476C17.504 39.476 19.072 39.828 19.968 40.532C20.864 41.236 21.312 42.484 21.312 44.276V46.1C21.312 47.956 20.832 49.236 19.872 49.94C18.912 50.58 17.344 50.9 15.168 50.9ZM84.4215 82.868C84.4215 88.116 83.2375 92.756 80.8695 96.788C78.5655 100.756 75.4295 103.86 71.4615 106.1C67.5575 108.34 63.1735 109.46 58.3095 109.46C53.4455 109.46 49.0295 108.34 45.0615 106.1C41.1575 103.86 38.0215 100.756 35.6535 96.788C33.3495 92.756 32.1975 88.116 32.1975 82.868C32.1975 77.62 33.3495 73.012 35.6535 69.044C38.0215 65.012 41.1575 61.876 45.0615 59.636C49.0295 57.332 53.4455 56.18 58.3095 56.18C63.1735 56.18 67.5575 57.332 71.4615 59.636C75.4295 61.876 78.5655 65.012 80.8695 69.044C83.2375 73.012 84.4215 77.62 84.4215 82.868ZM72.9015 82.868C72.9015 79.604 72.2295 76.788 70.8855 74.42C69.6055 71.988 67.8455 70.1 65.6055 68.756C63.4295 67.412 60.9975 66.74 58.3095 66.74C55.6215 66.74 53.1575 67.412 50.9175 68.756C48.7415 70.1 46.9815 71.988 45.6375 74.42C44.3575 76.788 43.7175 79.604 43.7175 82.868C43.7175 86.068 44.3575 88.884 45.6375 91.316C46.9815 93.684 48.7415 95.54 50.9175 96.884C53.1575 98.228 55.6215 98.9 58.3095 98.9C60.9975 98.9 63.4295 98.228 65.6055 96.884C67.8455 95.54 69.6055 93.684 70.8855 91.316C72.2295 88.884 72.9015 86.068 72.9015 82.868ZM132.616 57.14C134.28 57.14 135.656 57.716 136.744 58.868C137.832 59.956 138.376 61.332 138.376 62.996V103.796C138.376 109.684 137.256 114.356 135.016 117.812C132.84 121.332 129.896 123.86 126.184 125.396C122.472 126.932 118.312 127.7 113.704 127.7C111.656 127.7 109.48 127.54 107.176 127.22C104.872 126.9 102.984 126.42 101.512 125.78C99.5918 124.948 98.2478 123.892 97.4798 122.612C96.7758 121.396 96.6478 120.084 97.0958 118.676C97.6718 116.82 98.5998 115.54 99.8798 114.836C101.16 114.196 102.504 114.132 103.912 114.644C104.936 114.964 106.28 115.444 107.944 116.084C109.608 116.788 111.528 117.14 113.704 117.14C116.648 117.14 119.08 116.724 121 115.892C122.984 115.124 124.456 113.78 125.416 111.86C126.44 110.004 126.952 107.444 126.952 104.18V97.748L128.968 100.052C127.88 102.164 126.504 103.924 124.84 105.332C123.24 106.676 121.32 107.7 119.08 108.404C116.84 109.108 114.28 109.46 111.4 109.46C108.008 109.46 105.032 108.692 102.472 107.156C99.9758 105.556 98.0238 103.38 96.6158 100.628C95.2078 97.812 94.5038 94.612 94.5038 91.028V62.996C94.5038 61.332 95.0478 59.956 96.1358 58.868C97.2238 57.716 98.5998 57.14 100.264 57.14C101.928 57.14 103.304 57.716 104.392 58.868C105.48 59.956 106.024 61.332 106.024 62.996V87.572C106.024 91.732 106.92 94.676 108.712 96.404C110.568 98.068 113.128 98.9 116.392 98.9C118.632 98.9 120.52 98.484 122.056 97.652C123.592 96.756 124.776 95.476 125.608 93.812C126.44 92.084 126.856 90.004 126.856 87.572V62.996C126.856 61.332 127.4 59.956 128.488 58.868C129.576 57.716 130.952 57.14 132.616 57.14ZM219.802 37.46C221.466 37.46 222.842 38.004 223.93 39.092C225.018 40.18 225.562 41.588 225.562 43.316V102.644C225.562 104.308 225.018 105.716 223.93 106.868C222.842 107.956 221.466 108.5 219.802 108.5C218.138 108.5 216.762 107.956 215.674 106.868C214.586 105.716 214.042 104.308 214.042 102.644V97.94L216.154 98.804C216.154 99.636 215.706 100.66 214.81 101.876C213.914 103.028 212.698 104.18 211.162 105.332C209.626 106.484 207.802 107.476 205.69 108.308C203.642 109.076 201.402 109.46 198.97 109.46C194.554 109.46 190.554 108.34 186.97 106.1C183.386 103.796 180.538 100.66 178.426 96.692C176.378 92.66 175.354 88.052 175.354 82.868C175.354 77.62 176.378 73.012 178.426 69.044C180.538 65.012 183.354 61.876 186.874 59.636C190.394 57.332 194.298 56.18 198.586 56.18C201.338 56.18 203.866 56.596 206.17 57.428C208.474 58.26 210.458 59.316 212.122 60.596C213.85 61.876 215.162 63.188 216.058 64.532C217.018 65.812 217.498 66.9 217.498 67.796L214.042 69.044V43.316C214.042 41.652 214.586 40.276 215.674 39.188C216.762 38.036 218.138 37.46 219.802 37.46ZM200.41 98.9C203.226 98.9 205.69 98.196 207.802 96.788C209.914 95.38 211.546 93.46 212.698 91.028C213.914 88.596 214.522 85.876 214.522 82.868C214.522 79.796 213.914 77.044 212.698 74.612C211.546 72.18 209.914 70.26 207.802 68.852C205.69 67.444 203.226 66.74 200.41 66.74C197.658 66.74 195.226 67.444 193.114 68.852C191.002 70.26 189.338 72.18 188.122 74.612C186.97 77.044 186.394 79.796 186.394 82.868C186.394 85.876 186.97 88.596 188.122 91.028C189.338 93.46 191.002 95.38 193.114 96.788C195.226 98.196 197.658 98.9 200.41 98.9ZM262.227 109.46C256.787 109.46 252.051 108.34 248.019 106.1C244.051 103.796 240.979 100.692 238.803 96.788C236.691 92.884 235.635 88.468 235.635 83.54C235.635 77.78 236.787 72.884 239.091 68.852C241.459 64.756 244.531 61.62 248.307 59.444C252.083 57.268 256.083 56.18 260.307 56.18C263.571 56.18 266.643 56.852 269.523 58.196C272.467 59.54 275.059 61.396 277.299 63.764C279.539 66.068 281.299 68.756 282.579 71.828C283.923 74.9 284.595 78.164 284.595 81.62C284.531 83.156 283.923 84.404 282.771 85.364C281.619 86.324 280.275 86.804 278.739 86.804H242.067L239.187 77.204H274.419L272.307 79.124V76.532C272.179 74.676 271.507 73.012 270.291 71.54C269.139 70.068 267.667 68.916 265.875 68.084C264.147 67.188 262.291 66.74 260.307 66.74C258.387 66.74 256.595 66.996 254.931 67.508C253.267 68.02 251.827 68.884 250.611 70.1C249.395 71.316 248.435 72.948 247.731 74.996C247.027 77.044 246.675 79.636 246.675 82.772C246.675 86.228 247.379 89.172 248.787 91.604C250.259 93.972 252.115 95.796 254.355 97.076C256.659 98.292 259.091 98.9 261.651 98.9C264.019 98.9 265.907 98.708 267.315 98.324C268.723 97.94 269.843 97.492 270.675 96.98C271.571 96.404 272.371 95.924 273.075 95.54C274.227 94.964 275.315 94.676 276.339 94.676C277.747 94.676 278.899 95.156 279.795 96.116C280.755 97.076 281.235 98.196 281.235 99.476C281.235 101.204 280.339 102.772 278.547 104.18C276.883 105.588 274.547 106.836 271.539 107.924C268.531 108.948 265.427 109.46 262.227 109.46ZM322.116 56.18C326.852 56.18 330.436 57.172 332.868 59.156C335.364 61.14 337.06 63.796 337.956 67.124C338.916 70.388 339.396 74.036 339.396 78.068V102.644C339.396 104.308 338.852 105.716 337.764 106.868C336.676 107.956 335.3 108.5 333.636 108.5C331.972 108.5 330.596 107.956 329.508 106.868C328.42 105.716 327.876 104.308 327.876 102.644V78.068C327.876 75.956 327.588 74.068 327.012 72.404C326.5 70.676 325.54 69.3 324.132 68.276C322.724 67.252 320.708 66.74 318.084 66.74C315.524 66.74 313.348 67.252 311.556 68.276C309.828 69.3 308.484 70.676 307.524 72.404C306.628 74.068 306.18 75.956 306.18 78.068V102.644C306.18 104.308 305.636 105.716 304.548 106.868C303.46 107.956 302.084 108.5 300.42 108.5C298.756 108.5 297.38 107.956 296.292 106.868C295.204 105.716 294.66 104.308 294.66 102.644V62.996C294.66 61.332 295.204 59.956 296.292 58.868C297.38 57.716 298.756 57.14 300.42 57.14C302.084 57.14 303.46 57.716 304.548 58.868C305.636 59.956 306.18 61.332 306.18 62.996V67.124L304.74 66.836C305.316 65.748 306.148 64.596 307.236 63.38C308.324 62.1 309.604 60.916 311.076 59.828C312.548 58.74 314.212 57.876 316.068 57.236C317.924 56.532 319.94 56.18 322.116 56.18ZM352.424 58.1H375.176C376.712 58.1 377.992 58.612 379.016 59.636C380.04 60.66 380.552 61.94 380.552 63.476C380.552 64.948 380.04 66.196 379.016 67.22C377.992 68.18 376.712 68.66 375.176 68.66H352.424C350.888 68.66 349.608 68.148 348.584 67.124C347.56 66.1 347.048 64.82 347.048 63.284C347.048 61.812 347.56 60.596 348.584 59.636C349.608 58.612 350.888 58.1 352.424 58.1ZM362.696 46.1C364.36 46.1 365.704 46.676 366.728 47.828C367.816 48.916 368.36 50.292 368.36 51.956V94.676C368.36 95.572 368.52 96.308 368.84 96.884C369.224 97.46 369.704 97.876 370.28 98.132C370.92 98.388 371.592 98.516 372.296 98.516C373.064 98.516 373.768 98.388 374.408 98.132C375.048 97.812 375.784 97.652 376.616 97.652C377.512 97.652 378.312 98.068 379.016 98.9C379.784 99.732 380.168 100.884 380.168 102.356C380.168 104.148 379.176 105.62 377.192 106.772C375.272 107.924 373.192 108.5 370.952 108.5C369.608 108.5 368.104 108.404 366.44 108.212C364.84 107.956 363.304 107.412 361.832 106.58C360.424 105.684 359.24 104.34 358.28 102.548C357.32 100.756 356.84 98.292 356.84 95.156V51.956C356.84 50.292 357.384 48.916 358.472 47.828C359.624 46.676 361.032 46.1 362.696 46.1ZM433.177 56.18C434.841 56.18 436.217 56.724 437.305 57.812C438.393 58.9 438.937 60.308 438.937 62.036V102.644C438.937 104.308 438.393 105.716 437.305 106.868C436.217 107.956 434.841 108.5 433.177 108.5C431.513 108.5 430.137 107.956 429.049 106.868C427.961 105.716 427.417 104.308 427.417 102.644V97.94L429.529 98.804C429.529 99.636 429.081 100.66 428.185 101.876C427.289 103.028 426.073 104.18 424.537 105.332C423.001 106.484 421.177 107.476 419.065 108.308C417.017 109.076 414.777 109.46 412.345 109.46C407.929 109.46 403.929 108.34 400.345 106.1C396.761 103.796 393.913 100.66 391.801 96.692C389.753 92.66 388.729 88.052 388.729 82.868C388.729 77.62 389.753 73.012 391.801 69.044C393.913 65.012 396.729 61.876 400.249 59.636C403.769 57.332 407.673 56.18 411.961 56.18C414.713 56.18 417.241 56.596 419.545 57.428C421.849 58.26 423.833 59.316 425.497 60.596C427.225 61.876 428.537 63.188 429.433 64.532C430.393 65.812 430.873 66.9 430.873 67.796L427.417 69.044V62.036C427.417 60.372 427.961 58.996 429.049 57.908C430.137 56.756 431.513 56.18 433.177 56.18ZM413.785 98.9C416.601 98.9 419.065 98.196 421.177 96.788C423.289 95.38 424.921 93.46 426.073 91.028C427.289 88.596 427.897 85.876 427.897 82.868C427.897 79.796 427.289 77.044 426.073 74.612C424.921 72.18 423.289 70.26 421.177 68.852C419.065 67.444 416.601 66.74 413.785 66.74C411.033 66.74 408.601 67.444 406.489 68.852C404.377 70.26 402.713 72.18 401.497 74.612C400.345 77.044 399.769 79.796 399.769 82.868C399.769 85.876 400.345 88.596 401.497 91.028C402.713 93.46 404.377 95.38 406.489 96.788C408.601 98.196 411.033 98.9 413.785 98.9ZM463.89 102.644C463.89 104.308 463.314 105.716 462.162 106.868C461.074 107.956 459.698 108.5 458.034 108.5C456.434 108.5 455.09 107.956 454.002 106.868C452.914 105.716 452.37 104.308 452.37 102.644V43.316C452.37 41.652 452.914 40.276 454.002 39.188C455.154 38.036 456.562 37.46 458.226 37.46C459.89 37.46 461.234 38.036 462.258 39.188C463.346 40.276 463.89 41.652 463.89 43.316V102.644Z" fill="white"/>
<path d="M147.515 149.548V155.14H153.611V156.94H147.515V162.7H154.331V164.5H145.331V147.748H154.331V149.548H147.515ZM164.499 164.5L161.379 159.604L158.379 164.5H156.099L160.347 157.972L156.099 151.348H158.571L161.691 156.22L164.667 151.348H166.947L162.723 157.852L166.971 164.5H164.499ZM171.304 153.772C171.736 153.02 172.376 152.396 173.224 151.9C174.088 151.388 175.088 151.132 176.224 151.132C177.392 151.132 178.448 151.412 179.392 151.972C180.352 152.532 181.104 153.324 181.648 154.348C182.192 155.356 182.464 156.532 182.464 157.876C182.464 159.204 182.192 160.388 181.648 161.428C181.104 162.468 180.352 163.276 179.392 163.852C178.448 164.428 177.392 164.716 176.224 164.716C175.104 164.716 174.112 164.468 173.248 163.972C172.4 163.46 171.752 162.828 171.304 162.076V170.74H169.12V151.348H171.304V153.772ZM180.232 157.876C180.232 156.884 180.032 156.02 179.632 155.284C179.232 154.548 178.688 153.988 178 153.604C177.328 153.22 176.584 153.028 175.768 153.028C174.968 153.028 174.224 153.228 173.536 153.628C172.864 154.012 172.32 154.58 171.904 155.332C171.504 156.068 171.304 156.924 171.304 157.9C171.304 158.892 171.504 159.764 171.904 160.516C172.32 161.252 172.864 161.82 173.536 162.22C174.224 162.604 174.968 162.796 175.768 162.796C176.584 162.796 177.328 162.604 178 162.22C178.688 161.82 179.232 161.252 179.632 160.516C180.032 159.764 180.232 158.884 180.232 157.876ZM197.338 157.42C197.338 157.836 197.314 158.276 197.266 158.74H186.754C186.834 160.036 187.274 161.052 188.074 161.788C188.89 162.508 189.874 162.868 191.026 162.868C191.97 162.868 192.754 162.652 193.378 162.22C194.018 161.772 194.466 161.18 194.722 160.444H197.074C196.722 161.708 196.018 162.74 194.962 163.54C193.906 164.324 192.594 164.716 191.026 164.716C189.778 164.716 188.658 164.436 187.666 163.876C186.69 163.316 185.922 162.524 185.362 161.5C184.802 160.46 184.522 159.26 184.522 157.9C184.522 156.54 184.794 155.348 185.338 154.324C185.882 153.3 186.642 152.516 187.618 151.972C188.61 151.412 189.746 151.132 191.026 151.132C192.274 151.132 193.378 151.404 194.338 151.948C195.298 152.492 196.034 153.244 196.546 154.204C197.074 155.148 197.338 156.22 197.338 157.42ZM195.082 156.964C195.082 156.132 194.898 155.42 194.53 154.828C194.162 154.22 193.658 153.764 193.018 153.46C192.394 153.14 191.698 152.98 190.93 152.98C189.826 152.98 188.882 153.332 188.098 154.036C187.33 154.74 186.89 155.716 186.778 156.964H195.082ZM202.405 153.484C202.789 152.732 203.333 152.148 204.037 151.732C204.757 151.316 205.629 151.108 206.653 151.108V153.364H206.077C203.629 153.364 202.405 154.692 202.405 157.348V164.5H200.221V151.348H202.405V153.484ZM211.838 153.148V160.9C211.838 161.54 211.974 161.996 212.246 162.268C212.518 162.524 212.99 162.652 213.662 162.652H215.27V164.5H213.302C212.086 164.5 211.174 164.22 210.566 163.66C209.958 163.1 209.654 162.18 209.654 160.9V153.148H207.95V151.348H209.654V148.036H211.838V151.348H215.27V153.148H211.838ZM237.203 147.772V164.5H235.019V156.916H226.499V164.5H224.315V147.772H226.499V155.116H235.019V147.772H237.203ZM240.116 157.876C240.116 156.532 240.388 155.356 240.932 154.348C241.476 153.324 242.22 152.532 243.164 151.972C244.124 151.412 245.188 151.132 246.356 151.132C247.508 151.132 248.508 151.38 249.356 151.876C250.204 152.372 250.836 152.996 251.252 153.748V151.348H253.46V164.5H251.252V162.052C250.82 162.82 250.172 163.46 249.308 163.972C248.46 164.468 247.468 164.716 246.332 164.716C245.164 164.716 244.108 164.428 243.164 163.852C242.22 163.276 241.476 162.468 240.932 161.428C240.388 160.388 240.116 159.204 240.116 157.876ZM251.252 157.9C251.252 156.908 251.052 156.044 250.652 155.308C250.252 154.572 249.708 154.012 249.02 153.628C248.348 153.228 247.604 153.028 246.788 153.028C245.972 153.028 245.228 153.22 244.556 153.604C243.884 153.988 243.348 154.548 242.948 155.284C242.548 156.02 242.348 156.884 242.348 157.876C242.348 158.884 242.548 159.764 242.948 160.516C243.348 161.252 243.884 161.82 244.556 162.22C245.228 162.604 245.972 162.796 246.788 162.796C247.604 162.796 248.348 162.604 249.02 162.22C249.708 161.82 250.252 161.252 250.652 160.516C251.052 159.764 251.252 158.892 251.252 157.9ZM263.559 151.108C265.159 151.108 266.455 151.596 267.447 152.572C268.439 153.532 268.935 154.924 268.935 156.748V164.5H266.775V157.06C266.775 155.748 266.447 154.748 265.791 154.06C265.135 153.356 264.239 153.004 263.103 153.004C261.951 153.004 261.031 153.364 260.343 154.084C259.671 154.804 259.335 155.852 259.335 157.228V164.5H257.151V151.348H259.335V153.22C259.767 152.548 260.351 152.028 261.087 151.66C261.839 151.292 262.663 151.108 263.559 151.108ZM271.686 157.876C271.686 156.532 271.958 155.356 272.502 154.348C273.046 153.324 273.79 152.532 274.734 151.972C275.694 151.412 276.766 151.132 277.95 151.132C278.974 151.132 279.926 151.372 280.806 151.852C281.686 152.316 282.358 152.932 282.822 153.7V146.74H285.03V164.5H282.822V162.028C282.39 162.812 281.75 163.46 280.902 163.972C280.054 164.468 279.062 164.716 277.926 164.716C276.758 164.716 275.694 164.428 274.734 163.852C273.79 163.276 273.046 162.468 272.502 161.428C271.958 160.388 271.686 159.204 271.686 157.876ZM282.822 157.9C282.822 156.908 282.622 156.044 282.222 155.308C281.822 154.572 281.278 154.012 280.59 153.628C279.918 153.228 279.174 153.028 278.358 153.028C277.542 153.028 276.798 153.22 276.126 153.604C275.454 153.988 274.918 154.548 274.518 155.284C274.118 156.02 273.918 156.884 273.918 157.876C273.918 158.884 274.118 159.764 274.518 160.516C274.918 161.252 275.454 161.82 276.126 162.22C276.798 162.604 277.542 162.796 278.358 162.796C279.174 162.796 279.918 162.604 280.59 162.22C281.278 161.82 281.822 161.252 282.222 160.516C282.622 159.764 282.822 158.892 282.822 157.9ZM293.377 164.716C292.369 164.716 291.465 164.548 290.665 164.212C289.865 163.86 289.233 163.38 288.769 162.772C288.305 162.148 288.049 161.436 288.001 160.636H290.257C290.321 161.292 290.625 161.828 291.169 162.244C291.729 162.66 292.457 162.868 293.353 162.868C294.185 162.868 294.841 162.684 295.321 162.316C295.801 161.948 296.041 161.484 296.041 160.924C296.041 160.348 295.785 159.924 295.273 159.652C294.761 159.364 293.969 159.084 292.897 158.812C291.921 158.556 291.121 158.3 290.497 158.044C289.889 157.772 289.361 157.38 288.913 156.868C288.481 156.34 288.265 155.652 288.265 154.804C288.265 154.132 288.465 153.516 288.865 152.956C289.265 152.396 289.833 151.956 290.569 151.636C291.305 151.3 292.145 151.132 293.089 151.132C294.545 151.132 295.721 151.5 296.617 152.236C297.513 152.972 297.993 153.98 298.057 155.26H295.873C295.825 154.572 295.545 154.02 295.033 153.604C294.537 153.188 293.865 152.98 293.017 152.98C292.233 152.98 291.609 153.148 291.145 153.484C290.681 153.82 290.449 154.26 290.449 154.804C290.449 155.236 290.585 155.596 290.857 155.884C291.145 156.156 291.497 156.38 291.913 156.556C292.345 156.716 292.937 156.9 293.689 157.108C294.633 157.364 295.401 157.62 295.993 157.876C296.585 158.116 297.089 158.484 297.505 158.98C297.937 159.476 298.161 160.124 298.177 160.924C298.177 161.644 297.977 162.292 297.577 162.868C297.177 163.444 296.609 163.9 295.873 164.236C295.153 164.556 294.321 164.716 293.377 164.716ZM301.956 164.644C301.54 164.644 301.188 164.5 300.9 164.212C300.612 163.924 300.468 163.572 300.468 163.156C300.468 162.74 300.612 162.388 300.9 162.1C301.188 161.812 301.54 161.668 301.956 161.668C302.356 161.668 302.692 161.812 302.964 162.1C303.252 162.388 303.396 162.74 303.396 163.156C303.396 163.572 303.252 163.924 302.964 164.212C302.692 164.5 302.356 164.644 301.956 164.644ZM321.122 147.772V160.132C321.122 161.508 320.698 162.612 319.85 163.444C319.002 164.26 317.882 164.668 316.49 164.668C315.082 164.668 313.954 164.252 313.106 163.42C312.258 162.572 311.834 161.42 311.834 159.964H314.018C314.034 160.78 314.242 161.444 314.642 161.956C315.058 162.468 315.674 162.724 316.49 162.724C317.306 162.724 317.914 162.484 318.314 162.004C318.714 161.508 318.914 160.884 318.914 160.132V147.772H321.122ZM331.16 164.716C329.928 164.716 328.808 164.436 327.8 163.876C326.808 163.316 326.024 162.524 325.448 161.5C324.888 160.46 324.608 159.26 324.608 157.9C324.608 156.556 324.896 155.372 325.472 154.348C326.064 153.308 326.864 152.516 327.872 151.972C328.88 151.412 330.008 151.132 331.256 151.132C332.504 151.132 333.632 151.412 334.64 151.972C335.648 152.516 336.44 153.3 337.016 154.324C337.608 155.348 337.904 156.54 337.904 157.9C337.904 159.26 337.6 160.46 336.992 161.5C336.4 162.524 335.592 163.316 334.568 163.876C333.544 164.436 332.408 164.716 331.16 164.716ZM331.16 162.796C331.944 162.796 332.68 162.612 333.368 162.244C334.056 161.876 334.608 161.324 335.024 160.588C335.456 159.852 335.672 158.956 335.672 157.9C335.672 156.844 335.464 155.948 335.048 155.212C334.632 154.476 334.088 153.932 333.416 153.58C332.744 153.212 332.016 153.028 331.232 153.028C330.432 153.028 329.696 153.212 329.024 153.58C328.368 153.932 327.84 154.476 327.44 155.212C327.04 155.948 326.84 156.844 326.84 157.9C326.84 158.972 327.032 159.876 327.416 160.612C327.816 161.348 328.344 161.9 329 162.268C329.656 162.62 330.376 162.796 331.16 162.796ZM352.104 151.348L344.184 170.692H341.928L344.52 164.356L339.216 151.348H341.64L345.768 162.004L349.848 151.348H352.104ZM359.651 153.148H356.891V164.5H354.707V153.148H353.003V151.348H354.707V150.412C354.707 148.94 355.083 147.868 355.835 147.196C356.603 146.508 357.827 146.164 359.507 146.164V147.988C358.547 147.988 357.867 148.18 357.467 148.564C357.083 148.932 356.891 149.548 356.891 150.412V151.348H359.651V153.148ZM373.862 151.348V164.5H371.678V162.556C371.262 163.228 370.678 163.756 369.926 164.14C369.19 164.508 368.374 164.692 367.478 164.692C366.454 164.692 365.534 164.484 364.718 164.068C363.902 163.636 363.254 162.996 362.774 162.148C362.31 161.3 362.078 160.268 362.078 159.052V151.348H364.238V158.764C364.238 160.06 364.566 161.06 365.222 161.764C365.878 162.452 366.774 162.796 367.91 162.796C369.078 162.796 369.998 162.436 370.67 161.716C371.342 160.996 371.678 159.948 371.678 158.572V151.348H373.862ZM379.733 146.74V164.5H377.549V146.74H379.733ZM395.158 164.668C394.054 164.668 393.062 164.476 392.182 164.092C391.318 163.692 390.638 163.148 390.142 162.46C389.646 161.756 389.39 160.948 389.374 160.036H391.702C391.782 160.82 392.102 161.484 392.662 162.028C393.238 162.556 394.07 162.82 395.158 162.82C396.198 162.82 397.014 162.564 397.606 162.052C398.214 161.524 398.518 160.852 398.518 160.036C398.518 159.396 398.342 158.876 397.99 158.476C397.638 158.076 397.198 157.772 396.67 157.564C396.142 157.356 395.43 157.132 394.534 156.892C393.43 156.604 392.542 156.316 391.87 156.028C391.214 155.74 390.646 155.292 390.166 154.684C389.702 154.06 389.47 153.228 389.47 152.188C389.47 151.276 389.702 150.468 390.166 149.764C390.63 149.06 391.278 148.516 392.11 148.132C392.958 147.748 393.926 147.556 395.014 147.556C396.582 147.556 397.862 147.948 398.854 148.732C399.862 149.516 400.43 150.556 400.558 151.852H398.158C398.078 151.212 397.742 150.652 397.15 150.172C396.558 149.676 395.774 149.428 394.798 149.428C393.886 149.428 393.142 149.668 392.566 150.148C391.99 150.612 391.702 151.268 391.702 152.116C391.702 152.724 391.87 153.22 392.206 153.604C392.558 153.988 392.982 154.284 393.478 154.492C393.99 154.684 394.702 154.908 395.614 155.164C396.718 155.468 397.606 155.772 398.278 156.076C398.95 156.364 399.526 156.82 400.006 157.444C400.486 158.052 400.726 158.884 400.726 159.94C400.726 160.756 400.51 161.524 400.078 162.244C399.646 162.964 399.006 163.548 398.158 163.996C397.31 164.444 396.31 164.668 395.158 164.668ZM419.756 151.108C420.78 151.108 421.692 151.324 422.492 151.756C423.292 152.172 423.924 152.804 424.388 153.652C424.852 154.5 425.084 155.532 425.084 156.748V164.5H422.924V157.06C422.924 155.748 422.596 154.748 421.94 154.06C421.3 153.356 420.428 153.004 419.324 153.004C418.188 153.004 417.284 153.372 416.612 154.108C415.94 154.828 415.604 155.876 415.604 157.252V164.5H413.444V157.06C413.444 155.748 413.116 154.748 412.46 154.06C411.82 153.356 410.948 153.004 409.844 153.004C408.708 153.004 407.804 153.372 407.132 154.108C406.46 154.828 406.124 155.876 406.124 157.252V164.5H403.94V151.348H406.124V153.244C406.556 152.556 407.132 152.028 407.852 151.66C408.588 151.292 409.396 151.108 410.276 151.108C411.38 151.108 412.356 151.356 413.204 151.852C414.052 152.348 414.684 153.076 415.1 154.036C415.468 153.108 416.076 152.388 416.924 151.876C417.772 151.364 418.716 151.108 419.756 151.108ZM429.794 149.212C429.378 149.212 429.026 149.068 428.738 148.78C428.45 148.492 428.306 148.14 428.306 147.724C428.306 147.308 428.45 146.956 428.738 146.668C429.026 146.38 429.378 146.236 429.794 146.236C430.194 146.236 430.53 146.38 430.802 146.668C431.09 146.956 431.234 147.308 431.234 147.724C431.234 148.14 431.09 148.492 430.802 148.78C430.53 149.068 430.194 149.212 429.794 149.212ZM430.85 151.348V164.5H428.666V151.348H430.85ZM436.757 146.74V164.5H434.573V146.74H436.757ZM452.479 157.42C452.479 157.836 452.455 158.276 452.407 158.74H441.895C441.975 160.036 442.415 161.052 443.215 161.788C444.031 162.508 445.015 162.868 446.167 162.868C447.111 162.868 447.895 162.652 448.519 162.22C449.159 161.772 449.607 161.18 449.863 160.444H452.215C451.863 161.708 451.159 162.74 450.103 163.54C449.047 164.324 447.735 164.716 446.167 164.716C444.919 164.716 443.799 164.436 442.807 163.876C441.831 163.316 441.063 162.524 440.503 161.5C439.943 160.46 439.663 159.26 439.663 157.9C439.663 156.54 439.935 155.348 440.479 154.324C441.023 153.3 441.783 152.516 442.759 151.972C443.751 151.412 444.887 151.132 446.167 151.132C447.415 151.132 448.519 151.404 449.479 151.948C450.439 152.492 451.175 153.244 451.687 154.204C452.215 155.148 452.479 156.22 452.479 157.42ZM450.223 156.964C450.223 156.132 450.039 155.42 449.671 154.828C449.303 154.22 448.799 153.764 448.159 153.46C447.535 153.14 446.839 152.98 446.071 152.98C444.967 152.98 444.023 153.332 443.239 154.036C442.471 154.74 442.031 155.716 441.919 156.964H450.223ZM460.018 164.716C459.01 164.716 458.106 164.548 457.306 164.212C456.506 163.86 455.874 163.38 455.41 162.772C454.946 162.148 454.69 161.436 454.642 160.636H456.898C456.962 161.292 457.266 161.828 457.81 162.244C458.37 162.66 459.098 162.868 459.994 162.868C460.826 162.868 461.482 162.684 461.962 162.316C462.442 161.948 462.682 161.484 462.682 160.924C462.682 160.348 462.426 159.924 461.914 159.652C461.402 159.364 460.61 159.084 459.538 158.812C458.562 158.556 457.762 158.3 457.138 158.044C456.53 157.772 456.002 157.38 455.554 156.868C455.122 156.34 454.906 155.652 454.906 154.804C454.906 154.132 455.106 153.516 455.506 152.956C455.906 152.396 456.474 151.956 457.21 151.636C457.946 151.3 458.786 151.132 459.73 151.132C461.186 151.132 462.362 151.5 463.258 152.236C464.154 152.972 464.634 153.98 464.698 155.26H462.514C462.466 154.572 462.186 154.02 461.674 153.604C461.178 153.188 460.506 152.98 459.658 152.98C458.874 152.98 458.25 153.148 457.786 153.484C457.322 153.82 457.09 154.26 457.09 154.804C457.09 155.236 457.226 155.596 457.498 155.884C457.786 156.156 458.138 156.38 458.554 156.556C458.986 156.716 459.578 156.9 460.33 157.108C461.274 157.364 462.042 157.62 462.634 157.876C463.226 158.116 463.73 158.484 464.146 158.98C464.578 159.476 464.802 160.124 464.818 160.924C464.818 161.644 464.618 162.292 464.218 162.868C463.818 163.444 463.25 163.9 462.514 164.236C461.794 164.556 460.962 164.716 460.018 164.716ZM468.597 164.644C468.181 164.644 467.829 164.5 467.541 164.212C467.253 163.924 467.109 163.572 467.109 163.156C467.109 162.74 467.253 162.388 467.541 162.1C467.829 161.812 468.181 161.668 468.597 161.668C468.997 161.668 469.333 161.812 469.605 162.1C469.893 162.388 470.037 162.74 470.037 163.156C470.037 163.572 469.893 163.924 469.605 164.212C469.333 164.5 468.997 164.644 468.597 164.644Z" fill="white"/>
<path d="M13.4825 157L124.483 156.513" stroke="white"/>
<path d="M13.4825 0.5H460.483" stroke="white"/>
</svg>
