<svg width="464" height="167" viewBox="0 0 464 167" fill="none" xmlns="http://www.w3.org/2000/svg">
<path d="M21.12 109.46C21.12 113.108 20.416 116.244 19.008 118.868C17.6 121.556 15.712 123.636 13.344 125.108C10.976 126.58 8.32001 127.316 5.37601 127.316C3.77601 127.316 2.49601 126.772 1.53601 125.684C0.512013 124.66 1.32918e-05 123.412 1.32918e-05 121.94V120.884C1.32918e-05 119.476 0.480013 118.356 1.44001 117.524C2.33601 116.692 3.48801 116.052 4.89601 115.604C6.43201 115.092 7.52001 114.356 8.16001 113.396C8.80001 112.5 9.18401 111.412 9.31201 110.132C9.50401 108.852 9.60001 107.508 9.60001 106.1V62.996C9.60001 61.332 10.144 59.956 11.232 58.868C12.32 57.716 13.696 57.14 15.36 57.14C17.024 57.14 18.4 57.716 19.488 58.868C20.576 59.956 21.12 61.332 21.12 62.996V109.46ZM15.168 50.9C12.992 50.9 11.456 50.548 10.56 49.844C9.66401 49.14 9.21601 47.892 9.21601 46.1V44.276C9.21601 42.42 9.69601 41.172 10.656 40.532C11.68 39.828 13.216 39.476 15.264 39.476C17.504 39.476 19.072 39.828 19.968 40.532C20.864 41.236 21.312 42.484 21.312 44.276V46.1C21.312 47.956 20.832 49.236 19.872 49.94C18.912 50.58 17.344 50.9 15.168 50.9ZM84.4215 82.868C84.4215 88.116 83.2375 92.756 80.8695 96.788C78.5655 100.756 75.4295 103.86 71.4615 106.1C67.5575 108.34 63.1735 109.46 58.3095 109.46C53.4455 109.46 49.0295 108.34 45.0615 106.1C41.1575 103.86 38.0215 100.756 35.6535 96.788C33.3495 92.756 32.1975 88.116 32.1975 82.868C32.1975 77.62 33.3495 73.012 35.6535 69.044C38.0215 65.012 41.1575 61.876 45.0615 59.636C49.0295 57.332 53.4455 56.18 58.3095 56.18C63.1735 56.18 67.5575 57.332 71.4615 59.636C75.4295 61.876 78.5655 65.012 80.8695 69.044C83.2375 73.012 84.4215 77.62 84.4215 82.868ZM72.9015 82.868C72.9015 79.604 72.2295 76.788 70.8855 74.42C69.6055 71.988 67.8455 70.1 65.6055 68.756C63.4295 67.412 60.9975 66.74 58.3095 66.74C55.6215 66.74 53.1575 67.412 50.9175 68.756C48.7415 70.1 46.9815 71.988 45.6375 74.42C44.3575 76.788 43.7175 79.604 43.7175 82.868C43.7175 86.068 44.3575 88.884 45.6375 91.316C46.9815 93.684 48.7415 95.54 50.9175 96.884C53.1575 98.228 55.6215 98.9 58.3095 98.9C60.9975 98.9 63.4295 98.228 65.6055 96.884C67.8455 95.54 69.6055 93.684 70.8855 91.316C72.2295 88.884 72.9015 86.068 72.9015 82.868ZM132.616 57.14C134.28 57.14 135.656 57.716 136.744 58.868C137.832 59.956 138.376 61.332 138.376 62.996V103.796C138.376 109.684 137.256 114.356 135.016 117.812C132.84 121.332 129.896 123.86 126.184 125.396C122.472 126.932 118.312 127.7 113.704 127.7C111.656 127.7 109.48 127.54 107.176 127.22C104.872 126.9 102.984 126.42 101.512 125.78C99.5918 124.948 98.2478 123.892 97.4798 122.612C96.7758 121.396 96.6478 120.084 97.0958 118.676C97.6718 116.82 98.5998 115.54 99.8798 114.836C101.16 114.196 102.504 114.132 103.912 114.644C104.936 114.964 106.28 115.444 107.944 116.084C109.608 116.788 111.528 117.14 113.704 117.14C116.648 117.14 119.08 116.724 121 115.892C122.984 115.124 124.456 113.78 125.416 111.86C126.44 110.004 126.952 107.444 126.952 104.18V97.748L128.968 100.052C127.88 102.164 126.504 103.924 124.84 105.332C123.24 106.676 121.32 107.7 119.08 108.404C116.84 109.108 114.28 109.46 111.4 109.46C108.008 109.46 105.032 108.692 102.472 107.156C99.9758 105.556 98.0238 103.38 96.6158 100.628C95.2078 97.812 94.5038 94.612 94.5038 91.028V62.996C94.5038 61.332 95.0478 59.956 96.1358 58.868C97.2238 57.716 98.5998 57.14 100.264 57.14C101.928 57.14 103.304 57.716 104.392 58.868C105.48 59.956 106.024 61.332 106.024 62.996V87.572C106.024 91.732 106.92 94.676 108.712 96.404C110.568 98.068 113.128 98.9 116.392 98.9C118.632 98.9 120.52 98.484 122.056 97.652C123.592 96.756 124.776 95.476 125.608 93.812C126.44 92.084 126.856 90.004 126.856 87.572V62.996C126.856 61.332 127.4 59.956 128.488 58.868C129.576 57.716 130.952 57.14 132.616 57.14ZM219.802 37.46C221.466 37.46 222.842 38.004 223.93 39.092C225.018 40.18 225.562 41.588 225.562 43.316V102.644C225.562 104.308 225.018 105.716 223.93 106.868C222.842 107.956 221.466 108.5 219.802 108.5C218.138 108.5 216.762 107.956 215.674 106.868C214.586 105.716 214.042 104.308 214.042 102.644V97.94L216.154 98.804C216.154 99.636 215.706 100.66 214.81 101.876C213.914 103.028 212.698 104.18 211.162 105.332C209.626 106.484 207.802 107.476 205.69 108.308C203.642 109.076 201.402 109.46 198.97 109.46C194.554 109.46 190.554 108.34 186.97 106.1C183.386 103.796 180.538 100.66 178.426 96.692C176.378 92.66 175.354 88.052 175.354 82.868C175.354 77.62 176.378 73.012 178.426 69.044C180.538 65.012 183.354 61.876 186.874 59.636C190.394 57.332 194.298 56.18 198.586 56.18C201.338 56.18 203.866 56.596 206.17 57.428C208.474 58.26 210.458 59.316 212.122 60.596C213.85 61.876 215.162 63.188 216.058 64.532C217.018 65.812 217.498 66.9 217.498 67.796L214.042 69.044V43.316C214.042 41.652 214.586 40.276 215.674 39.188C216.762 38.036 218.138 37.46 219.802 37.46ZM200.41 98.9C203.226 98.9 205.69 98.196 207.802 96.788C209.914 95.38 211.546 93.46 212.698 91.028C213.914 88.596 214.522 85.876 214.522 82.868C214.522 79.796 213.914 77.044 212.698 74.612C211.546 72.18 209.914 70.26 207.802 68.852C205.69 67.444 203.226 66.74 200.41 66.74C197.658 66.74 195.226 67.444 193.114 68.852C191.002 70.26 189.338 72.18 188.122 74.612C186.97 77.044 186.394 79.796 186.394 82.868C186.394 85.876 186.97 88.596 188.122 91.028C189.338 93.46 191.002 95.38 193.114 96.788C195.226 98.196 197.658 98.9 200.41 98.9ZM262.227 109.46C256.787 109.46 252.051 108.34 248.019 106.1C244.051 103.796 240.979 100.692 238.803 96.788C236.691 92.884 235.635 88.468 235.635 83.54C235.635 77.78 236.787 72.884 239.091 68.852C241.459 64.756 244.531 61.62 248.307 59.444C252.083 57.268 256.083 56.18 260.307 56.18C263.571 56.18 266.643 56.852 269.523 58.196C272.467 59.54 275.059 61.396 277.299 63.764C279.539 66.068 281.299 68.756 282.579 71.828C283.923 74.9 284.595 78.164 284.595 81.62C284.531 83.156 283.923 84.404 282.771 85.364C281.619 86.324 280.275 86.804 278.739 86.804H242.067L239.187 77.204H274.419L272.307 79.124V76.532C272.179 74.676 271.507 73.012 270.291 71.54C269.139 70.068 267.667 68.916 265.875 68.084C264.147 67.188 262.291 66.74 260.307 66.74C258.387 66.74 256.595 66.996 254.931 67.508C253.267 68.02 251.827 68.884 250.611 70.1C249.395 71.316 248.435 72.948 247.731 74.996C247.027 77.044 246.675 79.636 246.675 82.772C246.675 86.228 247.379 89.172 248.787 91.604C250.259 93.972 252.115 95.796 254.355 97.076C256.659 98.292 259.091 98.9 261.651 98.9C264.019 98.9 265.907 98.708 267.315 98.324C268.723 97.94 269.843 97.492 270.675 96.98C271.571 96.404 272.371 95.924 273.075 95.54C274.227 94.964 275.315 94.676 276.339 94.676C277.747 94.676 278.899 95.156 279.795 96.116C280.755 97.076 281.235 98.196 281.235 99.476C281.235 101.204 280.339 102.772 278.547 104.18C276.883 105.588 274.547 106.836 271.539 107.924C268.531 108.948 265.427 109.46 262.227 109.46ZM322.116 56.18C326.852 56.18 330.436 57.172 332.868 59.156C335.364 61.14 337.06 63.796 337.956 67.124C338.916 70.388 339.396 74.036 339.396 78.068V102.644C339.396 104.308 338.852 105.716 337.764 106.868C336.676 107.956 335.3 108.5 333.636 108.5C331.972 108.5 330.596 107.956 329.508 106.868C328.42 105.716 327.876 104.308 327.876 102.644V78.068C327.876 75.956 327.588 74.068 327.012 72.404C326.5 70.676 325.54 69.3 324.132 68.276C322.724 67.252 320.708 66.74 318.084 66.74C315.524 66.74 313.348 67.252 311.556 68.276C309.828 69.3 308.484 70.676 307.524 72.404C306.628 74.068 306.18 75.956 306.18 78.068V102.644C306.18 104.308 305.636 105.716 304.548 106.868C303.46 107.956 302.084 108.5 300.42 108.5C298.756 108.5 297.38 107.956 296.292 106.868C295.204 105.716 294.66 104.308 294.66 102.644V62.996C294.66 61.332 295.204 59.956 296.292 58.868C297.38 57.716 298.756 57.14 300.42 57.14C302.084 57.14 303.46 57.716 304.548 58.868C305.636 59.956 306.18 61.332 306.18 62.996V67.124L304.74 66.836C305.316 65.748 306.148 64.596 307.236 63.38C308.324 62.1 309.604 60.916 311.076 59.828C312.548 58.74 314.212 57.876 316.068 57.236C317.924 56.532 319.94 56.18 322.116 56.18ZM352.424 58.1H375.176C376.712 58.1 377.992 58.612 379.016 59.636C380.04 60.66 380.552 61.94 380.552 63.476C380.552 64.948 380.04 66.196 379.016 67.22C377.992 68.18 376.712 68.66 375.176 68.66H352.424C350.888 68.66 349.608 68.148 348.584 67.124C347.56 66.1 347.048 64.82 347.048 63.284C347.048 61.812 347.56 60.596 348.584 59.636C349.608 58.612 350.888 58.1 352.424 58.1ZM362.696 46.1C364.36 46.1 365.704 46.676 366.728 47.828C367.816 48.916 368.36 50.292 368.36 51.956V94.676C368.36 95.572 368.52 96.308 368.84 96.884C369.224 97.46 369.704 97.876 370.28 98.132C370.92 98.388 371.592 98.516 372.296 98.516C373.064 98.516 373.768 98.388 374.408 98.132C375.048 97.812 375.784 97.652 376.616 97.652C377.512 97.652 378.312 98.068 379.016 98.9C379.784 99.732 380.168 100.884 380.168 102.356C380.168 104.148 379.176 105.62 377.192 106.772C375.272 107.924 373.192 108.5 370.952 108.5C369.608 108.5 368.104 108.404 366.44 108.212C364.84 107.956 363.304 107.412 361.832 106.58C360.424 105.684 359.24 104.34 358.28 102.548C357.32 100.756 356.84 98.292 356.84 95.156V51.956C356.84 50.292 357.384 48.916 358.472 47.828C359.624 46.676 361.032 46.1 362.696 46.1ZM433.177 56.18C434.841 56.18 436.217 56.724 437.305 57.812C438.393 58.9 438.937 60.308 438.937 62.036V102.644C438.937 104.308 438.393 105.716 437.305 106.868C436.217 107.956 434.841 108.5 433.177 108.5C431.513 108.5 430.137 107.956 429.049 106.868C427.961 105.716 427.417 104.308 427.417 102.644V97.94L429.529 98.804C429.529 99.636 429.081 100.66 428.185 101.876C427.289 103.028 426.073 104.18 424.537 105.332C423.001 106.484 421.177 107.476 419.065 108.308C417.017 109.076 414.777 109.46 412.345 109.46C407.929 109.46 403.929 108.34 400.345 106.1C396.761 103.796 393.913 100.66 391.801 96.692C389.753 92.66 388.729 88.052 388.729 82.868C388.729 77.62 389.753 73.012 391.801 69.044C393.913 65.012 396.729 61.876 400.249 59.636C403.769 57.332 407.673 56.18 411.961 56.18C414.713 56.18 417.241 56.596 419.545 57.428C421.849 58.26 423.833 59.316 425.497 60.596C427.225 61.876 428.537 63.188 429.433 64.532C430.393 65.812 430.873 66.9 430.873 67.796L427.417 69.044V62.036C427.417 60.372 427.961 58.996 429.049 57.908C430.137 56.756 431.513 56.18 433.177 56.18ZM413.785 98.9C416.601 98.9 419.065 98.196 421.177 96.788C423.289 95.38 424.921 93.46 426.073 91.028C427.289 88.596 427.897 85.876 427.897 82.868C427.897 79.796 427.289 77.044 426.073 74.612C424.921 72.18 423.289 70.26 421.177 68.852C419.065 67.444 416.601 66.74 413.785 66.74C411.033 66.74 408.601 67.444 406.489 68.852C404.377 70.26 402.713 72.18 401.497 74.612C400.345 77.044 399.769 79.796 399.769 82.868C399.769 85.876 400.345 88.596 401.497 91.028C402.713 93.46 404.377 95.38 406.489 96.788C408.601 98.196 411.033 98.9 413.785 98.9ZM463.89 102.644C463.89 104.308 463.314 105.716 462.162 106.868C461.074 107.956 459.698 108.5 458.034 108.5C456.434 108.5 455.09 107.956 454.002 106.868C452.914 105.716 452.37 104.308 452.37 102.644V43.316C452.37 41.652 452.914 40.276 454.002 39.188C455.154 38.036 456.562 37.46 458.226 37.46C459.89 37.46 461.234 38.036 462.258 39.188C463.346 40.276 463.89 41.652 463.89 43.316V102.644Z" fill="white"/>
<path d="M136.171 152.532V156.26H140.235V157.46H136.171V161.3H140.715V162.5H134.715V151.332H140.715V152.532H136.171ZM147.494 162.5L145.414 159.236L143.414 162.5H141.894L144.726 158.148L141.894 153.732H143.542L145.622 156.98L147.606 153.732H149.126L146.31 158.068L149.142 162.5H147.494ZM152.03 155.348C152.318 154.847 152.745 154.431 153.31 154.1C153.886 153.759 154.553 153.588 155.31 153.588C156.089 153.588 156.793 153.775 157.422 154.148C158.062 154.521 158.563 155.049 158.926 155.732C159.289 156.404 159.47 157.188 159.47 158.084C159.47 158.969 159.289 159.759 158.926 160.452C158.563 161.145 158.062 161.684 157.422 162.068C156.793 162.452 156.089 162.644 155.31 162.644C154.563 162.644 153.902 162.479 153.326 162.148C152.761 161.807 152.329 161.385 152.03 160.884V166.66H150.574V153.732H152.03V155.348ZM157.982 158.084C157.982 157.423 157.849 156.847 157.582 156.356C157.315 155.865 156.953 155.492 156.494 155.236C156.046 154.98 155.55 154.852 155.006 154.852C154.473 154.852 153.977 154.985 153.518 155.252C153.07 155.508 152.707 155.887 152.43 156.388C152.163 156.879 152.03 157.449 152.03 158.1C152.03 158.761 152.163 159.343 152.43 159.844C152.707 160.335 153.07 160.713 153.518 160.98C153.977 161.236 154.473 161.364 155.006 161.364C155.55 161.364 156.046 161.236 156.494 160.98C156.953 160.713 157.315 160.335 157.582 159.844C157.849 159.343 157.982 158.756 157.982 158.084ZM169.386 157.78C169.386 158.057 169.37 158.351 169.338 158.66H162.33C162.384 159.524 162.677 160.201 163.21 160.692C163.754 161.172 164.41 161.412 165.178 161.412C165.808 161.412 166.33 161.268 166.746 160.98C167.173 160.681 167.472 160.287 167.642 159.796H169.21C168.976 160.639 168.506 161.327 167.802 161.86C167.098 162.383 166.224 162.644 165.178 162.644C164.346 162.644 163.6 162.457 162.938 162.084C162.288 161.711 161.776 161.183 161.402 160.5C161.029 159.807 160.842 159.007 160.842 158.1C160.842 157.193 161.024 156.399 161.386 155.716C161.749 155.033 162.256 154.511 162.906 154.148C163.568 153.775 164.325 153.588 165.178 153.588C166.01 153.588 166.746 153.769 167.386 154.132C168.026 154.495 168.517 154.996 168.858 155.636C169.21 156.265 169.386 156.98 169.386 157.78ZM167.882 157.476C167.882 156.921 167.76 156.447 167.514 156.052C167.269 155.647 166.933 155.343 166.506 155.14C166.09 154.927 165.626 154.82 165.114 154.82C164.378 154.82 163.749 155.055 163.226 155.524C162.714 155.993 162.421 156.644 162.346 157.476H167.882ZM172.764 155.156C173.02 154.655 173.383 154.265 173.852 153.988C174.332 153.711 174.914 153.572 175.596 153.572V155.076H175.212C173.58 155.076 172.764 155.961 172.764 157.732V162.5H171.308V153.732H172.764V155.156ZM179.053 154.932V160.1C179.053 160.527 179.144 160.831 179.325 161.012C179.506 161.183 179.821 161.268 180.269 161.268H181.341V162.5H180.029C179.218 162.5 178.61 162.313 178.205 161.94C177.8 161.567 177.597 160.953 177.597 160.1V154.932H176.461V153.732H177.597V151.524H179.053V153.732H181.341V154.932H179.053ZM195.963 151.348V162.5H194.507V157.444H188.827V162.5H187.371V151.348H188.827V156.244H194.507V151.348H195.963ZM197.905 158.084C197.905 157.188 198.086 156.404 198.449 155.732C198.812 155.049 199.308 154.521 199.937 154.148C200.577 153.775 201.286 153.588 202.065 153.588C202.833 153.588 203.5 153.753 204.065 154.084C204.63 154.415 205.052 154.831 205.329 155.332V153.732H206.801V162.5H205.329V160.868C205.041 161.38 204.609 161.807 204.033 162.148C203.468 162.479 202.806 162.644 202.049 162.644C201.27 162.644 200.566 162.452 199.937 162.068C199.308 161.684 198.812 161.145 198.449 160.452C198.086 159.759 197.905 158.969 197.905 158.084ZM205.329 158.1C205.329 157.439 205.196 156.863 204.929 156.372C204.662 155.881 204.3 155.508 203.841 155.252C203.393 154.985 202.897 154.852 202.353 154.852C201.809 154.852 201.313 154.98 200.865 155.236C200.417 155.492 200.06 155.865 199.793 156.356C199.526 156.847 199.393 157.423 199.393 158.084C199.393 158.756 199.526 159.343 199.793 159.844C200.06 160.335 200.417 160.713 200.865 160.98C201.313 161.236 201.809 161.364 202.353 161.364C202.897 161.364 203.393 161.236 203.841 160.98C204.3 160.713 204.662 160.335 204.929 159.844C205.196 159.343 205.329 158.761 205.329 158.1ZM213.533 153.572C214.6 153.572 215.464 153.897 216.125 154.548C216.787 155.188 217.117 156.116 217.117 157.332V162.5H215.677V157.54C215.677 156.665 215.459 155.999 215.021 155.54C214.584 155.071 213.987 154.836 213.229 154.836C212.461 154.836 211.848 155.076 211.389 155.556C210.941 156.036 210.717 156.735 210.717 157.652V162.5H209.261V153.732H210.717V154.98C211.005 154.532 211.395 154.185 211.885 153.94C212.387 153.695 212.936 153.572 213.533 153.572ZM218.952 158.084C218.952 157.188 219.133 156.404 219.496 155.732C219.858 155.049 220.354 154.521 220.984 154.148C221.624 153.775 222.338 153.588 223.128 153.588C223.81 153.588 224.445 153.748 225.032 154.068C225.618 154.377 226.066 154.788 226.376 155.3V150.66H227.848V162.5H226.376V160.852C226.088 161.375 225.661 161.807 225.096 162.148C224.53 162.479 223.869 162.644 223.112 162.644C222.333 162.644 221.624 162.452 220.984 162.068C220.354 161.684 219.858 161.145 219.496 160.452C219.133 159.759 218.952 158.969 218.952 158.084ZM226.376 158.1C226.376 157.439 226.242 156.863 225.976 156.372C225.709 155.881 225.346 155.508 224.888 155.252C224.44 154.985 223.944 154.852 223.4 154.852C222.856 154.852 222.36 154.98 221.912 155.236C221.464 155.492 221.106 155.865 220.84 156.356C220.573 156.847 220.44 157.423 220.44 158.084C220.44 158.756 220.573 159.343 220.84 159.844C221.106 160.335 221.464 160.713 221.912 160.98C222.36 161.236 222.856 161.364 223.4 161.364C223.944 161.364 224.44 161.236 224.888 160.98C225.346 160.713 225.709 160.335 225.976 159.844C226.242 159.343 226.376 158.761 226.376 158.1ZM233.412 162.644C232.74 162.644 232.138 162.532 231.604 162.308C231.071 162.073 230.65 161.753 230.34 161.348C230.031 160.932 229.86 160.457 229.828 159.924H231.332C231.375 160.361 231.578 160.719 231.94 160.996C232.314 161.273 232.799 161.412 233.396 161.412C233.951 161.412 234.388 161.289 234.708 161.044C235.028 160.799 235.188 160.489 235.188 160.116C235.188 159.732 235.018 159.449 234.676 159.268C234.335 159.076 233.807 158.889 233.092 158.708C232.442 158.537 231.908 158.367 231.492 158.196C231.087 158.015 230.735 157.753 230.436 157.412C230.148 157.06 230.004 156.601 230.004 156.036C230.004 155.588 230.138 155.177 230.404 154.804C230.671 154.431 231.05 154.137 231.54 153.924C232.031 153.7 232.591 153.588 233.22 153.588C234.191 153.588 234.975 153.833 235.572 154.324C236.17 154.815 236.49 155.487 236.532 156.34H235.076C235.044 155.881 234.858 155.513 234.516 155.236C234.186 154.959 233.738 154.82 233.172 154.82C232.65 154.82 232.234 154.932 231.924 155.156C231.615 155.38 231.46 155.673 231.46 156.036C231.46 156.324 231.551 156.564 231.732 156.756C231.924 156.937 232.159 157.087 232.436 157.204C232.724 157.311 233.119 157.433 233.62 157.572C234.25 157.743 234.762 157.913 235.156 158.084C235.551 158.244 235.887 158.489 236.164 158.82C236.452 159.151 236.602 159.583 236.612 160.116C236.612 160.596 236.479 161.028 236.212 161.412C235.946 161.796 235.567 162.1 235.076 162.324C234.596 162.537 234.042 162.644 233.412 162.644ZM239.132 162.596C238.854 162.596 238.62 162.5 238.428 162.308C238.236 162.116 238.14 161.881 238.14 161.604C238.14 161.327 238.236 161.092 238.428 160.9C238.62 160.708 238.854 160.612 239.132 160.612C239.398 160.612 239.622 160.708 239.804 160.9C239.996 161.092 240.092 161.327 240.092 161.604C240.092 161.881 239.996 162.116 239.804 162.308C239.622 162.5 239.398 162.596 239.132 162.596ZM254.741 154.58C254.431 153.929 253.983 153.428 253.397 153.076C252.81 152.713 252.127 152.532 251.349 152.532C250.57 152.532 249.866 152.713 249.237 153.076C248.618 153.428 248.127 153.94 247.765 154.612C247.413 155.273 247.237 156.041 247.237 156.916C247.237 157.791 247.413 158.559 247.765 159.22C248.127 159.881 248.618 160.393 249.237 160.756C249.866 161.108 250.57 161.284 251.349 161.284C252.437 161.284 253.333 160.959 254.037 160.308C254.741 159.657 255.151 158.777 255.269 157.668H250.821V156.484H256.821V157.604C256.735 158.521 256.447 159.364 255.957 160.132C255.466 160.889 254.821 161.492 254.021 161.94C253.221 162.377 252.33 162.596 251.349 162.596C250.314 162.596 249.37 162.356 248.517 161.876C247.663 161.385 246.986 160.708 246.485 159.844C245.994 158.98 245.749 158.004 245.749 156.916C245.749 155.828 245.994 154.852 246.485 153.988C246.986 153.113 247.663 152.436 248.517 151.956C249.37 151.465 250.314 151.22 251.349 151.22C252.533 151.22 253.578 151.513 254.485 152.1C255.402 152.687 256.069 153.513 256.485 154.58H254.741ZM266.746 157.78C266.746 158.057 266.73 158.351 266.698 158.66H259.69C259.743 159.524 260.036 160.201 260.57 160.692C261.114 161.172 261.77 161.412 262.538 161.412C263.167 161.412 263.69 161.268 264.106 160.98C264.532 160.681 264.831 160.287 265.002 159.796H266.57C266.335 160.639 265.866 161.327 265.162 161.86C264.458 162.383 263.583 162.644 262.538 162.644C261.706 162.644 260.959 162.457 260.298 162.084C259.647 161.711 259.135 161.183 258.762 160.5C258.388 159.807 258.202 159.007 258.202 158.1C258.202 157.193 258.383 156.399 258.746 155.716C259.108 155.033 259.615 154.511 260.266 154.148C260.927 153.775 261.684 153.588 262.538 153.588C263.37 153.588 264.106 153.769 264.746 154.132C265.386 154.495 265.876 154.996 266.218 155.636C266.57 156.265 266.746 156.98 266.746 157.78ZM265.242 157.476C265.242 156.921 265.119 156.447 264.874 156.052C264.628 155.647 264.292 155.343 263.866 155.14C263.45 154.927 262.986 154.82 262.474 154.82C261.738 154.82 261.108 155.055 260.586 155.524C260.074 155.993 259.78 156.644 259.706 157.476H265.242ZM272.94 153.572C274.006 153.572 274.87 153.897 275.532 154.548C276.193 155.188 276.524 156.116 276.524 157.332V162.5H275.084V157.54C275.084 156.665 274.865 155.999 274.428 155.54C273.99 155.071 273.393 154.836 272.636 154.836C271.868 154.836 271.254 155.076 270.796 155.556C270.348 156.036 270.124 156.735 270.124 157.652V162.5H268.668V153.732H270.124V154.98C270.412 154.532 270.801 154.185 271.292 153.94C271.793 153.695 272.342 153.572 272.94 153.572ZM280.678 154.932V160.1C280.678 160.527 280.769 160.831 280.95 161.012C281.131 161.183 281.446 161.268 281.894 161.268H282.966V162.5H281.654C280.843 162.5 280.235 162.313 279.83 161.94C279.425 161.567 279.222 160.953 279.222 160.1V154.932H278.086V153.732H279.222V151.524H280.678V153.732H282.966V154.932H280.678ZM286.186 150.66V162.5H284.73V150.66H286.186ZM296.668 157.78C296.668 158.057 296.652 158.351 296.62 158.66H289.612C289.665 159.524 289.958 160.201 290.492 160.692C291.036 161.172 291.692 161.412 292.46 161.412C293.089 161.412 293.612 161.268 294.028 160.98C294.454 160.681 294.753 160.287 294.924 159.796H296.492C296.257 160.639 295.788 161.327 295.084 161.86C294.38 162.383 293.505 162.644 292.46 162.644C291.628 162.644 290.881 162.457 290.22 162.084C289.569 161.711 289.057 161.183 288.684 160.5C288.31 159.807 288.124 159.007 288.124 158.1C288.124 157.193 288.305 156.399 288.668 155.716C289.03 155.033 289.537 154.511 290.188 154.148C290.849 153.775 291.606 153.588 292.46 153.588C293.292 153.588 294.028 153.769 294.668 154.132C295.308 154.495 295.798 154.996 296.14 155.636C296.492 156.265 296.668 156.98 296.668 157.78ZM295.164 157.476C295.164 156.921 295.041 156.447 294.796 156.052C294.55 155.647 294.214 155.343 293.788 155.14C293.372 154.927 292.908 154.82 292.396 154.82C291.66 154.82 291.03 155.055 290.508 155.524C289.996 155.993 289.702 156.644 289.628 157.476H295.164ZM302.311 156.916C302.311 155.828 302.556 154.852 303.047 153.988C303.538 153.113 304.204 152.431 305.047 151.94C305.9 151.449 306.844 151.204 307.879 151.204C309.095 151.204 310.156 151.497 311.063 152.084C311.97 152.671 312.631 153.503 313.047 154.58H311.303C310.994 153.908 310.546 153.391 309.959 153.028C309.383 152.665 308.69 152.484 307.879 152.484C307.1 152.484 306.402 152.665 305.783 153.028C305.164 153.391 304.679 153.908 304.327 154.58C303.975 155.241 303.799 156.02 303.799 156.916C303.799 157.801 303.975 158.58 304.327 159.252C304.679 159.913 305.164 160.425 305.783 160.788C306.402 161.151 307.1 161.332 307.879 161.332C308.69 161.332 309.383 161.156 309.959 160.804C310.546 160.441 310.994 159.924 311.303 159.252H313.047C312.631 160.319 311.97 161.145 311.063 161.732C310.156 162.308 309.095 162.596 307.879 162.596C306.844 162.596 305.9 162.356 305.047 161.876C304.204 161.385 303.538 160.708 303.047 159.844C302.556 158.98 302.311 158.004 302.311 156.916ZM314.671 158.084C314.671 157.188 314.852 156.404 315.215 155.732C315.577 155.049 316.073 154.521 316.703 154.148C317.343 153.775 318.052 153.588 318.831 153.588C319.599 153.588 320.265 153.753 320.831 154.084C321.396 154.415 321.817 154.831 322.095 155.332V153.732H323.567V162.5H322.095V160.868C321.807 161.38 321.375 161.807 320.799 162.148C320.233 162.479 319.572 162.644 318.815 162.644C318.036 162.644 317.332 162.452 316.703 162.068C316.073 161.684 315.577 161.145 315.215 160.452C314.852 159.759 314.671 158.969 314.671 158.084ZM322.095 158.1C322.095 157.439 321.961 156.863 321.695 156.372C321.428 155.881 321.065 155.508 320.607 155.252C320.159 154.985 319.663 154.852 319.119 154.852C318.575 154.852 318.079 154.98 317.631 155.236C317.183 155.492 316.825 155.865 316.559 156.356C316.292 156.847 316.159 157.423 316.159 158.084C316.159 158.756 316.292 159.343 316.559 159.844C316.825 160.335 317.183 160.713 317.631 160.98C318.079 161.236 318.575 161.364 319.119 161.364C319.663 161.364 320.159 161.236 320.607 160.98C321.065 160.713 321.428 160.335 321.695 159.844C321.961 159.343 322.095 158.761 322.095 158.1ZM327.483 155.156C327.739 154.655 328.102 154.265 328.571 153.988C329.051 153.711 329.632 153.572 330.315 153.572V155.076H329.931C328.299 155.076 327.483 155.961 327.483 157.732V162.5H326.027V153.732H327.483V155.156ZM339.996 157.78C339.996 158.057 339.98 158.351 339.948 158.66H332.94C332.993 159.524 333.286 160.201 333.82 160.692C334.364 161.172 335.02 161.412 335.788 161.412C336.417 161.412 336.94 161.268 337.356 160.98C337.782 160.681 338.081 160.287 338.252 159.796H339.82C339.585 160.639 339.116 161.327 338.412 161.86C337.708 162.383 336.833 162.644 335.788 162.644C334.956 162.644 334.209 162.457 333.548 162.084C332.897 161.711 332.385 161.183 332.012 160.5C331.638 159.807 331.452 159.007 331.452 158.1C331.452 157.193 331.633 156.399 331.996 155.716C332.358 155.033 332.865 154.511 333.516 154.148C334.177 153.775 334.934 153.588 335.788 153.588C336.62 153.588 337.356 153.769 337.996 154.132C338.636 154.495 339.126 154.996 339.468 155.636C339.82 156.265 339.996 156.98 339.996 157.78ZM338.492 157.476C338.492 156.921 338.369 156.447 338.124 156.052C337.878 155.647 337.542 155.343 337.116 155.14C336.7 154.927 336.236 154.82 335.724 154.82C334.988 154.82 334.358 155.055 333.836 155.524C333.324 155.993 333.03 156.644 332.956 157.476H338.492ZM342.382 162.596C342.104 162.596 341.87 162.5 341.678 162.308C341.486 162.116 341.39 161.881 341.39 161.604C341.39 161.327 341.486 161.092 341.678 160.9C341.87 160.708 342.104 160.612 342.382 160.612C342.648 160.612 342.872 160.708 343.054 160.9C343.246 161.092 343.342 161.327 343.342 161.604C343.342 161.881 343.246 162.116 343.054 162.308C342.872 162.5 342.648 162.596 342.382 162.596ZM355.159 151.348V159.588C355.159 160.505 354.876 161.241 354.311 161.796C353.745 162.34 352.999 162.612 352.071 162.612C351.132 162.612 350.38 162.335 349.815 161.78C349.249 161.215 348.967 160.447 348.967 159.476H350.423C350.433 160.02 350.572 160.463 350.839 160.804C351.116 161.145 351.527 161.316 352.071 161.316C352.615 161.316 353.02 161.156 353.287 160.836C353.553 160.505 353.687 160.089 353.687 159.588V151.348H355.159ZM361.851 162.644C361.03 162.644 360.283 162.457 359.611 162.084C358.95 161.711 358.427 161.183 358.043 160.5C357.67 159.807 357.483 159.007 357.483 158.1C357.483 157.204 357.675 156.415 358.059 155.732C358.454 155.039 358.987 154.511 359.659 154.148C360.331 153.775 361.083 153.588 361.915 153.588C362.747 153.588 363.499 153.775 364.171 154.148C364.843 154.511 365.371 155.033 365.755 155.716C366.15 156.399 366.347 157.193 366.347 158.1C366.347 159.007 366.144 159.807 365.739 160.5C365.344 161.183 364.806 161.711 364.123 162.084C363.44 162.457 362.683 162.644 361.851 162.644ZM361.851 161.364C362.374 161.364 362.864 161.241 363.323 160.996C363.782 160.751 364.15 160.383 364.427 159.892C364.715 159.401 364.859 158.804 364.859 158.1C364.859 157.396 364.72 156.799 364.443 156.308C364.166 155.817 363.803 155.455 363.355 155.22C362.907 154.975 362.422 154.852 361.899 154.852C361.366 154.852 360.875 154.975 360.427 155.22C359.99 155.455 359.638 155.817 359.371 156.308C359.104 156.799 358.971 157.396 358.971 158.1C358.971 158.815 359.099 159.417 359.355 159.908C359.622 160.399 359.974 160.767 360.411 161.012C360.848 161.247 361.328 161.364 361.851 161.364ZM375.813 153.732L370.533 166.628H369.029L370.757 162.404L367.221 153.732H368.837L371.589 160.836L374.309 153.732H375.813ZM380.845 154.932H379.005V162.5H377.549V154.932H376.413V153.732H377.549V153.108C377.549 152.127 377.8 151.412 378.301 150.964C378.813 150.505 379.629 150.276 380.749 150.276V151.492C380.109 151.492 379.656 151.62 379.389 151.876C379.133 152.121 379.005 152.532 379.005 153.108V153.732H380.845V154.932ZM390.319 153.732V162.5H388.863V161.204C388.585 161.652 388.196 162.004 387.695 162.26C387.204 162.505 386.66 162.628 386.063 162.628C385.38 162.628 384.767 162.489 384.223 162.212C383.679 161.924 383.247 161.497 382.927 160.932C382.617 160.367 382.463 159.679 382.463 158.868V153.732H383.903V158.676C383.903 159.54 384.121 160.207 384.559 160.676C384.996 161.135 385.593 161.364 386.351 161.364C387.129 161.364 387.743 161.124 388.191 160.644C388.639 160.164 388.863 159.465 388.863 158.548V153.732H390.319ZM394.233 150.66V162.5H392.777V150.66H394.233ZM404.516 162.612C403.78 162.612 403.119 162.484 402.532 162.228C401.956 161.961 401.503 161.599 401.172 161.14C400.841 160.671 400.671 160.132 400.66 159.524H402.212C402.265 160.047 402.479 160.489 402.852 160.852C403.236 161.204 403.791 161.38 404.516 161.38C405.209 161.38 405.753 161.209 406.148 160.868C406.553 160.516 406.756 160.068 406.756 159.524C406.756 159.097 406.639 158.751 406.404 158.484C406.169 158.217 405.876 158.015 405.524 157.876C405.172 157.737 404.697 157.588 404.1 157.428C403.364 157.236 402.772 157.044 402.324 156.852C401.887 156.66 401.508 156.361 401.188 155.956C400.879 155.54 400.724 154.985 400.724 154.292C400.724 153.684 400.879 153.145 401.188 152.676C401.497 152.207 401.929 151.844 402.484 151.588C403.049 151.332 403.695 151.204 404.42 151.204C405.465 151.204 406.319 151.465 406.98 151.988C407.652 152.511 408.031 153.204 408.116 154.068H406.516C406.463 153.641 406.239 153.268 405.844 152.948C405.449 152.617 404.927 152.452 404.276 152.452C403.668 152.452 403.172 152.612 402.788 152.932C402.404 153.241 402.212 153.679 402.212 154.244C402.212 154.649 402.324 154.98 402.548 155.236C402.783 155.492 403.065 155.689 403.396 155.828C403.737 155.956 404.212 156.105 404.82 156.276C405.556 156.479 406.148 156.681 406.596 156.884C407.044 157.076 407.428 157.38 407.748 157.796C408.068 158.201 408.228 158.756 408.228 159.46C408.228 160.004 408.084 160.516 407.796 160.996C407.508 161.476 407.081 161.865 406.516 162.164C405.951 162.463 405.284 162.612 404.516 162.612ZM420.915 153.572C421.597 153.572 422.205 153.716 422.739 154.004C423.272 154.281 423.693 154.703 424.003 155.268C424.312 155.833 424.467 156.521 424.467 157.332V162.5H423.027V157.54C423.027 156.665 422.808 155.999 422.371 155.54C421.944 155.071 421.363 154.836 420.627 154.836C419.869 154.836 419.267 155.081 418.819 155.572C418.371 156.052 418.147 156.751 418.147 157.668V162.5H416.707V157.54C416.707 156.665 416.488 155.999 416.051 155.54C415.624 155.071 415.043 154.836 414.307 154.836C413.549 154.836 412.947 155.081 412.499 155.572C412.051 156.052 411.827 156.751 411.827 157.668V162.5H410.371V153.732H411.827V154.996C412.115 154.537 412.499 154.185 412.979 153.94C413.469 153.695 414.008 153.572 414.595 153.572C415.331 153.572 415.981 153.737 416.547 154.068C417.112 154.399 417.533 154.884 417.811 155.524C418.056 154.905 418.461 154.425 419.027 154.084C419.592 153.743 420.221 153.572 420.915 153.572ZM427.607 152.308C427.33 152.308 427.095 152.212 426.903 152.02C426.711 151.828 426.615 151.593 426.615 151.316C426.615 151.039 426.711 150.804 426.903 150.612C427.095 150.42 427.33 150.324 427.607 150.324C427.874 150.324 428.098 150.42 428.279 150.612C428.471 150.804 428.567 151.039 428.567 151.316C428.567 151.593 428.471 151.828 428.279 152.02C428.098 152.212 427.874 152.308 427.607 152.308ZM428.311 153.732V162.5H426.855V153.732H428.311ZM432.249 150.66V162.5H430.793V150.66H432.249ZM442.73 157.78C442.73 158.057 442.714 158.351 442.682 158.66H435.674C435.727 159.524 436.021 160.201 436.554 160.692C437.098 161.172 437.754 161.412 438.522 161.412C439.151 161.412 439.674 161.268 440.09 160.98C440.517 160.681 440.815 160.287 440.986 159.796H442.554C442.319 160.639 441.85 161.327 441.146 161.86C440.442 162.383 439.567 162.644 438.522 162.644C437.69 162.644 436.943 162.457 436.282 162.084C435.631 161.711 435.119 161.183 434.746 160.5C434.373 159.807 434.186 159.007 434.186 158.1C434.186 157.193 434.367 156.399 434.73 155.716C435.093 155.033 435.599 154.511 436.25 154.148C436.911 153.775 437.669 153.588 438.522 153.588C439.354 153.588 440.09 153.769 440.73 154.132C441.37 154.495 441.861 154.996 442.202 155.636C442.554 156.265 442.73 156.98 442.73 157.78ZM441.226 157.476C441.226 156.921 441.103 156.447 440.858 156.052C440.613 155.647 440.277 155.343 439.85 155.14C439.434 154.927 438.97 154.82 438.458 154.82C437.722 154.82 437.093 155.055 436.57 155.524C436.058 155.993 435.765 156.644 435.69 157.476H441.226ZM447.756 162.644C447.084 162.644 446.481 162.532 445.948 162.308C445.415 162.073 444.993 161.753 444.684 161.348C444.375 160.932 444.204 160.457 444.172 159.924H445.676C445.719 160.361 445.921 160.719 446.284 160.996C446.657 161.273 447.143 161.412 447.74 161.412C448.295 161.412 448.732 161.289 449.052 161.044C449.372 160.799 449.532 160.489 449.532 160.116C449.532 159.732 449.361 159.449 449.02 159.268C448.679 159.076 448.151 158.889 447.436 158.708C446.785 158.537 446.252 158.367 445.836 158.196C445.431 158.015 445.079 157.753 444.78 157.412C444.492 157.06 444.348 156.601 444.348 156.036C444.348 155.588 444.481 155.177 444.748 154.804C445.015 154.431 445.393 154.137 445.884 153.924C446.375 153.7 446.935 153.588 447.564 153.588C448.535 153.588 449.319 153.833 449.916 154.324C450.513 154.815 450.833 155.487 450.876 156.34H449.42C449.388 155.881 449.201 155.513 448.86 155.236C448.529 154.959 448.081 154.82 447.516 154.82C446.993 154.82 446.577 154.932 446.268 155.156C445.959 155.38 445.804 155.673 445.804 156.036C445.804 156.324 445.895 156.564 446.076 156.756C446.268 156.937 446.503 157.087 446.78 157.204C447.068 157.311 447.463 157.433 447.964 157.572C448.593 157.743 449.105 157.913 449.5 158.084C449.895 158.244 450.231 158.489 450.508 158.82C450.796 159.151 450.945 159.583 450.956 160.116C450.956 160.596 450.823 161.028 450.556 161.412C450.289 161.796 449.911 162.1 449.42 162.324C448.94 162.537 448.385 162.644 447.756 162.644ZM453.475 162.596C453.198 162.596 452.963 162.5 452.771 162.308C452.579 162.116 452.483 161.881 452.483 161.604C452.483 161.327 452.579 161.092 452.771 160.9C452.963 160.708 453.198 160.612 453.475 160.612C453.742 160.612 453.966 160.708 454.147 160.9C454.339 161.092 454.435 161.327 454.435 161.604C454.435 161.881 454.339 162.116 454.147 162.308C453.966 162.5 453.742 162.596 453.475 162.596Z" fill="white"/>
<path d="M136.171 152.532V156.26H140.235V157.46H136.171V161.3H140.715V162.5H134.715V151.332H140.715V152.532H136.171ZM147.494 162.5L145.414 159.236L143.414 162.5H141.894L144.726 158.148L141.894 153.732H143.542L145.622 156.98L147.606 153.732H149.126L146.31 158.068L149.142 162.5H147.494ZM152.03 155.348C152.318 154.847 152.745 154.431 153.31 154.1C153.886 153.759 154.553 153.588 155.31 153.588C156.089 153.588 156.793 153.775 157.422 154.148C158.062 154.521 158.563 155.049 158.926 155.732C159.289 156.404 159.47 157.188 159.47 158.084C159.47 158.969 159.289 159.759 158.926 160.452C158.563 161.145 158.062 161.684 157.422 162.068C156.793 162.452 156.089 162.644 155.31 162.644C154.563 162.644 153.902 162.479 153.326 162.148C152.761 161.807 152.329 161.385 152.03 160.884V166.66H150.574V153.732H152.03V155.348ZM157.982 158.084C157.982 157.423 157.849 156.847 157.582 156.356C157.315 155.865 156.953 155.492 156.494 155.236C156.046 154.98 155.55 154.852 155.006 154.852C154.473 154.852 153.977 154.985 153.518 155.252C153.07 155.508 152.707 155.887 152.43 156.388C152.163 156.879 152.03 157.449 152.03 158.1C152.03 158.761 152.163 159.343 152.43 159.844C152.707 160.335 153.07 160.713 153.518 160.98C153.977 161.236 154.473 161.364 155.006 161.364C155.55 161.364 156.046 161.236 156.494 160.98C156.953 160.713 157.315 160.335 157.582 159.844C157.849 159.343 157.982 158.756 157.982 158.084ZM169.386 157.78C169.386 158.057 169.37 158.351 169.338 158.66H162.33C162.384 159.524 162.677 160.201 163.21 160.692C163.754 161.172 164.41 161.412 165.178 161.412C165.808 161.412 166.33 161.268 166.746 160.98C167.173 160.681 167.472 160.287 167.642 159.796H169.21C168.976 160.639 168.506 161.327 167.802 161.86C167.098 162.383 166.224 162.644 165.178 162.644C164.346 162.644 163.6 162.457 162.938 162.084C162.288 161.711 161.776 161.183 161.402 160.5C161.029 159.807 160.842 159.007 160.842 158.1C160.842 157.193 161.024 156.399 161.386 155.716C161.749 155.033 162.256 154.511 162.906 154.148C163.568 153.775 164.325 153.588 165.178 153.588C166.01 153.588 166.746 153.769 167.386 154.132C168.026 154.495 168.517 154.996 168.858 155.636C169.21 156.265 169.386 156.98 169.386 157.78ZM167.882 157.476C167.882 156.921 167.76 156.447 167.514 156.052C167.269 155.647 166.933 155.343 166.506 155.14C166.09 154.927 165.626 154.82 165.114 154.82C164.378 154.82 163.749 155.055 163.226 155.524C162.714 155.993 162.421 156.644 162.346 157.476H167.882ZM172.764 155.156C173.02 154.655 173.383 154.265 173.852 153.988C174.332 153.711 174.914 153.572 175.596 153.572V155.076H175.212C173.58 155.076 172.764 155.961 172.764 157.732V162.5H171.308V153.732H172.764V155.156ZM179.053 154.932V160.1C179.053 160.527 179.144 160.831 179.325 161.012C179.506 161.183 179.821 161.268 180.269 161.268H181.341V162.5H180.029C179.218 162.5 178.61 162.313 178.205 161.94C177.8 161.567 177.597 160.953 177.597 160.1V154.932H176.461V153.732H177.597V151.524H179.053V153.732H181.341V154.932H179.053ZM195.963 151.348V162.5H194.507V157.444H188.827V162.5H187.371V151.348H188.827V156.244H194.507V151.348H195.963ZM197.905 158.084C197.905 157.188 198.086 156.404 198.449 155.732C198.812 155.049 199.308 154.521 199.937 154.148C200.577 153.775 201.286 153.588 202.065 153.588C202.833 153.588 203.5 153.753 204.065 154.084C204.63 154.415 205.052 154.831 205.329 155.332V153.732H206.801V162.5H205.329V160.868C205.041 161.38 204.609 161.807 204.033 162.148C203.468 162.479 202.806 162.644 202.049 162.644C201.27 162.644 200.566 162.452 199.937 162.068C199.308 161.684 198.812 161.145 198.449 160.452C198.086 159.759 197.905 158.969 197.905 158.084ZM205.329 158.1C205.329 157.439 205.196 156.863 204.929 156.372C204.662 155.881 204.3 155.508 203.841 155.252C203.393 154.985 202.897 154.852 202.353 154.852C201.809 154.852 201.313 154.98 200.865 155.236C200.417 155.492 200.06 155.865 199.793 156.356C199.526 156.847 199.393 157.423 199.393 158.084C199.393 158.756 199.526 159.343 199.793 159.844C200.06 160.335 200.417 160.713 200.865 160.98C201.313 161.236 201.809 161.364 202.353 161.364C202.897 161.364 203.393 161.236 203.841 160.98C204.3 160.713 204.662 160.335 204.929 159.844C205.196 159.343 205.329 158.761 205.329 158.1ZM213.533 153.572C214.6 153.572 215.464 153.897 216.125 154.548C216.787 155.188 217.117 156.116 217.117 157.332V162.5H215.677V157.54C215.677 156.665 215.459 155.999 215.021 155.54C214.584 155.071 213.987 154.836 213.229 154.836C212.461 154.836 211.848 155.076 211.389 155.556C210.941 156.036 210.717 156.735 210.717 157.652V162.5H209.261V153.732H210.717V154.98C211.005 154.532 211.395 154.185 211.885 153.94C212.387 153.695 212.936 153.572 213.533 153.572ZM218.952 158.084C218.952 157.188 219.133 156.404 219.496 155.732C219.858 155.049 220.354 154.521 220.984 154.148C221.624 153.775 222.338 153.588 223.128 153.588C223.81 153.588 224.445 153.748 225.032 154.068C225.618 154.377 226.066 154.788 226.376 155.3V150.66H227.848V162.5H226.376V160.852C226.088 161.375 225.661 161.807 225.096 162.148C224.53 162.479 223.869 162.644 223.112 162.644C222.333 162.644 221.624 162.452 220.984 162.068C220.354 161.684 219.858 161.145 219.496 160.452C219.133 159.759 218.952 158.969 218.952 158.084ZM226.376 158.1C226.376 157.439 226.242 156.863 225.976 156.372C225.709 155.881 225.346 155.508 224.888 155.252C224.44 154.985 223.944 154.852 223.4 154.852C222.856 154.852 222.36 154.98 221.912 155.236C221.464 155.492 221.106 155.865 220.84 156.356C220.573 156.847 220.44 157.423 220.44 158.084C220.44 158.756 220.573 159.343 220.84 159.844C221.106 160.335 221.464 160.713 221.912 160.98C222.36 161.236 222.856 161.364 223.4 161.364C223.944 161.364 224.44 161.236 224.888 160.98C225.346 160.713 225.709 160.335 225.976 159.844C226.242 159.343 226.376 158.761 226.376 158.1ZM233.412 162.644C232.74 162.644 232.138 162.532 231.604 162.308C231.071 162.073 230.65 161.753 230.34 161.348C230.031 160.932 229.86 160.457 229.828 159.924H231.332C231.375 160.361 231.578 160.719 231.94 160.996C232.314 161.273 232.799 161.412 233.396 161.412C233.951 161.412 234.388 161.289 234.708 161.044C235.028 160.799 235.188 160.489 235.188 160.116C235.188 159.732 235.018 159.449 234.676 159.268C234.335 159.076 233.807 158.889 233.092 158.708C232.442 158.537 231.908 158.367 231.492 158.196C231.087 158.015 230.735 157.753 230.436 157.412C230.148 157.06 230.004 156.601 230.004 156.036C230.004 155.588 230.138 155.177 230.404 154.804C230.671 154.431 231.05 154.137 231.54 153.924C232.031 153.7 232.591 153.588 233.22 153.588C234.191 153.588 234.975 153.833 235.572 154.324C236.17 154.815 236.49 155.487 236.532 156.34H235.076C235.044 155.881 234.858 155.513 234.516 155.236C234.186 154.959 233.738 154.82 233.172 154.82C232.65 154.82 232.234 154.932 231.924 155.156C231.615 155.38 231.46 155.673 231.46 156.036C231.46 156.324 231.551 156.564 231.732 156.756C231.924 156.937 232.159 157.087 232.436 157.204C232.724 157.311 233.119 157.433 233.62 157.572C234.25 157.743 234.762 157.913 235.156 158.084C235.551 158.244 235.887 158.489 236.164 158.82C236.452 159.151 236.602 159.583 236.612 160.116C236.612 160.596 236.479 161.028 236.212 161.412C235.946 161.796 235.567 162.1 235.076 162.324C234.596 162.537 234.042 162.644 233.412 162.644ZM239.132 162.596C238.854 162.596 238.62 162.5 238.428 162.308C238.236 162.116 238.14 161.881 238.14 161.604C238.14 161.327 238.236 161.092 238.428 160.9C238.62 160.708 238.854 160.612 239.132 160.612C239.398 160.612 239.622 160.708 239.804 160.9C239.996 161.092 240.092 161.327 240.092 161.604C240.092 161.881 239.996 162.116 239.804 162.308C239.622 162.5 239.398 162.596 239.132 162.596ZM254.741 154.58C254.431 153.929 253.983 153.428 253.397 153.076C252.81 152.713 252.127 152.532 251.349 152.532C250.57 152.532 249.866 152.713 249.237 153.076C248.618 153.428 248.127 153.94 247.765 154.612C247.413 155.273 247.237 156.041 247.237 156.916C247.237 157.791 247.413 158.559 247.765 159.22C248.127 159.881 248.618 160.393 249.237 160.756C249.866 161.108 250.57 161.284 251.349 161.284C252.437 161.284 253.333 160.959 254.037 160.308C254.741 159.657 255.151 158.777 255.269 157.668H250.821V156.484H256.821V157.604C256.735 158.521 256.447 159.364 255.957 160.132C255.466 160.889 254.821 161.492 254.021 161.94C253.221 162.377 252.33 162.596 251.349 162.596C250.314 162.596 249.37 162.356 248.517 161.876C247.663 161.385 246.986 160.708 246.485 159.844C245.994 158.98 245.749 158.004 245.749 156.916C245.749 155.828 245.994 154.852 246.485 153.988C246.986 153.113 247.663 152.436 248.517 151.956C249.37 151.465 250.314 151.22 251.349 151.22C252.533 151.22 253.578 151.513 254.485 152.1C255.402 152.687 256.069 153.513 256.485 154.58H254.741ZM266.746 157.78C266.746 158.057 266.73 158.351 266.698 158.66H259.69C259.743 159.524 260.036 160.201 260.57 160.692C261.114 161.172 261.77 161.412 262.538 161.412C263.167 161.412 263.69 161.268 264.106 160.98C264.532 160.681 264.831 160.287 265.002 159.796H266.57C266.335 160.639 265.866 161.327 265.162 161.86C264.458 162.383 263.583 162.644 262.538 162.644C261.706 162.644 260.959 162.457 260.298 162.084C259.647 161.711 259.135 161.183 258.762 160.5C258.388 159.807 258.202 159.007 258.202 158.1C258.202 157.193 258.383 156.399 258.746 155.716C259.108 155.033 259.615 154.511 260.266 154.148C260.927 153.775 261.684 153.588 262.538 153.588C263.37 153.588 264.106 153.769 264.746 154.132C265.386 154.495 265.876 154.996 266.218 155.636C266.57 156.265 266.746 156.98 266.746 157.78ZM265.242 157.476C265.242 156.921 265.119 156.447 264.874 156.052C264.628 155.647 264.292 155.343 263.866 155.14C263.45 154.927 262.986 154.82 262.474 154.82C261.738 154.82 261.108 155.055 260.586 155.524C260.074 155.993 259.78 156.644 259.706 157.476H265.242ZM272.94 153.572C274.006 153.572 274.87 153.897 275.532 154.548C276.193 155.188 276.524 156.116 276.524 157.332V162.5H275.084V157.54C275.084 156.665 274.865 155.999 274.428 155.54C273.99 155.071 273.393 154.836 272.636 154.836C271.868 154.836 271.254 155.076 270.796 155.556C270.348 156.036 270.124 156.735 270.124 157.652V162.5H268.668V153.732H270.124V154.98C270.412 154.532 270.801 154.185 271.292 153.94C271.793 153.695 272.342 153.572 272.94 153.572ZM280.678 154.932V160.1C280.678 160.527 280.769 160.831 280.95 161.012C281.131 161.183 281.446 161.268 281.894 161.268H282.966V162.5H281.654C280.843 162.5 280.235 162.313 279.83 161.94C279.425 161.567 279.222 160.953 279.222 160.1V154.932H278.086V153.732H279.222V151.524H280.678V153.732H282.966V154.932H280.678ZM286.186 150.66V162.5H284.73V150.66H286.186ZM296.668 157.78C296.668 158.057 296.652 158.351 296.62 158.66H289.612C289.665 159.524 289.958 160.201 290.492 160.692C291.036 161.172 291.692 161.412 292.46 161.412C293.089 161.412 293.612 161.268 294.028 160.98C294.454 160.681 294.753 160.287 294.924 159.796H296.492C296.257 160.639 295.788 161.327 295.084 161.86C294.38 162.383 293.505 162.644 292.46 162.644C291.628 162.644 290.881 162.457 290.22 162.084C289.569 161.711 289.057 161.183 288.684 160.5C288.31 159.807 288.124 159.007 288.124 158.1C288.124 157.193 288.305 156.399 288.668 155.716C289.03 155.033 289.537 154.511 290.188 154.148C290.849 153.775 291.606 153.588 292.46 153.588C293.292 153.588 294.028 153.769 294.668 154.132C295.308 154.495 295.798 154.996 296.14 155.636C296.492 156.265 296.668 156.98 296.668 157.78ZM295.164 157.476C295.164 156.921 295.041 156.447 294.796 156.052C294.55 155.647 294.214 155.343 293.788 155.14C293.372 154.927 292.908 154.82 292.396 154.82C291.66 154.82 291.03 155.055 290.508 155.524C289.996 155.993 289.702 156.644 289.628 157.476H295.164ZM302.311 156.916C302.311 155.828 302.556 154.852 303.047 153.988C303.538 153.113 304.204 152.431 305.047 151.94C305.9 151.449 306.844 151.204 307.879 151.204C309.095 151.204 310.156 151.497 311.063 152.084C311.97 152.671 312.631 153.503 313.047 154.58H311.303C310.994 153.908 310.546 153.391 309.959 153.028C309.383 152.665 308.69 152.484 307.879 152.484C307.1 152.484 306.402 152.665 305.783 153.028C305.164 153.391 304.679 153.908 304.327 154.58C303.975 155.241 303.799 156.02 303.799 156.916C303.799 157.801 303.975 158.58 304.327 159.252C304.679 159.913 305.164 160.425 305.783 160.788C306.402 161.151 307.1 161.332 307.879 161.332C308.69 161.332 309.383 161.156 309.959 160.804C310.546 160.441 310.994 159.924 311.303 159.252H313.047C312.631 160.319 311.97 161.145 311.063 161.732C310.156 162.308 309.095 162.596 307.879 162.596C306.844 162.596 305.9 162.356 305.047 161.876C304.204 161.385 303.538 160.708 303.047 159.844C302.556 158.98 302.311 158.004 302.311 156.916ZM314.671 158.084C314.671 157.188 314.852 156.404 315.215 155.732C315.577 155.049 316.073 154.521 316.703 154.148C317.343 153.775 318.052 153.588 318.831 153.588C319.599 153.588 320.265 153.753 320.831 154.084C321.396 154.415 321.817 154.831 322.095 155.332V153.732H323.567V162.5H322.095V160.868C321.807 161.38 321.375 161.807 320.799 162.148C320.233 162.479 319.572 162.644 318.815 162.644C318.036 162.644 317.332 162.452 316.703 162.068C316.073 161.684 315.577 161.145 315.215 160.452C314.852 159.759 314.671 158.969 314.671 158.084ZM322.095 158.1C322.095 157.439 321.961 156.863 321.695 156.372C321.428 155.881 321.065 155.508 320.607 155.252C320.159 154.985 319.663 154.852 319.119 154.852C318.575 154.852 318.079 154.98 317.631 155.236C317.183 155.492 316.825 155.865 316.559 156.356C316.292 156.847 316.159 157.423 316.159 158.084C316.159 158.756 316.292 159.343 316.559 159.844C316.825 160.335 317.183 160.713 317.631 160.98C318.079 161.236 318.575 161.364 319.119 161.364C319.663 161.364 320.159 161.236 320.607 160.98C321.065 160.713 321.428 160.335 321.695 159.844C321.961 159.343 322.095 158.761 322.095 158.1ZM327.483 155.156C327.739 154.655 328.102 154.265 328.571 153.988C329.051 153.711 329.632 153.572 330.315 153.572V155.076H329.931C328.299 155.076 327.483 155.961 327.483 157.732V162.5H326.027V153.732H327.483V155.156ZM339.996 157.78C339.996 158.057 339.98 158.351 339.948 158.66H332.94C332.993 159.524 333.286 160.201 333.82 160.692C334.364 161.172 335.02 161.412 335.788 161.412C336.417 161.412 336.94 161.268 337.356 160.98C337.782 160.681 338.081 160.287 338.252 159.796H339.82C339.585 160.639 339.116 161.327 338.412 161.86C337.708 162.383 336.833 162.644 335.788 162.644C334.956 162.644 334.209 162.457 333.548 162.084C332.897 161.711 332.385 161.183 332.012 160.5C331.638 159.807 331.452 159.007 331.452 158.1C331.452 157.193 331.633 156.399 331.996 155.716C332.358 155.033 332.865 154.511 333.516 154.148C334.177 153.775 334.934 153.588 335.788 153.588C336.62 153.588 337.356 153.769 337.996 154.132C338.636 154.495 339.126 154.996 339.468 155.636C339.82 156.265 339.996 156.98 339.996 157.78ZM338.492 157.476C338.492 156.921 338.369 156.447 338.124 156.052C337.878 155.647 337.542 155.343 337.116 155.14C336.7 154.927 336.236 154.82 335.724 154.82C334.988 154.82 334.358 155.055 333.836 155.524C333.324 155.993 333.03 156.644 332.956 157.476H338.492ZM342.382 162.596C342.104 162.596 341.87 162.5 341.678 162.308C341.486 162.116 341.39 161.881 341.39 161.604C341.39 161.327 341.486 161.092 341.678 160.9C341.87 160.708 342.104 160.612 342.382 160.612C342.648 160.612 342.872 160.708 343.054 160.9C343.246 161.092 343.342 161.327 343.342 161.604C343.342 161.881 343.246 162.116 343.054 162.308C342.872 162.5 342.648 162.596 342.382 162.596ZM355.159 151.348V159.588C355.159 160.505 354.876 161.241 354.311 161.796C353.745 162.34 352.999 162.612 352.071 162.612C351.132 162.612 350.38 162.335 349.815 161.78C349.249 161.215 348.967 160.447 348.967 159.476H350.423C350.433 160.02 350.572 160.463 350.839 160.804C351.116 161.145 351.527 161.316 352.071 161.316C352.615 161.316 353.02 161.156 353.287 160.836C353.553 160.505 353.687 160.089 353.687 159.588V151.348H355.159ZM361.851 162.644C361.03 162.644 360.283 162.457 359.611 162.084C358.95 161.711 358.427 161.183 358.043 160.5C357.67 159.807 357.483 159.007 357.483 158.1C357.483 157.204 357.675 156.415 358.059 155.732C358.454 155.039 358.987 154.511 359.659 154.148C360.331 153.775 361.083 153.588 361.915 153.588C362.747 153.588 363.499 153.775 364.171 154.148C364.843 154.511 365.371 155.033 365.755 155.716C366.15 156.399 366.347 157.193 366.347 158.1C366.347 159.007 366.144 159.807 365.739 160.5C365.344 161.183 364.806 161.711 364.123 162.084C363.44 162.457 362.683 162.644 361.851 162.644ZM361.851 161.364C362.374 161.364 362.864 161.241 363.323 160.996C363.782 160.751 364.15 160.383 364.427 159.892C364.715 159.401 364.859 158.804 364.859 158.1C364.859 157.396 364.72 156.799 364.443 156.308C364.166 155.817 363.803 155.455 363.355 155.22C362.907 154.975 362.422 154.852 361.899 154.852C361.366 154.852 360.875 154.975 360.427 155.22C359.99 155.455 359.638 155.817 359.371 156.308C359.104 156.799 358.971 157.396 358.971 158.1C358.971 158.815 359.099 159.417 359.355 159.908C359.622 160.399 359.974 160.767 360.411 161.012C360.848 161.247 361.328 161.364 361.851 161.364ZM375.813 153.732L370.533 166.628H369.029L370.757 162.404L367.221 153.732H368.837L371.589 160.836L374.309 153.732H375.813ZM380.845 154.932H379.005V162.5H377.549V154.932H376.413V153.732H377.549V153.108C377.549 152.127 377.8 151.412 378.301 150.964C378.813 150.505 379.629 150.276 380.749 150.276V151.492C380.109 151.492 379.656 151.62 379.389 151.876C379.133 152.121 379.005 152.532 379.005 153.108V153.732H380.845V154.932ZM390.319 153.732V162.5H388.863V161.204C388.585 161.652 388.196 162.004 387.695 162.26C387.204 162.505 386.66 162.628 386.063 162.628C385.38 162.628 384.767 162.489 384.223 162.212C383.679 161.924 383.247 161.497 382.927 160.932C382.617 160.367 382.463 159.679 382.463 158.868V153.732H383.903V158.676C383.903 159.54 384.121 160.207 384.559 160.676C384.996 161.135 385.593 161.364 386.351 161.364C387.129 161.364 387.743 161.124 388.191 160.644C388.639 160.164 388.863 159.465 388.863 158.548V153.732H390.319ZM394.233 150.66V162.5H392.777V150.66H394.233ZM404.516 162.612C403.78 162.612 403.119 162.484 402.532 162.228C401.956 161.961 401.503 161.599 401.172 161.14C400.841 160.671 400.671 160.132 400.66 159.524H402.212C402.265 160.047 402.479 160.489 402.852 160.852C403.236 161.204 403.791 161.38 404.516 161.38C405.209 161.38 405.753 161.209 406.148 160.868C406.553 160.516 406.756 160.068 406.756 159.524C406.756 159.097 406.639 158.751 406.404 158.484C406.169 158.217 405.876 158.015 405.524 157.876C405.172 157.737 404.697 157.588 404.1 157.428C403.364 157.236 402.772 157.044 402.324 156.852C401.887 156.66 401.508 156.361 401.188 155.956C400.879 155.54 400.724 154.985 400.724 154.292C400.724 153.684 400.879 153.145 401.188 152.676C401.497 152.207 401.929 151.844 402.484 151.588C403.049 151.332 403.695 151.204 404.42 151.204C405.465 151.204 406.319 151.465 406.98 151.988C407.652 152.511 408.031 153.204 408.116 154.068H406.516C406.463 153.641 406.239 153.268 405.844 152.948C405.449 152.617 404.927 152.452 404.276 152.452C403.668 152.452 403.172 152.612 402.788 152.932C402.404 153.241 402.212 153.679 402.212 154.244C402.212 154.649 402.324 154.98 402.548 155.236C402.783 155.492 403.065 155.689 403.396 155.828C403.737 155.956 404.212 156.105 404.82 156.276C405.556 156.479 406.148 156.681 406.596 156.884C407.044 157.076 407.428 157.38 407.748 157.796C408.068 158.201 408.228 158.756 408.228 159.46C408.228 160.004 408.084 160.516 407.796 160.996C407.508 161.476 407.081 161.865 406.516 162.164C405.951 162.463 405.284 162.612 404.516 162.612ZM420.915 153.572C421.597 153.572 422.205 153.716 422.739 154.004C423.272 154.281 423.693 154.703 424.003 155.268C424.312 155.833 424.467 156.521 424.467 157.332V162.5H423.027V157.54C423.027 156.665 422.808 155.999 422.371 155.54C421.944 155.071 421.363 154.836 420.627 154.836C419.869 154.836 419.267 155.081 418.819 155.572C418.371 156.052 418.147 156.751 418.147 157.668V162.5H416.707V157.54C416.707 156.665 416.488 155.999 416.051 155.54C415.624 155.071 415.043 154.836 414.307 154.836C413.549 154.836 412.947 155.081 412.499 155.572C412.051 156.052 411.827 156.751 411.827 157.668V162.5H410.371V153.732H411.827V154.996C412.115 154.537 412.499 154.185 412.979 153.94C413.469 153.695 414.008 153.572 414.595 153.572C415.331 153.572 415.981 153.737 416.547 154.068C417.112 154.399 417.533 154.884 417.811 155.524C418.056 154.905 418.461 154.425 419.027 154.084C419.592 153.743 420.221 153.572 420.915 153.572ZM427.607 152.308C427.33 152.308 427.095 152.212 426.903 152.02C426.711 151.828 426.615 151.593 426.615 151.316C426.615 151.039 426.711 150.804 426.903 150.612C427.095 150.42 427.33 150.324 427.607 150.324C427.874 150.324 428.098 150.42 428.279 150.612C428.471 150.804 428.567 151.039 428.567 151.316C428.567 151.593 428.471 151.828 428.279 152.02C428.098 152.212 427.874 152.308 427.607 152.308ZM428.311 153.732V162.5H426.855V153.732H428.311ZM432.249 150.66V162.5H430.793V150.66H432.249ZM442.73 157.78C442.73 158.057 442.714 158.351 442.682 158.66H435.674C435.727 159.524 436.021 160.201 436.554 160.692C437.098 161.172 437.754 161.412 438.522 161.412C439.151 161.412 439.674 161.268 440.09 160.98C440.517 160.681 440.815 160.287 440.986 159.796H442.554C442.319 160.639 441.85 161.327 441.146 161.86C440.442 162.383 439.567 162.644 438.522 162.644C437.69 162.644 436.943 162.457 436.282 162.084C435.631 161.711 435.119 161.183 434.746 160.5C434.373 159.807 434.186 159.007 434.186 158.1C434.186 157.193 434.367 156.399 434.73 155.716C435.093 155.033 435.599 154.511 436.25 154.148C436.911 153.775 437.669 153.588 438.522 153.588C439.354 153.588 440.09 153.769 440.73 154.132C441.37 154.495 441.861 154.996 442.202 155.636C442.554 156.265 442.73 156.98 442.73 157.78ZM441.226 157.476C441.226 156.921 441.103 156.447 440.858 156.052C440.613 155.647 440.277 155.343 439.85 155.14C439.434 154.927 438.97 154.82 438.458 154.82C437.722 154.82 437.093 155.055 436.57 155.524C436.058 155.993 435.765 156.644 435.69 157.476H441.226ZM447.756 162.644C447.084 162.644 446.481 162.532 445.948 162.308C445.415 162.073 444.993 161.753 444.684 161.348C444.375 160.932 444.204 160.457 444.172 159.924H445.676C445.719 160.361 445.921 160.719 446.284 160.996C446.657 161.273 447.143 161.412 447.74 161.412C448.295 161.412 448.732 161.289 449.052 161.044C449.372 160.799 449.532 160.489 449.532 160.116C449.532 159.732 449.361 159.449 449.02 159.268C448.679 159.076 448.151 158.889 447.436 158.708C446.785 158.537 446.252 158.367 445.836 158.196C445.431 158.015 445.079 157.753 444.78 157.412C444.492 157.06 444.348 156.601 444.348 156.036C444.348 155.588 444.481 155.177 444.748 154.804C445.015 154.431 445.393 154.137 445.884 153.924C446.375 153.7 446.935 153.588 447.564 153.588C448.535 153.588 449.319 153.833 449.916 154.324C450.513 154.815 450.833 155.487 450.876 156.34H449.42C449.388 155.881 449.201 155.513 448.86 155.236C448.529 154.959 448.081 154.82 447.516 154.82C446.993 154.82 446.577 154.932 446.268 155.156C445.959 155.38 445.804 155.673 445.804 156.036C445.804 156.324 445.895 156.564 446.076 156.756C446.268 156.937 446.503 157.087 446.78 157.204C447.068 157.311 447.463 157.433 447.964 157.572C448.593 157.743 449.105 157.913 449.5 158.084C449.895 158.244 450.231 158.489 450.508 158.82C450.796 159.151 450.945 159.583 450.956 160.116C450.956 160.596 450.823 161.028 450.556 161.412C450.289 161.796 449.911 162.1 449.42 162.324C448.94 162.537 448.385 162.644 447.756 162.644ZM453.475 162.596C453.198 162.596 452.963 162.5 452.771 162.308C452.579 162.116 452.483 161.881 452.483 161.604C452.483 161.327 452.579 161.092 452.771 160.9C452.963 160.708 453.198 160.612 453.475 160.612C453.742 160.612 453.966 160.708 454.147 160.9C454.339 161.092 454.435 161.327 454.435 161.604C454.435 161.881 454.339 162.116 454.147 162.308C453.966 162.5 453.742 162.596 453.475 162.596Z" fill="white"/>
<path d="M13.4825 157L127.483 156.504" stroke="white"/>
<path d="M13.4825 0.5H460.483" stroke="white"/>
</svg>
