<svg width="450" height="470" viewBox="0 0 450 470" fill="none" xmlns="http://www.w3.org/2000/svg">
<path d="M375 250C375 269.698 371.12 289.204 363.582 307.403C356.044 325.601 344.995 342.137 331.066 356.066C317.137 369.995 300.601 381.044 282.403 388.582C264.204 396.12 244.698 400 225 400C205.302 400 185.796 396.12 167.597 388.582C149.399 381.044 132.863 369.995 118.934 356.066C105.005 342.137 93.9563 325.601 86.4181 307.403C78.8799 289.204 75 269.698 75 250L137.894 250C137.894 261.439 140.147 272.766 144.524 283.334C148.902 293.902 155.318 303.505 163.406 311.594C171.495 319.682 181.098 326.098 191.666 330.476C202.234 334.853 213.561 337.106 225 337.106C236.439 337.106 247.766 334.853 258.334 330.476C268.902 326.098 278.505 319.682 286.594 311.594C294.682 303.505 301.098 293.902 305.476 283.334C309.853 272.766 312.106 261.439 312.106 250H375Z" fill="#F35D5D"/>
<path d="M375 100C375 113.132 372.413 126.136 367.388 138.268C362.362 150.401 354.997 161.425 345.711 170.711C336.425 179.997 325.401 187.362 313.268 192.388C301.136 197.413 288.132 200 275 200L275 100H375Z" fill="white"/>
<rect x="75" y="100" width="100" height="100" rx="50" fill="white"/>
</svg>
