<svg width="297" height="94" viewBox="0 0 297 94" fill="none" xmlns="http://www.w3.org/2000/svg">
<path d="M21.12 69.984C21.12 73.632 20.416 76.768 19.008 79.392C17.6 82.08 15.712 84.16 13.344 85.632C10.976 87.104 8.32 87.84 5.376 87.84C3.776 87.84 2.496 87.296 1.536 86.208C0.511998 85.184 -1.96695e-06 83.936 -1.96695e-06 82.464V81.408C-1.96695e-06 80 0.479998 78.88 1.44 78.048C2.336 77.216 3.488 76.576 4.896 76.128C6.432 75.616 7.52 74.88 8.16 73.92C8.8 73.024 9.184 71.936 9.312 70.656C9.504 69.376 9.6 68.032 9.6 66.624V23.52C9.6 21.856 10.144 20.48 11.232 19.392C12.32 18.24 13.696 17.664 15.36 17.664C17.024 17.664 18.4 18.24 19.488 19.392C20.576 20.48 21.12 21.856 21.12 23.52V69.984ZM15.168 11.424C12.992 11.424 11.456 11.072 10.56 10.368C9.664 9.66401 9.216 8.41601 9.216 6.62401V4.80001C9.216 2.94402 9.696 1.69602 10.656 1.05602C11.68 0.352015 13.216 1.33514e-05 15.264 1.33514e-05C17.504 1.33514e-05 19.072 0.352015 19.968 1.05602C20.864 1.76002 21.312 3.00801 21.312 4.80001V6.62401C21.312 8.48001 20.832 9.76001 19.872 10.464C18.912 11.104 17.344 11.424 15.168 11.424ZM84.4215 43.392C84.4215 48.64 83.2375 53.28 80.8695 57.312C78.5655 61.28 75.4295 64.384 71.4615 66.624C67.5575 68.864 63.1735 69.984 58.3095 69.984C53.4455 69.984 49.0295 68.864 45.0615 66.624C41.1575 64.384 38.0215 61.28 35.6535 57.312C33.3495 53.28 32.1975 48.64 32.1975 43.392C32.1975 38.144 33.3495 33.536 35.6535 29.568C38.0215 25.536 41.1575 22.4 45.0615 20.16C49.0295 17.856 53.4455 16.704 58.3095 16.704C63.1735 16.704 67.5575 17.856 71.4615 20.16C75.4295 22.4 78.5655 25.536 80.8695 29.568C83.2375 33.536 84.4215 38.144 84.4215 43.392ZM72.9015 43.392C72.9015 40.128 72.2295 37.312 70.8855 34.944C69.6055 32.512 67.8455 30.624 65.6055 29.28C63.4295 27.936 60.9975 27.264 58.3095 27.264C55.6215 27.264 53.1575 27.936 50.9175 29.28C48.7415 30.624 46.9815 32.512 45.6375 34.944C44.3575 37.312 43.7175 40.128 43.7175 43.392C43.7175 46.592 44.3575 49.408 45.6375 51.84C46.9815 54.208 48.7415 56.064 50.9175 57.408C53.1575 58.752 55.6215 59.424 58.3095 59.424C60.9975 59.424 63.4295 58.752 65.6055 57.408C67.8455 56.064 69.6055 54.208 70.8855 51.84C72.2295 49.408 72.9015 46.592 72.9015 43.392ZM132.616 17.664C134.28 17.664 135.656 18.24 136.744 19.392C137.832 20.48 138.376 21.856 138.376 23.52V64.32C138.376 70.208 137.256 74.88 135.016 78.336C132.84 81.856 129.896 84.384 126.184 85.92C122.472 87.456 118.312 88.224 113.704 88.224C111.656 88.224 109.48 88.064 107.176 87.744C104.872 87.424 102.984 86.944 101.512 86.304C99.5917 85.472 98.2477 84.416 97.4797 83.136C96.7757 81.92 96.6477 80.608 97.0957 79.2C97.6717 77.344 98.5997 76.064 99.8797 75.36C101.16 74.72 102.504 74.656 103.912 75.168C104.936 75.488 106.28 75.968 107.944 76.608C109.608 77.312 111.528 77.664 113.704 77.664C116.648 77.664 119.08 77.248 121 76.416C122.984 75.648 124.456 74.304 125.416 72.384C126.44 70.528 126.952 67.968 126.952 64.704V58.272L128.968 60.576C127.88 62.688 126.504 64.448 124.84 65.856C123.24 67.2 121.32 68.224 119.08 68.928C116.84 69.632 114.28 69.984 111.4 69.984C108.008 69.984 105.032 69.216 102.472 67.68C99.9757 66.08 98.0237 63.904 96.6157 61.152C95.2077 58.336 94.5037 55.136 94.5037 51.552V23.52C94.5037 21.856 95.0477 20.48 96.1357 19.392C97.2237 18.24 98.5997 17.664 100.264 17.664C101.928 17.664 103.304 18.24 104.392 19.392C105.48 20.48 106.024 21.856 106.024 23.52V48.096C106.024 52.256 106.92 55.2 108.712 56.928C110.568 58.592 113.128 59.424 116.392 59.424C118.632 59.424 120.52 59.008 122.056 58.176C123.592 57.28 124.776 56 125.608 54.336C126.44 52.608 126.856 50.528 126.856 48.096V23.52C126.856 21.856 127.4 20.48 128.488 19.392C129.576 18.24 130.952 17.664 132.616 17.664Z" fill="black"/>
<path d="M261.764 48.024C261.764 53.9335 260.6 59.7851 258.338 65.2448C256.077 70.7044 252.762 75.6652 248.584 79.8438C244.405 84.0225 239.444 87.3371 233.985 89.5986C228.525 91.8601 222.673 93.024 216.764 93.024C210.854 93.024 205.003 91.8601 199.543 89.5986C194.083 87.3371 189.123 84.0225 184.944 79.8438C180.765 75.6652 177.451 70.7044 175.189 65.2448C172.928 59.7851 171.764 53.9335 171.764 48.024L216.764 48.024H261.764Z" fill="#F35D5D"/>
<path d="M261.764 3.02402C261.764 6.96367 260.988 10.8648 259.48 14.5045C257.972 18.1443 255.763 21.4515 252.977 24.2372C250.191 27.023 246.884 29.2328 243.244 30.7404C239.604 32.248 235.703 33.024 231.764 33.024L231.764 3.02402L261.764 3.02402Z" fill="#393939"/>
<rect x="171.764" y="3.02402" width="30" height="30" rx="15" fill="#393939"/>
</svg>
